<?xml version="1.0" encoding="UTF-8" standalone="no"?>
<svg
   xmlns:dc="http://purl.org/dc/elements/1.1/"
   xmlns:cc="http://creativecommons.org/ns#"
   xmlns:rdf="http://www.w3.org/1999/02/22-rdf-syntax-ns#"
   xmlns:svg="http://www.w3.org/2000/svg"
   xmlns="http://www.w3.org/2000/svg"
   viewBox="0 0 332.73334 341.57333"
   height="341.57333"
   width="332.73334"
   xml:space="preserve"
   id="svg2"
   version="1.1"><metadata
     id="metadata8"><rdf:RDF><cc:Work
         rdf:about=""><dc:format>image/svg+xml</dc:format><dc:type
           rdf:resource="http://purl.org/dc/dcmitype/StillImage" /></cc:Work></rdf:RDF></metadata><defs
     id="defs6" /><g
     transform="matrix(1.3333333,0,0,-1.3333333,0,341.57333)"
     id="g10"><g
       transform="scale(0.1)"
       id="g12"><path
         id="path14"
         style="fill:#9d3e1d;fill-opacity:1;fill-rule:nonzero;stroke:none"
         d="m 51.3086,78.7891 c 0,8.25 -3.0195,12.6992 -8.5781,12.6992 -14.1367,0 -23.5078,-26.3594 -23.5078,-39.2266 0,-9.3711 3.3359,-14.1406 9.2148,-14.1406 12.8672,0 22.8711,27.8008 22.8711,40.668 z M 63.5391,51.4609 C 62.2695,47.332 61.793,44.4688 61.793,42.4102 c 0,-2.6993 1.2695,-4.1289 3.6523,-4.1289 3.4961,0 6.9922,5.3984 10.6445,16.0507 l 7.6211,-2.3906 C 77.5195,32.5586 68.9414,25.4102 59.2539,25.4102 c -7.4687,0 -13.0273,4.7617 -13.0273,13.9804 0,1.1211 0,1.9102 0.1601,3.5 l -1.1133,0.4688 C 39.2383,31.4414 30.1797,25.4102 21.1289,25.4102 7.46484,25.4102 0,36.6914 0,50.6719 0,66.8711 6.51172,81.332 15.0938,89.75 c 7.4648,7.6211 15.8828,12.07 24.7773,12.07 8.8984,0 13.9766,-6.1989 15.4062,-13.3395 L 58.457,100.699 H 76.5625 L 63.5391,51.4609" /><path
         id="path16"
         style="fill:#9d3e1d;fill-opacity:1;fill-rule:nonzero;stroke:none"
         d="m 163.289,38.2813 c 3.336,0 6.676,5.0781 10.965,16.0507 l 7.465,-2.3906 c -6.352,-19.2226 -15.25,-26.5312 -24.301,-26.5312 -8.578,0 -14.141,5.5703 -14.141,14.7695 0,15.8906 10.485,31.6211 10.485,42.4219 0,3.6484 -1.59,5.2382 -4.289,5.2382 -7.305,0 -20.965,-12.0703 -33.676,-60.8398 H 96.7383 l 13.6567,51.4688 c 2.382,9.0507 1.91,11.5898 -0.954,11.5898 -3.652,0 -7.781,-6.8281 -12.3863,-16.668 l -7.4649,3.168 c 6.8321,15.8828 14.7692,25.1014 25.4142,25.1014 6.832,0 11.598,-4.9217 11.598,-14.7811 0,-4.6094 -0.957,-10.3203 -3.34,-17.6172 l 1.113,-0.4804 c 10.484,22.3906 22.234,33.0387 33.516,33.0387 8.894,0 14.457,-6.9997 14.457,-16.5309 0,-13.4883 -11.758,-33.8282 -11.758,-43.5078 0,-2.3907 0.953,-3.5 2.699,-3.5" /><path
         id="path18"
         style="fill:#9d3e1d;fill-opacity:1;fill-rule:nonzero;stroke:none"
         d="m 242.551,63.3789 c 0,-18.4297 9.051,-27.3281 23.98,-27.3281 25.895,0 36.379,38.6094 36.379,59.0976 0,18.4216 -9.215,27.3206 -23.984,27.3206 -26.051,0 -36.375,-38.5979 -36.375,-59.0901 z m 37.168,70.6801 c 26.051,0 44.32,-18.579 44.32,-45.9106 0,-30.6484 -23.031,-63.6875 -58.297,-63.6875 -26.051,0 -44.476,18.5899 -44.476,45.9102 0,30.6489 23.031,63.6879 58.453,63.6879" /><path
         id="path20"
         style="fill:#9d3e1d;fill-opacity:1;fill-rule:nonzero;stroke:none"
         d="m 361.52,49.8711 c 0,-7.7813 3.335,-13.1797 10.32,-13.1797 14.137,0 22.082,26.6875 22.082,39.2383 0,8.8906 -2.863,13.4922 -8.734,13.4922 -12.711,0 -23.668,-25.5625 -23.668,-39.5508 z m -12.868,38.7578 c -3.656,0 -6.511,-4.6094 -11.597,-15.2383 l -7.465,3.168 c 7.621,17.4727 15.09,25.1014 25.098,25.1014 7.148,0 11.914,-5.2381 11.914,-14.3006 0,-1.1094 -0.161,-2.5391 -0.325,-3.9688 l 1.278,-0.4687 c 6.035,12.539 15.722,18.8981 24.461,18.8981 13.339,0 20.968,-10.9606 20.968,-25.738 0,-25.5703 -17.632,-49.2422 -37.171,-49.2422 -8.418,0 -15.09,4.2891 -18.11,10.6485 l -6.351,-23.668 h 14.925 L 363.105,2.05859 h -44 l 3.176,11.76171 h 10.801 l 16.84,62.8985 c 2.383,8.8906 1.586,11.9101 -1.27,11.9101" /><path
         id="path22"
         style="fill:#9d3e1d;fill-opacity:1;fill-rule:nonzero;stroke:none"
         d="m 442.52,64.332 c 22.082,2.3789 30.179,10.9571 30.179,20.8086 0,4.4492 -2.539,7.9414 -7.304,7.9414 -11.118,0 -19.536,-15.0937 -22.875,-28.75 z m -1.426,-7.4726 c -0.16,-1.2696 -0.16,-2.5274 -0.16,-3.6485 0,-13.1796 6.832,-17.3125 14.769,-17.3125 7.789,0 15.57,5.2422 22.242,14.6133 l 6.668,-4.7734 c -8.097,-11.5899 -17.949,-20.3281 -34.785,-20.3281 -16.359,0 -27.797,11.4296 -27.797,28.9218 0,24.4571 21.129,47.488 46.067,47.488 13.66,0 21.281,-6.8317 21.281,-16.5309 0,-14.2774 -14.93,-26.5196 -48.285,-28.4297" /><path
         id="path24"
         style="fill:#9d3e1d;fill-opacity:1;fill-rule:nonzero;stroke:none"
         d="m 571.184,38.2813 c 3.332,0 6.671,5.0781 10.961,16.0507 l 7.464,-2.3906 c -6.351,-19.2226 -15.25,-26.5312 -24.3,-26.5312 -8.579,0 -14.141,5.5703 -14.141,14.7695 0,15.8906 10.48,31.6211 10.48,42.4219 0,3.6484 -1.585,5.2382 -4.285,5.2382 -7.304,0 -20.968,-12.0703 -33.675,-60.8398 h -19.059 l 13.656,51.4688 c 2.383,9.0507 1.91,11.5898 -0.949,11.5898 -3.652,0 -7.785,-6.8281 -12.391,-16.668 l -7.465,3.168 c 6.833,15.8828 14.77,25.1014 25.415,25.1014 6.832,0 11.597,-4.9217 11.597,-14.7811 0,-4.6094 -0.957,-10.3203 -3.34,-17.6172 l 1.114,-0.4804 c 10.484,22.3906 22.238,33.0387 33.515,33.0387 8.899,0 14.457,-6.9997 14.457,-16.5309 0,-13.4883 -11.758,-33.8282 -11.758,-43.5078 0,-2.3907 0.954,-3.5 2.704,-3.5" /><path
         id="path26"
         style="fill:#9d3e1d;fill-opacity:1;fill-rule:nonzero;stroke:none"
         d="m 606.121,64.1719 h 11.281 c 3.02,-19.0625 14.137,-28.4336 28.118,-28.4336 12.546,0 19.851,7.9414 19.851,16.2031 0,9.207 -10.484,13.5 -21.762,18.7383 -13.183,5.8789 -27.636,12.8711 -27.636,29.7113 0,17.781 16.043,33.668 37.168,33.668 11.277,0 21.761,-4.61 27.004,-12.071 l 6.511,11.594 h 11.914 l -9.371,-37.6406 h -11.117 c -3.336,19.6876 -11.281,26.9996 -24.941,26.9996 -10.325,0 -17.633,-7.461 -17.633,-15.722 0,-10.0081 10.801,-14.2971 22.242,-19.3792 13.02,-5.5703 27,-12.2382 27,-28.9179 0,-19.5313 -17.312,-34.461 -39.074,-34.461 -13.821,0 -24.145,5.0782 -30.184,12.711 l -6.984,-12.2305 h -11.914 l 9.527,39.2305" /><path
         id="path28"
         style="fill:#9d3e1d;fill-opacity:1;fill-rule:nonzero;stroke:none"
         d="M 736.848,88.7891 727.313,54 c -1.106,-3.9609 -1.903,-7.6211 -1.903,-9.5312 0,-4.2891 2.223,-5.7071 5.563,-5.7071 5.715,0 10.48,6.9766 14.925,17.1485 l 7.625,-2.5391 c -7.781,-22.5625 -20.011,-27.9609 -28.589,-27.9609 -10.485,0 -17.954,5.2382 -17.954,16.039 0,4.6094 1.75,11.2813 2.864,15.7305 l 8.578,31.6094 h -13.981 l 2.539,9.6992 h 13.981 l 5.246,19.0507 18.898,2.07 -5.714,-21.1207 h 22.55 l -2.539,-9.6992 h -22.554" /><path
         id="path30"
         style="fill:#9d3e1d;fill-opacity:1;fill-rule:nonzero;stroke:none"
         d="m 817.219,78.7891 c 0,8.25 -3.02,12.6992 -8.582,12.6992 -14.133,0 -23.504,-26.3594 -23.504,-39.2266 0,-9.3711 3.336,-14.1406 9.215,-14.1406 12.863,0 22.871,27.8008 22.871,40.668 z m 12.23,-27.3282 c -1.269,-4.1289 -1.75,-6.9921 -1.75,-9.0507 0,-2.6993 1.27,-4.1289 3.653,-4.1289 3.496,0 6.992,5.3984 10.644,16.0507 l 7.621,-2.3906 C 843.43,32.5586 834.848,25.4102 825.16,25.4102 c -7.465,0 -13.027,4.7617 -13.027,13.9804 0,1.1211 0,1.9102 0.164,3.5 l -1.113,0.4688 c -6.039,-11.918 -15.094,-17.9492 -24.149,-17.9492 -13.66,0 -21.129,11.2812 -21.129,25.2617 0,16.1992 6.516,30.6601 15.094,39.0781 7.469,7.6211 15.887,12.07 24.781,12.07 8.899,0 13.977,-6.1989 15.407,-13.3395 l 3.175,12.2185 h 18.11 L 829.449,51.4609" /><path
         id="path32"
         style="fill:#9d3e1d;fill-opacity:1;fill-rule:nonzero;stroke:none"
         d="m 922.367,83.082 c 0,-6.8437 -4.285,-13.6718 -11.117,-13.6718 -5.719,0 -9.371,3.8086 -9.371,8.5781 0,4.4531 2.699,8.1015 6.512,10.8008 -1.274,2.2226 -3.973,3.9726 -8.739,3.9726 -15.882,0 -25.254,-24.3008 -25.254,-38.1211 0,-13.6601 7.305,-17.9492 14.454,-17.9492 7.304,0 14.296,5.2383 20.652,15.0899 l 6.828,-4.6016 c -6.828,-11.918 -16.199,-21.7695 -31.766,-21.7695 -17.476,0 -29.23,11.9101 -29.23,29.2304 0,24.7813 21.285,47.1794 44,47.1794 13.344,0 23.031,-7.4684 23.031,-18.738" /><path
         id="path34"
         style="fill:#9d3e1d;fill-opacity:1;fill-rule:nonzero;stroke:none"
         d="m 989.719,38.2813 c 3.496,0 6.511,5.0781 10.641,16.0507 l 7.47,-2.3906 c -6.04,-19.2226 -14.299,-26.5312 -23.514,-26.5312 -8.894,0 -14.769,5.8789 -14.769,16.1992 0,4.4492 1.746,10.8008 1.746,14.3008 0,5.8789 -2.543,7.3086 -14.141,7.3086 h -0.316 L 947.148,27 h -17.949 l 25.735,97.051 h -13.188 l 3.176,12.39 h 31.609 L 958.746,70.3711 h 0.789 c 8.418,0 11.914,4.7578 18.906,16.3594 5.243,8.5703 10.485,15.0895 19.856,15.0895 7.623,0 11.753,-4.7692 11.753,-11.6012 0,-6.668 -4.29,-13.3477 -10.804,-13.3477 -6.351,0 -9.683,5.5703 -7.465,12.0781 -2.218,-0.4687 -4.601,-3.1797 -8.258,-9.2109 -3.175,-5.8789 -5.718,-9.207 -10.488,-11.75 11.281,-0.957 14.934,-5.8789 14.934,-13.3477 0,-4.6015 -1.27,-9.2109 -1.27,-12.0703 0,-3.1797 1.27,-4.289 3.02,-4.289" /><path
         id="path36"
         style="fill:#9d3e1d;fill-opacity:1;fill-rule:nonzero;stroke:none"
         d="m 1076.6,68.7813 c 0,31.9177 23.51,65.2777 58.45,65.2777 13.19,0 23.03,-4.758 28.44,-12.86 l 6.51,12.383 h 12.23 l -10.17,-41.3007 h -11.91 c -1.59,22.8787 -11.6,30.1877 -24.46,30.1877 -28.12,0 -37.81,-37.8088 -37.81,-55.2776 0,-21.1328 10.8,-30.0195 24.62,-30.0195 16.84,0 26.69,12.6992 34.63,31.4492 l 11.28,-3.9727 c -7.95,-22.2382 -22.72,-40.1875 -48.13,-40.1875 -29.23,0 -43.68,18.5899 -43.68,44.3204" /><path
         id="path38"
         style="fill:#9d3e1d;fill-opacity:1;fill-rule:nonzero;stroke:none"
         d="m 1220.83,93.082 c -14.78,0 -23.2,-28.9101 -23.2,-44.3203 0,-10.1719 4.29,-14.4531 11.12,-14.4531 14.78,0 23.19,28.9102 23.19,44.3125 0,10.168 -4.28,14.4609 -11.11,14.4609 z m 30.01,-21.9218 c 0,-24.7813 -19.85,-45.75 -41.93,-45.75 -18.27,0 -30.18,12.8711 -30.18,30.8203 0,24.7812 19.85,45.5895 41.93,45.5895 18.27,0 30.18,-12.7106 30.18,-30.6598" /><path
         id="path40"
         style="fill:#9d3e1d;fill-opacity:1;fill-rule:nonzero;stroke:none"
         d="m 1354.09,40.1797 c 0,15.8906 10.48,31.6211 10.48,42.4219 0,3.6484 -1.59,5.2382 -4.29,5.2382 -6.98,0 -20.8,-12.0703 -33.51,-60.8398 h -18.75 l 11.13,41.9297 c 1.42,5.25 2.22,9.0586 2.22,12.082 0,3.8086 -1.27,6.8281 -4.77,6.8281 -7.3,0 -20.97,-12.0703 -33.68,-60.8398 h -19.05 l 13.65,51.4688 c 2.39,9.0507 1.91,11.5898 -0.95,11.5898 -3.65,0 -7.78,-6.8281 -12.39,-16.668 l -7.46,3.168 c 6.83,15.8828 14.77,25.1014 25.41,25.1014 6.83,0 11.6,-4.9217 11.6,-14.7811 0,-4.6094 -0.96,-10.3203 -3.34,-17.6172 l 1.11,-0.4804 c 10.49,22.3906 22.24,33.0387 33.05,33.0387 8.73,0 13.34,-5.8786 13.34,-15.4098 0,-4.4493 -1.27,-9.8516 -3.66,-17.1485 l 1.12,-0.4804 c 10.48,22.3906 22.23,33.0387 33.51,33.0387 8.74,0 14.3,-6.9997 14.3,-16.5309 0,-13.4883 -11.76,-33.8282 -11.76,-43.5078 0,-2.3907 0.96,-3.5 2.7,-3.5 3.34,0 6.68,5.0781 10.96,16.0507 l 7.47,-2.3906 c -6.35,-19.2226 -15.25,-26.5312 -24.3,-26.5312 -8.58,0 -14.14,5.5703 -14.14,14.7695" /><path
         id="path42"
         style="fill:#9d3e1d;fill-opacity:1;fill-rule:nonzero;stroke:none"
         d="m 1493.39,40.1797 c 0,15.8906 10.49,31.6211 10.49,42.4219 0,3.6484 -1.59,5.2382 -4.29,5.2382 -6.99,0 -20.81,-12.0703 -33.52,-60.8398 h -18.75 l 11.13,41.9297 c 1.42,5.25 2.21,9.0586 2.21,12.082 0,3.8086 -1.27,6.8281 -4.75,6.8281 -7.32,0 -20.98,-12.0703 -33.68,-60.8398 h -19.07 l 13.67,51.4688 c 2.38,9.0507 1.9,11.5898 -0.95,11.5898 -3.66,0 -7.78,-6.8281 -12.39,-16.668 l -7.47,3.168 c 6.83,15.8828 14.77,25.1014 25.42,25.1014 6.82,0 11.59,-4.9217 11.59,-14.7811 0,-4.6094 -0.95,-10.3203 -3.33,-17.6172 l 1.11,-0.4804 c 10.48,22.3906 22.24,33.0387 33.04,33.0387 8.73,0 13.34,-5.8786 13.34,-15.4098 0,-4.4493 -1.27,-9.8516 -3.65,-17.1485 l 1.11,-0.4804 c 10.48,22.3906 22.23,33.0387 33.51,33.0387 8.74,0 14.3,-6.9997 14.3,-16.5309 0,-13.4883 -11.76,-33.8282 -11.76,-43.5078 0,-2.3907 0.96,-3.5 2.71,-3.5 3.33,0 6.67,5.0781 10.96,16.0507 l 7.47,-2.3906 c -6.36,-19.2226 -15.26,-26.5312 -24.31,-26.5312 -8.57,0 -14.14,5.5703 -14.14,14.7695" /><path
         id="path44"
         style="fill:#9d3e1d;fill-opacity:1;fill-rule:nonzero;stroke:none"
         d="m 1591.08,40.3398 c 0,3.9805 0.95,10.0118 3.49,18.1211 l -1.1,0.461 c -10.49,-23.0235 -21.61,-33.5117 -33.05,-33.5117 -8.73,0 -14.45,6.8398 -14.45,16.6796 0,13.3516 11.28,34.4688 11.28,43.5196 0,2.2304 -0.96,3.3398 -2.39,3.3398 -3.34,0 -6.03,-3.4883 -11.75,-15.4101 l -7.47,3.1797 c 6.52,15.7226 14.94,25.1012 25.89,25.1012 8.42,0 13.35,-5.2497 13.35,-14.4606 0,-14.7696 -10.49,-31.6094 -10.49,-41.7696 0,-4.4492 1.75,-6.1992 4.45,-6.1992 7.15,0 20.33,11.75 33.36,61.3084 h 19.06 l -13.03,-49.2381 c -1.27,-4.2812 -1.75,-6.9921 -1.75,-9.0507 0,-2.6993 1.44,-4.1289 3.66,-4.1289 3.66,0 6.99,5.3984 10.64,16.0507 l 7.63,-2.3906 c -6.19,-19.3828 -14.78,-26.5312 -23.83,-26.5312 -8.26,0 -13.5,4.6093 -13.5,14.9296" /><path
         id="path46"
         style="fill:#9d3e1d;fill-opacity:1;fill-rule:nonzero;stroke:none"
         d="m 1704.34,38.2813 c 3.33,0 6.67,5.0781 10.95,16.0507 l 7.46,-2.3906 c -6.34,-19.2226 -15.24,-26.5312 -24.29,-26.5312 -8.59,0 -14.14,5.5703 -14.14,14.7695 0,15.8906 10.48,31.6211 10.48,42.4219 0,3.6484 -1.59,5.2382 -4.28,5.2382 -7.32,0 -20.98,-12.0703 -33.68,-60.8398 h -19.07 l 13.67,51.4688 c 2.38,9.0507 1.9,11.5898 -0.95,11.5898 -3.66,0 -7.78,-6.8281 -12.39,-16.668 l -7.47,3.168 c 6.83,15.8828 14.77,25.1014 25.41,25.1014 6.83,0 11.6,-4.9217 11.6,-14.7811 0,-4.6094 -0.95,-10.3203 -3.33,-17.6172 l 1.11,-0.4804 c 10.48,22.3906 22.24,33.0387 33.52,33.0387 8.88,0 14.45,-6.9997 14.45,-16.5309 0,-13.4883 -11.76,-33.8282 -11.76,-43.5078 0,-2.3907 0.96,-3.5 2.71,-3.5" /><path
         id="path48"
         style="fill:#9d3e1d;fill-opacity:1;fill-rule:nonzero;stroke:none"
         d="m 1762.77,112.941 c -5.55,0 -9.84,3.809 -9.84,10.161 0,6.519 4.92,13.98 13.34,13.98 6.03,0 10.17,-3.812 10.17,-10.172 0,-6.351 -5.24,-13.969 -13.67,-13.969 z m -7.61,-70.8512 c 0,-2.6992 1.11,-3.8085 3.17,-3.8085 3.02,0 6.51,4.289 11.28,16.0507 l 7.46,-2.3906 c -6.19,-18.75 -15.09,-26.5312 -25.25,-26.5312 -8.27,0 -14.3,5.3984 -14.3,14.9296 0,15.1016 13.18,36.379 13.18,46.2305 0,2.5391 -0.94,3.4883 -2.38,3.4883 -4.44,0 -8.42,-6.8281 -12.86,-16.668 l -7.63,3.168 c 6.83,15.8828 15.26,25.2614 26.06,25.2614 8.25,0 14.13,-5.8786 14.13,-16.0505 0,-12.3789 -12.86,-34.4609 -12.86,-43.6797" /><path
         id="path50"
         style="fill:#9d3e1d;fill-opacity:1;fill-rule:nonzero;stroke:none"
         d="M 1818.85,88.7891 1809.32,54 c -1.12,-3.9609 -1.92,-7.6211 -1.92,-9.5312 0,-4.2891 2.23,-5.7071 5.57,-5.7071 5.71,0 10.48,6.9766 14.93,17.1485 l 7.63,-2.5391 c -7.8,-22.5625 -20.02,-27.9609 -28.6,-27.9609 -10.48,0 -17.95,5.2382 -17.95,16.039 0,4.6094 1.75,11.2813 2.86,15.7305 l 8.58,31.6094 h -13.98 l 2.54,9.6992 h 13.98 l 5.24,19.0507 18.9,2.07 -5.71,-21.1207 h 22.56 l -2.55,-9.6992 h -22.55" /><path
         id="path52"
         style="fill:#9d3e1d;fill-opacity:1;fill-rule:nonzero;stroke:none"
         d="m 1881.44,88 c 0,-14.6094 -9.22,-28.9102 -9.22,-38.1289 0,-3.9609 1.74,-5.5508 5.24,-5.5508 8.42,0 19.7,9.5313 31.77,56.3787 h 17.79 L 1912.4,39.3906 C 1905.58,10.1719 1889.53,0 1869.68,0 c -11.13,0 -24.47,3.01953 -24.47,14.7695 0,5.0821 3.81,11.4414 10.96,11.4414 6.36,0 9.53,-4.4492 9.22,-9.6992 -0.17,-2.5429 -1.59,-5.4023 -3.18,-6.82029 1.91,-0.64063 4.29,-1.1211 7.31,-1.1211 12.38,0 20.8,10.01169 26.2,32.08989 l 3.19,12.5507 -0.96,0.4805 c -9.21,-16.8516 -19.06,-23.043 -28.27,-23.043 -10.49,0 -15.72,7.3125 -15.72,16.5313 0,12.2187 10.16,29.3789 10.16,38.4297 0,2.0625 -0.96,3.3398 -2.38,3.3398 -3.98,0 -7.78,-6.5078 -12.08,-15.5586 l -7.46,3.168 c 6.99,15.8828 15.72,25.2614 26.21,25.2614 8.09,0 13.03,-5.3981 13.03,-13.82" /><path
         id="path54"
         style="fill:#9d3e1d;fill-opacity:1;fill-rule:nonzero;stroke:none"
         d="m 2011.36,80.0586 c 20.33,0 27.48,12.7031 27.48,24.9294 0,9.223 -5.57,14.774 -21.29,14.774 h -6.83 l -9.85,-39.7034 z m -20.81,-41.1367 h 17.31 L 2005.16,27 h -53.37 l 2.7,11.9219 h 16.04 l 20.02,80.6871 h -16.2 l 3.01,11.911 h 44 c 28.76,0 39.71,-11.758 39.71,-26.688 0,-15.8828 -10.95,-36.0507 -50.35,-36.0507 h -12.71 l -7.46,-29.8594" /><path
         id="path56"
         style="fill:#9d3e1d;fill-opacity:1;fill-rule:nonzero;stroke:none"
         d="m 2085.85,78.4688 c 2.38,9.0507 1.9,11.5898 -0.95,11.5898 -3.66,0 -7.78,-6.8281 -12.39,-16.668 l -7.47,3.168 c 6.84,15.8828 14.77,25.1014 25.42,25.1014 6.83,0 11.59,-4.9217 11.59,-14.7811 0,-4.6094 -0.95,-10.1601 -3.17,-17.1484 l 1.27,-0.4688 c 9.21,20.9571 16.83,32.5583 27.96,32.5583 6.67,0 11.59,-4.6091 11.59,-12.07 0,-7.9414 -5.08,-14.3008 -11.44,-14.3008 -5.55,0 -9.84,3.6524 -9.53,10.3203 C 2114.12,83.8711 2102.69,70.3711 2091.25,27 h -19.06 l 13.66,51.4688" /><path
         id="path58"
         style="fill:#9d3e1d;fill-opacity:1;fill-rule:nonzero;stroke:none"
         d="m 2185.13,93.082 c -14.78,0 -23.2,-28.9101 -23.2,-44.3203 0,-10.1719 4.29,-14.4531 11.13,-14.4531 14.76,0 23.18,28.9102 23.18,44.3125 0,10.168 -4.29,14.4609 -11.11,14.4609 z m 30.02,-21.9218 c 0,-24.7813 -19.86,-45.75 -41.94,-45.75 -18.27,0 -30.18,12.8711 -30.18,30.8203 0,24.7812 19.86,45.5895 41.94,45.5895 18.26,0 30.18,-12.7106 30.18,-30.6598" /><path
         id="path60"
         style="fill:#9d3e1d;fill-opacity:1;fill-rule:nonzero;stroke:none"
         d="m 2263.91,112.941 c -5.56,0 -9.85,3.809 -9.85,10.161 0,6.519 5.09,13.98 13.34,13.98 6.04,0 10.17,-3.812 10.17,-10.172 0,-6.351 -5.24,-13.969 -13.66,-13.969 z m 3.02,-39.7222 -10.01,-37.9571 C 2250.25,10.0117 2237.86,0 2223.24,0 c -11.11,0 -15.88,5.23828 -15.88,11.2813 0,5.8789 4.29,11.2773 10.48,11.2773 5.4,0 8.26,-3.9766 8.26,-8.1094 0,-3.3398 -1.27,-6.02732 -2.54,-7.61717 6.83,-0.16015 9.54,3.96877 15.41,26.67967 l 10.48,40.1875 c 0.96,3.8125 2.39,9.3828 2.39,12.711 0,2.8593 -1.27,3.6484 -2.7,3.6484 -3.82,0 -7.95,-6.8281 -12.55,-16.668 l -7.47,3.168 c 6.84,15.8828 15.1,25.2614 26.21,25.2614 8.11,0 13.82,-6.1989 13.82,-15.0895 0,-3.6485 -0.79,-8.1094 -2.22,-13.5117" /><path
         id="path62"
         style="fill:#9d3e1d;fill-opacity:1;fill-rule:nonzero;stroke:none"
         d="m 2302.67,64.332 c 22.08,2.3789 30.17,10.9571 30.17,20.8086 0,4.4492 -2.54,7.9414 -7.3,7.9414 -11.13,0 -19.54,-15.0937 -22.87,-28.75 z m -1.44,-7.4726 c -0.16,-1.2696 -0.16,-2.5274 -0.16,-3.6485 0,-13.1796 6.83,-17.3125 14.78,-17.3125 7.78,0 15.57,5.2422 22.24,14.6133 l 6.67,-4.7734 c -8.1,-11.5899 -17.95,-20.3281 -34.79,-20.3281 -16.36,0 -27.8,11.4296 -27.8,28.9218 0,24.4571 21.13,47.488 46.06,47.488 13.66,0 21.29,-6.8317 21.29,-16.5309 0,-14.2774 -14.93,-26.5196 -48.29,-28.4297" /><path
         id="path64"
         style="fill:#9d3e1d;fill-opacity:1;fill-rule:nonzero;stroke:none"
         d="m 2426.08,83.082 c 0,-6.8437 -4.29,-13.6718 -11.12,-13.6718 -5.72,0 -9.37,3.8086 -9.37,8.5781 0,4.4531 2.7,8.1015 6.51,10.8008 -1.27,2.2226 -3.97,3.9726 -8.73,3.9726 -15.89,0 -25.26,-24.3008 -25.26,-38.1211 0,-13.6601 7.31,-17.9492 14.45,-17.9492 7.31,0 14.3,5.2383 20.65,15.0899 l 6.83,-4.6016 c -6.83,-11.918 -16.2,-21.7695 -31.77,-21.7695 -17.47,0 -29.23,11.9101 -29.23,29.2304 0,24.7813 21.29,47.1794 44.01,47.1794 13.34,0 23.03,-7.4684 23.03,-18.738" /><path
         id="path66"
         style="fill:#9d3e1d;fill-opacity:1;fill-rule:nonzero;stroke:none"
         d="M 2470.4,88.7891 2460.87,54 c -1.11,-3.9609 -1.91,-7.6211 -1.91,-9.5312 0,-4.2891 2.22,-5.7071 5.56,-5.7071 5.71,0 10.48,6.9766 14.93,17.1485 l 7.62,-2.5391 c -7.78,-22.5625 -20.01,-27.9609 -28.58,-27.9609 -10.49,0 -17.95,5.2382 -17.95,16.039 0,4.6094 1.75,11.2813 2.85,15.7305 l 8.58,31.6094 h -13.98 l 2.55,9.6992 h 13.97 l 5.25,19.0507 18.89,2.07 -5.71,-21.1207 h 22.56 l -2.55,-9.6992 h -22.55" /><path
         id="path68"
         style="fill:#201916;fill-opacity:1;fill-rule:nonzero;stroke:none"
         d="m 159.066,477.09 v 7.68 c 0,138.23 90.235,228.46 207.985,228.46 70.394,0 118.394,-27.519 154.867,-70.39 l -74.23,-78.719 c -19.204,23.051 -43.516,42.25 -78.711,42.25 -52.485,0 -91.516,-46.723 -91.516,-122.871 v -2.57 c 0,-79.989 39.672,-124.149 91.516,-124.149 38.39,0 61.433,20.481 81.914,44.16 l 72.953,-74.242 c -36.481,-44.801 -86.399,-76.789 -161.27,-76.789 -114.551,0 -203.508,87.672 -203.508,227.18" /><path
         id="path70"
         style="fill:#201916;fill-opacity:1;fill-rule:nonzero;stroke:none"
         d="M 568.656,705.559 H 683.852 V 257.59 H 568.656 v 447.969" /><path
         id="path72"
         style="fill:#201916;fill-opacity:1;fill-rule:nonzero;stroke:none"
         d="m 752.969,705.559 h 108.152 l 149.109,-225.27 v 225.27 H 1123.5 V 257.59 H 1021.11 L 866.238,492.449 V 257.59 H 752.969 v 447.969" /><path
         id="path74"
         style="fill:#201916;fill-opacity:1;fill-rule:nonzero;stroke:none"
         d="M 1304.64,602.52 V 360.621 h 33.28 c 63.99,0 106.87,37.758 106.87,117.75 v 5.758 c 0,80.633 -42.88,118.391 -106.87,118.391 z m -115.2,103.039 h 147.2 c 143.99,0 225.9,-87.039 225.9,-218.868 v -7.679 c 0,-131.832 -82.56,-221.422 -227.83,-221.422 h -145.27 v 447.969" /><path
         id="path76"
         style="fill:#201916;fill-opacity:1;fill-rule:nonzero;stroke:none"
         d="m 1616.33,705.559 h 308.46 V 604.441 h -194.56 v -73.589 h 175.36 V 435.5 h -175.36 v -76.801 h 197.11 V 257.59 h -311.01 v 447.969" /><path
         id="path78"
         style="fill:#201916;fill-opacity:1;fill-rule:nonzero;stroke:none"
         d="m 2152.62,487.969 c 39.03,0 62.08,22.402 62.08,58.242 v 1.277 c 0,38.403 -24.33,57.59 -62.73,57.59 h -56.31 V 487.969 Z m -171.51,217.59 h 175.99 c 60.16,0 105.59,-16 134.38,-45.438 24.97,-24.961 39.05,-59.519 39.05,-104.949 v -3.211 c 0,-66.551 -32.64,-108.141 -80,-131.82 l 92.16,-162.551 h -129.92 l -76.15,138.859 h -40.96 V 257.59 h -114.55 v 447.969" /><path
         id="path80"
         style="fill:#464547;fill-opacity:1;fill-rule:nonzero;stroke:none"
         d="m 1303.14,1049.78 v -35.46 c 0,-6.1 -4.85,-10.96 -10.95,-10.96 h -98.39 c -6.09,0 -10.95,4.86 -10.95,10.96 v 35.46 c 0,2.94 0.23,5.87 0.68,8.71 1.12,7.11 8.58,11.18 15.13,8.35 14.35,-6.22 30.05,-9.49 45.86,-9.49 15.02,0 29.71,3.05 43.38,8.47 6.43,2.71 13.77,-1.58 14.79,-8.47 0.34,-2.49 0.45,-5.09 0.45,-7.57" /><path
         id="path82"
         style="fill:#464547;fill-opacity:1;fill-rule:nonzero;stroke:none"
         d="m 978.066,1049.78 v -35.46 c 0,-6.1 -4.859,-10.96 -10.957,-10.96 h -98.382 c -6.098,0 -10.957,4.86 -10.957,10.96 v 35.46 c 0,2.72 0.226,5.42 0.566,8.14 1.016,7 8.469,11.06 15.137,8.36 14.004,-5.76 29.027,-8.93 44.5,-8.93 15.363,0 30.5,3.17 44.504,8.93 6.55,2.7 14.007,-1.36 15.023,-8.36 0.336,-2.72 0.566,-5.42 0.566,-8.14" /><path
         id="path84"
         style="fill:#9d3e1d;fill-opacity:1;fill-rule:nonzero;stroke:none"
         d="m 977.613,1383.56 c 1.805,-14.8 -1.582,-29.14 -9.824,-41.34 -14.801,-22.03 -22.707,-47.44 -22.707,-73.65 v -111.6 c 0,-8.69 0.906,-17.27 2.484,-25.63 1.129,-5.2 -1.468,-10.51 -6.328,-12.66 -7.222,-3.05 -15.129,-4.85 -23.265,-4.85 -8.246,0 -16.153,1.8 -23.379,4.85 -4.86,2.15 -7.344,7.46 -6.328,12.66 1.582,8.36 2.488,16.94 2.488,25.63 v 111.6 c 0,26.66 -7.684,51.96 -22.367,73.08 -0.676,1.13 -1.356,2.15 -2.035,3.28 -3.95,6.55 -0.336,15.25 7.121,16.83 33.093,7 61.668,20.1 85.843,35.58 6.325,4.07 14.793,0.9 16.825,-6.33 0.679,-2.48 1.136,-4.97 1.472,-7.45" /><path
         id="path86"
         style="fill:#9d3e1d;fill-opacity:1;fill-rule:nonzero;stroke:none"
         d="m 1049,1901.56 v -90.47 c 0,-40.66 -15.03,-74.33 -34,-117.02 -9.83,-22.14 -20.555,-46.31 -30.609,-74.44 -2.489,-7 -10.844,-9.83 -16.946,-5.65 -25.863,17.74 -57.152,33.21 -94.086,41 -4.632,0.91 -8.246,4.64 -8.925,9.38 -4.293,29.59 -8.586,58.62 -12.875,86.64 -2.825,19.43 -5.653,38.29 -8.36,56.58 -0.902,6.33 3.731,11.97 10.164,12.77 69.239,7.68 131.141,40.32 176.207,88.89 6.89,7.46 19.43,2.49 19.43,-7.68" /><path
         id="path88"
         style="fill:#464547;fill-opacity:1;fill-rule:nonzero;stroke:none"
         d="m 1048.66,2148.59 v -42.81 c 0,-124.02 -101.316,-232.01 -225.34,-230.76 -94.429,0.9 -167.172,-95.22 -124.359,-194.62 20.781,-48.23 69.691,-76.69 122.211,-76.58 92.285,0.33 152.715,-65.74 175.191,-95.56 -22.363,-29.71 -82.117,-95.44 -174.398,-95.44 -180.047,0 -326.551,146.5 -326.551,326.54 0,180.16 146.504,326.55 326.551,326.55 81.773,0 155.648,34.9 207.385,90.58 6.89,7.46 19.31,2.26 19.31,-7.9" /><path
         id="path90"
         style="fill:#9d3e1d;fill-opacity:1;fill-rule:nonzero;stroke:none"
         d="m 1329.01,2092.34 v -96.91 c 0,-27.68 -3.17,-64.95 -8.02,-108.55 -0.34,-2.49 -0.79,-4.97 -1.02,-7.46 h 0.12 c -4.3,-37.95 -9.83,-80.31 -15.82,-125.6 -10.73,-81.89 -22.93,-174.63 -30.72,-263.64 -2.37,-27.89 4.86,-56.69 21.01,-83.24 5.65,-9.37 8.58,-20.1 8.58,-31.17 0,-12.2 -3.61,-24.06 -10.62,-34.12 -14.68,-21.12 -22.36,-46.42 -22.36,-73.08 v -111.6 c 0,-8.91 0.9,-17.72 2.6,-26.2 1.13,-5.31 -1.47,-10.61 -6.44,-12.65 -6.78,-2.71 -14.12,-4.29 -21.8,-4.29 -8.92,0 -17.4,2.03 -25.19,5.64 -4.63,2.15 -6.89,7.35 -5.87,12.43 1.58,8.13 2.37,16.49 2.37,25.07 v 111.6 c 0,26.66 -7.68,51.96 -22.36,73.08 -6.89,10.06 -10.62,21.92 -10.62,34.12 0,10.39 2.71,20.66 7.79,29.59 15.02,26.66 20.9,55.23 17.06,82.57 -13.55,96.12 -42.92,157.79 -66.53,207.5 -19.99,41.9 -35.7,75.11 -35.7,115.66 v 349.36 h -0.33 v 74.89 c 0,6.32 -4.97,11.29 -11.3,11.29 h -63.25 c -4.07,0 -7.8,-2.25 -9.83,-5.87 -35.916,-65.63 -103.24,-111.71 -181.74,-117.59 -7.34,-0.56 -13.555,5.76 -12.309,13 7.223,41 24.394,78.72 48.902,110.46 h -0.675 c 46.312,60.43 119.05,99.4 201.062,99.4 81.89,0 154.74,-38.97 200.94,-99.4 h -0.57 c 32.99,-42.7 52.64,-96.24 52.64,-154.29" /><path
         id="path92"
         style="fill:#9d3e1d;fill-opacity:1;fill-rule:nonzero;stroke:none"
         d="m 1384.58,2115.84 c -8.7,115.43 -80.99,213.36 -181.85,258.77 -8.25,3.73 -16.72,7.23 -25.42,10.16 -9.26,3.28 -10.5,15.59 -2.14,20.56 110.02,65.51 234.6,99.96 365.29,99.96 108.89,0 214.04,-24.06 310.05,-70.25 10.85,-5.2 7.34,-21.46 -4.74,-21.46 H 1735.3 c -6.21,0 -11.3,-5.08 -11.3,-11.3 v -33.89 c 0,-6.32 5.09,-11.29 11.3,-11.29 h 50.27 c 5.98,0 10.84,-4.63 11.29,-10.5 0.11,-2.26 0.23,-4.41 0.23,-6.67 0,-67.77 -8.03,-131.25 -15.7,-192.58 -6.9,-55.8 -13.45,-108.44 -13.68,-160.17 -0.1,-30.61 -22.24,-57.95 -52.63,-61.11 -35.46,-3.73 -65.4,24.06 -65.4,58.74 0,85.5 -48.57,150.57 -91.38,207.94 -34.22,45.86 -66.64,89.46 -70.7,137.24 -0.46,5.65 -5.54,9.94 -11.18,9.94 h -17.51 -16.5 c -6.66,0 -11.75,-5.76 -11.29,-12.43 3.5,-50.48 28.24,-93.75 57.04,-134.52 4.07,-5.76 2.14,-13.89 -4.29,-16.71 -28.92,-13 -55.69,-35.59 -78.96,-66.09 -2.03,-2.82 -5.31,-4.51 -9.03,-4.51 -5.87,0 -10.73,4.4 -11.3,10.17" /><path
         id="path94"
         style="fill:#201916;fill-opacity:1;fill-rule:nonzero;stroke:none"
         d="m 789.547,1667.3 c 8.019,-3.62 16.832,3.5 15.586,12.2 -3.16,21.46 -6.324,42.58 -9.375,63.02 -2.488,16.95 -4.965,33.32 -7.34,49.36 -1.359,8.7 -11.859,12.77 -18.527,7.01 -16.606,-14.46 -27.11,-35.81 -27.11,-59.53 0,-31.96 19.207,-59.64 46.766,-72.06 m 178.242,-325.08 c 8.242,12.2 11.629,26.54 9.824,41.34 -0.336,2.48 -0.793,4.97 -1.472,7.45 -2.032,7.23 -10.5,10.4 -16.825,6.33 -24.175,-15.48 -52.75,-28.58 -85.843,-35.58 -7.457,-1.58 -11.071,-10.28 -7.121,-16.83 0.679,-1.13 1.359,-2.15 2.035,-3.28 14.683,-21.12 22.367,-46.42 22.367,-73.08 v -111.6 c 0,-8.69 -0.906,-17.27 -2.488,-25.63 -1.016,-5.2 1.468,-10.51 6.328,-12.66 7.226,-3.05 15.133,-4.85 23.379,-4.85 8.136,0 16.043,1.8 23.265,4.85 4.86,2.15 7.457,7.46 6.328,12.66 -1.578,8.36 -2.484,16.94 -2.484,25.63 v 111.6 c 0,26.21 7.906,51.62 22.707,73.65 m 10.277,-327.9 v 35.46 c 0,2.72 -0.23,5.42 -0.566,8.14 -1.016,7 -8.473,11.06 -15.023,8.36 -14.004,-5.76 -29.141,-8.93 -44.504,-8.93 -15.473,0 -30.496,3.17 -44.5,8.93 -6.668,2.7 -14.121,-1.36 -15.137,-8.36 -0.34,-2.72 -0.566,-5.42 -0.566,-8.14 v -35.46 c 0,-6.1 4.859,-10.96 10.957,-10.96 h 98.382 c 6.098,0 10.957,4.86 10.957,10.96 m 70.594,1091.46 v 42.81 c 0,10.16 -12.42,15.36 -19.31,7.9 -51.737,-55.68 -125.612,-90.58 -207.385,-90.58 -180.047,0 -326.551,-146.39 -326.551,-326.55 0,-180.04 146.504,-326.54 326.551,-326.54 92.281,0 152.035,65.73 174.398,95.44 -22.476,29.82 -82.906,95.89 -175.191,95.56 -52.52,-0.11 -101.43,28.35 -122.211,76.58 -42.813,99.4 29.93,195.52 124.359,194.62 124.024,-1.25 225.34,106.74 225.34,230.76 m 0.34,-294.69 v 90.47 c 0,10.17 -12.54,15.14 -19.43,7.68 -45.066,-48.57 -106.968,-81.21 -176.207,-88.89 -6.433,-0.8 -11.066,-6.44 -10.164,-12.77 2.707,-18.29 5.535,-37.15 8.36,-56.58 4.289,-28.02 8.582,-57.05 12.875,-86.64 0.679,-4.74 4.293,-8.47 8.925,-9.38 36.934,-7.79 68.223,-23.26 94.086,-41 6.102,-4.18 14.457,-1.35 16.946,5.65 10.054,28.13 20.779,52.3 30.609,74.44 18.97,42.69 34,76.36 34,117.02 m 254.14,-796.77 v 35.46 c 0,2.48 -0.11,5.08 -0.45,7.57 -1.02,6.89 -8.36,11.18 -14.79,8.47 -13.67,-5.42 -28.36,-8.47 -43.38,-8.47 -15.81,0 -31.51,3.27 -45.86,9.49 -6.55,2.83 -14.01,-1.24 -15.13,-8.35 -0.45,-2.84 -0.68,-5.77 -0.68,-8.71 v -35.46 c 0,-6.1 4.86,-10.96 10.95,-10.96 h 98.39 c 6.1,0 10.95,4.86 10.95,10.96 m 25.87,981.11 v 96.91 c 0,58.05 -19.65,111.59 -52.64,154.29 h 0.57 c -46.2,60.43 -119.05,99.4 -200.94,99.4 -82.012,0 -154.75,-38.97 -201.062,-99.4 h 0.675 c -24.508,-31.74 -41.679,-69.46 -48.902,-110.46 -1.246,-7.24 4.969,-13.56 12.309,-13 78.5,5.88 145.824,51.96 181.74,117.59 2.03,3.62 5.76,5.87 9.83,5.87 h 63.25 c 6.33,0 11.3,-4.97 11.3,-11.29 v -74.89 h 0.33 v -349.36 c 0,-40.55 15.71,-73.76 35.7,-115.66 23.61,-49.71 52.98,-111.38 66.53,-207.5 3.84,-27.34 -2.04,-55.91 -17.06,-82.57 -5.08,-8.93 -7.79,-19.2 -7.79,-29.59 0,-12.2 3.73,-24.06 10.62,-34.12 14.68,-21.12 22.36,-46.42 22.36,-73.08 v -111.6 c 0,-8.58 -0.79,-16.94 -2.37,-25.07 -1.02,-5.08 1.24,-10.28 5.87,-12.43 7.79,-3.61 16.27,-5.64 25.19,-5.64 7.68,0 15.02,1.58 21.8,4.29 4.97,2.04 7.57,7.34 6.44,12.65 -1.7,8.48 -2.6,17.29 -2.6,26.2 v 111.6 c 0,26.66 7.68,51.96 22.36,73.08 7.01,10.06 10.62,21.92 10.62,34.12 0,11.07 -2.93,21.8 -8.58,31.17 -16.15,26.55 -23.38,55.35 -21.01,83.24 7.79,89.01 19.99,181.75 30.72,263.64 5.99,45.29 11.52,87.65 15.82,125.6 h -0.12 c 0.23,2.49 0.68,4.97 1.02,7.46 4.85,43.6 8.02,80.87 8.02,108.55 m 516.76,418.15 c 12.08,0 15.59,16.26 4.74,21.46 -96.01,46.19 -201.16,70.25 -310.05,70.25 -130.69,0 -255.27,-34.45 -365.29,-99.96 -8.36,-4.97 -7.12,-17.28 2.14,-20.56 8.7,-2.93 17.17,-6.43 25.42,-10.16 100.86,-45.41 173.15,-143.34 181.85,-258.77 0.57,-5.77 5.43,-10.17 11.3,-10.17 3.72,0 7,1.69 9.03,4.51 23.27,30.5 50.04,53.09 78.96,66.09 6.43,2.82 8.36,10.95 4.29,16.71 -28.8,40.77 -53.54,84.04 -57.04,134.52 -0.46,6.67 4.63,12.43 11.29,12.43 h 16.5 17.51 c 5.64,0 10.72,-4.29 11.18,-9.94 4.06,-47.78 36.48,-91.38 70.7,-137.24 42.81,-57.37 91.38,-122.44 91.38,-207.94 0,-34.68 29.94,-62.47 65.4,-58.74 30.39,3.16 52.53,30.5 52.63,61.11 0.23,51.73 6.78,104.37 13.68,160.17 7.67,61.33 15.7,124.81 15.7,192.58 0,2.26 -0.12,4.41 -0.23,6.67 -0.45,5.87 -5.31,10.5 -11.29,10.5 h -50.27 c -6.21,0 -11.3,4.97 -11.3,11.29 v 33.89 c 0,6.22 5.09,11.3 11.3,11.3 h 110.47 m -790.78,-890.97 5.08,-8.59 c 2.03,-3.5 2.03,-7.8 0,-11.41 l -5.08,-8.47 c -1.24,-2.14 -12.99,-21.8 -35.13,-45.75 -3.5,-3.84 -3.96,-9.37 -1.25,-13.89 7.8,-13.33 13.11,-28.12 15.03,-44.05 3.5,-28.13 -3.28,-56.48 -18.98,-79.86 -8.58,-12.65 -13.1,-27.1 -13.1,-42.02 v -111.6 c 0,-15.02 4.18,-29.14 12.2,-40.77 12.53,-18.18 20.78,-39.08 20.78,-61.22 v -97.14 c 0,-6.102 -4.86,-10.961 -10.96,-10.961 H 812.25 c -6.098,0 -10.957,4.859 -10.957,10.961 v 97.14 c 0,22.14 8.25,43.04 20.781,61.22 8.024,11.63 12.203,25.75 12.203,40.77 v 111.6 c 0,15.14 -4.179,29.37 -12.312,41 -8.246,11.87 -14.117,25.08 -17.395,38.86 -1.246,4.97 -5.195,8.59 -10.277,8.92 -198.348,14.24 -355.352,180.16 -355.352,382.01 0,189.87 138.704,347.78 320.106,377.83 5.086,0.79 8.812,4.86 9.375,9.94 16.945,151.13 143.226,269.62 297.628,274.47 2.38,0.12 4.52,0.91 6.33,2.26 135.43,103.24 296.84,157.91 468.08,157.91 168.41,0 328.47,-53.2 462.99,-153.84 l 40.78,-30.5 c 8.69,-6.55 4.06,-20.33 -6.78,-20.33 h -172.82 c -6.33,0 -11.52,-5.31 -11.18,-11.64 0,-1.92 0.11,-3.72 0.11,-5.53 0,-71.27 -8.25,-136.56 -16.04,-199.59 -6.89,-54.78 -13.33,-106.51 -13.33,-155.53 0,-65.86 -55.46,-119.05 -122.1,-115.33 -61.1,3.39 -108.2,56.14 -108.89,117.36 -0.67,52.41 -25.3,95.9 -55.91,139.16 -2.49,3.39 -6.66,5.42 -10.83,4.63 -69.36,-12.31 -130.58,-114.42 -149.67,-252.9 -4.52,-39.65 -10.28,-83.93 -16.49,-131.25 -10.73,-81.33 -22.82,-173.39 -30.5,-261.15 -1.69,-20.11 6.1,-37.84 12.99,-49.13 7.79,-12.88 13.22,-27.23 15.47,-42.02 4.64,-30.27 -2.37,-60.09 -19.31,-84.61 -8.02,-11.63 -12.31,-25.86 -12.31,-41 v -111.6 c 0,-15.02 4.18,-29.14 12.2,-40.65 12.53,-18.3 20.78,-39.2 20.78,-61.34 v -97.14 c 0,-6.102 -4.86,-10.961 -10.96,-10.961 h -211.33 c -6.1,0 -10.96,4.859 -10.96,10.961 v 97.26 c 0,22.14 8.25,42.92 20.78,61.1 8.03,11.63 12.21,25.75 12.21,40.77 v 111.6 c 0,15.14 -4.18,29.37 -12.32,41 -13.55,19.55 -20.67,42.47 -20.67,66.2 0,20.1 5.2,39.98 15.03,57.37 6.21,10.96 13.1,28.02 10.39,46.88 -12.43,87.54 -38.52,142.55 -61.57,191.12 -0.67,1.24 -1.24,2.37 -1.8,3.61 -4.06,8.7 -16.38,8.47 -20.33,-0.22 -0.45,-1.13 -1.02,-2.26 -1.47,-3.39 -14.12,-31.63 -29.26,-65.74 -41.34,-108.89 18.64,-21.01 28.58,-37.72 29.71,-39.64" /><path
         id="path96"
         style="fill:#201916;fill-opacity:1;fill-rule:nonzero;stroke:none"
         d="m 1674.74,2292.5 c 0,0 -5.6,-27.01 13.55,-46.1 19.09,-19.15 46.1,-13.55 46.1,-13.55 0,0 5.53,26.94 -13.55,46.1 -19.16,19.09 -46.1,13.55 -46.1,13.55" /><path
         id="path98"
         style="fill:#7a321c;fill-opacity:1;fill-rule:nonzero;stroke:none"
         d="m 1395.88,2105.67 c -5.87,0 -10.73,4.4 -11.3,10.17 -0.01,0.12 -0.02,0.25 -0.03,0.38 0,0.03 0,0.06 -0.01,0.09 0,0.1 -0.01,0.21 -0.02,0.3 0,0.03 0,0.07 -0.01,0.1 -0.01,0.11 -0.01,0.21 -0.02,0.32 0,0.02 -0.01,0.04 -0.01,0.05 -5.52,69.55 -34.13,132.69 -78.15,181.72 40.28,16.03 82.56,28.04 126.4,35.56 -1.04,-1.76 -1.63,-3.82 -1.64,-6 0,-0.29 0.01,-0.57 0.03,-0.86 1.24,-17.92 5.16,-34.93 10.99,-51.24 10.58,-29.65 27.47,-56.98 46.04,-83.28 2.5,-3.53 2.74,-7.96 1.07,-11.5 -1.05,-2.24 -2.86,-4.12 -5.35,-5.21 -28.92,-13 -55.69,-35.59 -78.96,-66.09 -2.03,-2.82 -5.31,-4.51 -9.03,-4.51" /><path
         id="path100"
         style="fill:#1a1512;fill-opacity:1;fill-rule:nonzero;stroke:none"
         d="m 1395.88,2105.67 c -5.87,0 -10.74,4.4 -11.3,10.17 -0.01,0.12 -0.02,0.25 -0.03,0.38 0.01,-0.13 0.02,-0.26 0.03,-0.38 0.57,-5.77 5.43,-10.17 11.3,-10.17 3.72,0 7,1.69 9.03,4.51 23.27,30.5 50.04,53.09 78.96,66.09 2.49,1.09 4.3,2.97 5.35,5.21 -1.05,-2.24 -2.86,-4.13 -5.35,-5.22 -28.92,-12.99 -55.69,-35.58 -78.96,-66.08 -2.03,-2.82 -5.31,-4.51 -9.03,-4.51 m -11.34,10.64 c 0,0.1 -0.01,0.2 -0.02,0.3 0.01,-0.09 0.02,-0.2 0.02,-0.3 m -0.03,0.4 c 0,0.1 -0.01,0.22 -0.02,0.32 0.01,-0.11 0.01,-0.21 0.02,-0.32 m -0.03,0.37 c -5.52,69.57 -34.24,132.63 -78.28,181.67 0.04,0.02 0.09,0.04 0.13,0.05 44.02,-49.03 72.63,-112.17 78.15,-181.72 m 57.63,159.18 c -5.83,16.31 -9.75,33.32 -10.99,51.24 -0.02,0.29 -0.03,0.57 -0.03,0.86 0.01,2.18 0.6,4.24 1.64,6 0.1,0.02 0.2,0.03 0.3,0.05 -1.25,-2.03 -2.08,-4.33 -1.91,-6.9 1.24,-17.92 5.16,-34.94 10.99,-51.25" /><path
         id="path102"
         style="fill:#7a321c;fill-opacity:1;fill-rule:nonzero;stroke:none"
         d="m 973.707,1612.03 c -0.004,0 -0.012,0 -0.016,0 -2.136,0 -4.304,0.62 -6.246,1.95 v 0 c -25.863,17.74 -57.152,33.21 -94.086,41 -4.632,0.91 -8.246,4.64 -8.925,9.38 -4.293,29.59 -8.586,58.62 -12.875,86.64 -2.825,19.43 -5.653,38.29 -8.36,56.58 -0.074,0.52 -0.113,1.04 -0.113,1.55 -0.02,5.67 4.371,10.49 10.277,11.22 69.239,7.68 131.141,40.32 176.207,88.89 2.29,2.48 5.2,3.58 8.07,3.58 v 0 c 0,0 0.01,0 0.02,0 5.76,-0.01 11.34,-4.48 11.34,-11.26 v 0 -90.47 c 0,-40.66 -15.03,-74.33 -34,-117.02 -9.83,-22.14 -20.555,-46.31 -30.609,-74.44 v 0 c -0.028,-0.07 -0.055,-0.15 -0.082,-0.22 -1.746,-4.63 -6.082,-7.37 -10.575,-7.38 -0.007,0 -0.015,0 -0.027,0" /><path
         id="path104"
         style="fill:#1a1512;fill-opacity:1;fill-rule:nonzero;stroke:none"
         d="m 973.707,1612.03 v 0 0 c 0.012,0 0.02,0 0.027,0 v 0 c -0.007,0 -0.015,0 -0.027,0 m -0.016,0 c -2.136,0 -4.304,0.62 -6.246,1.95 -25.863,17.74 -57.152,33.21 -94.086,41 -4.632,0.91 -8.246,4.64 -8.925,9.38 -4.293,29.59 -8.586,58.62 -12.875,86.64 -2.825,19.43 -5.653,38.29 -8.36,56.58 -0.074,0.52 -0.113,1.04 -0.113,1.55 0,-0.51 0.039,-1.03 0.113,-1.55 2.707,-18.29 5.535,-37.15 8.36,-56.58 4.289,-28.02 8.582,-57.05 12.875,-86.64 0.679,-4.74 4.293,-8.47 8.925,-9.38 36.934,-7.79 68.223,-23.26 94.086,-41 v 0 c 1.942,-1.33 4.11,-1.95 6.246,-1.95 v 0 m 10.618,7.38 v 0 c 0.027,0.07 0.054,0.15 0.082,0.22 v 0 c 10.054,28.13 20.779,52.3 30.609,74.44 18.97,42.69 34,76.36 34,117.02 v 90.47 0 -90.47 c 0,-40.66 -15.03,-74.33 -34,-117.02 -9.83,-22.14 -20.555,-46.31 -30.609,-74.44 -0.028,-0.07 -0.055,-0.15 -0.082,-0.22 M 1049,1901.56 c 0,6.78 -5.58,11.25 -11.34,11.26 5.76,-0.01 11.34,-4.48 11.34,-11.26 m -11.36,11.26 v 0 0 0" /><path
         id="path106"
         style="fill:#383738;fill-opacity:1;fill-rule:nonzero;stroke:none"
         d="m 1292.19,1003.36 h -98.39 c -6.09,0 -10.95,4.86 -10.95,10.96 v 35.46 c 0,2.94 0.23,5.87 0.68,8.71 0.01,0.06 0.02,0.12 0.03,0.18 0,0.01 0,0.02 0,0.03 0.97,5.41 5.62,9.01 10.69,9.04 0.02,0 0.04,0 0.06,0 0.01,0 0.01,0 0.01,0 1.44,0 2.91,-0.29 4.34,-0.9 v 0 c 14.35,-6.22 30.05,-9.49 45.86,-9.49 15.02,0 29.71,3.05 43.38,8.47 0.05,0.02 0.11,0.05 0.17,0.07 0.01,0 0.01,0.01 0.01,0.01 1.27,0.5 2.58,0.74 3.86,0.74 0,0 0,0 0.01,0 0,0 0.01,0 0.02,0 5.02,-0.01 9.69,-3.66 10.66,-8.91 0,-0.03 0.01,-0.06 0.01,-0.09 0.01,-0.02 0.01,-0.05 0.02,-0.07 0,-0.04 0.01,-0.09 0.02,-0.13 0,-0.03 0.01,-0.06 0.01,-0.09 v 0 c 0.34,-2.49 0.45,-5.09 0.45,-7.57 v -35.46 c 0,-6.1 -4.85,-10.96 -10.95,-10.96" /><path
         id="path108"
         style="fill:#1a1512;fill-opacity:1;fill-rule:nonzero;stroke:none"
         d="m 1292.19,1003.36 h -98.39 c -6.09,0 -10.95,4.86 -10.95,10.96 v 0 c 0,-6.1 4.86,-10.96 10.95,-10.96 h 98.39 c 6.1,0 10.95,4.86 10.95,10.96 v 35.46 0 -35.46 c 0,-6.1 -4.85,-10.96 -10.95,-10.96 m 10.5,53.99 c 0,0.03 -0.01,0.06 -0.01,0.09 0,-0.03 0.01,-0.06 0.01,-0.09 m -0.03,0.22 c -0.01,0.02 -0.01,0.05 -0.02,0.07 0.01,-0.02 0.01,-0.05 0.02,-0.07 m -0.03,0.16 c -0.97,5.25 -5.64,8.9 -10.66,8.91 5.02,-0.01 9.69,-3.66 10.66,-8.91 m -119.07,0.94 c 0,0.01 0,0.02 0,0.03 0,-0.01 0,-0.02 0,-0.03 m 104.51,7.22 c 0.01,0 0.01,0.01 0.01,0.01 0,0 0,-0.01 -0.01,-0.01 m 3.87,0.75 c 0,0 0,0 0.01,0 v 0 c -0.01,0 -0.01,0 -0.01,0 m -93.28,0.2 c -1.43,0.61 -2.9,0.9 -4.34,0.9 1.44,0 2.91,-0.29 4.34,-0.9 m -4.41,0.9 c 0.02,0 0.04,0 0.06,0 v 0 c -0.02,0 -0.04,0 -0.06,0" /><path
         id="path110"
         style="fill:#383738;fill-opacity:1;fill-rule:nonzero;stroke:none"
         d="m 967.109,1003.36 h -98.382 c -6.098,0 -10.957,4.86 -10.957,10.96 v 35.46 c 0,2.72 0.226,5.42 0.566,8.14 0.008,0.06 0.016,0.12 0.027,0.17 0,0.02 0.004,0.04 0.008,0.05 0.895,5.39 5.617,8.97 10.789,8.98 0.008,0 0.016,0 0.024,0 0,0 0.004,0 0.007,0 1.414,0 2.868,-0.27 4.282,-0.84 v 0 c 14.004,-5.76 29.027,-8.93 44.5,-8.93 15.363,0 30.5,3.17 44.504,8.93 1.386,0.57 2.82,0.84 4.222,0.84 0,0 0.004,0 0.008,0 0.02,0 0.039,0 0.063,0 5.054,-0.02 9.71,-3.54 10.668,-8.82 0.023,-0.12 0.042,-0.25 0.062,-0.38 0.336,-2.72 0.566,-5.42 0.566,-8.14 v -35.46 c 0,-6.1 -4.859,-10.96 -10.957,-10.96" /><path
         id="path112"
         style="fill:#1a1512;fill-opacity:1;fill-rule:nonzero;stroke:none"
         d="m 967.109,1003.36 h -98.382 c -6.098,0 -10.957,4.86 -10.957,10.96 v 0 c 0,-6.1 4.859,-10.96 10.957,-10.96 h 98.382 c 6.098,0 10.957,4.86 10.957,10.96 v 35.46 0 -35.46 c 0,-6.1 -4.859,-10.96 -10.957,-10.96 m -108.746,54.73 c 0,0.02 0.004,0.04 0.008,0.05 -0.004,-0.01 -0.008,-0.03 -0.008,-0.05 m 119.075,0.21 c -0.958,5.28 -5.614,8.8 -10.668,8.82 5.054,-0.02 9.71,-3.54 10.668,-8.82 m -103.965,7.98 c -1.414,0.57 -2.868,0.84 -4.282,0.84 1.418,0 2.868,-0.27 4.282,-0.84 m -4.313,0.84 c 0.008,0 0.016,0 0.024,0 v 0 c -0.008,0 -0.016,0 -0.024,0 m 97.539,0 c 0,0 0.004,0 0.008,0 v 0 c -0.004,0 -0.008,0 -0.008,0" /><path
         id="path114"
         style="fill:#7a321c;fill-opacity:1;fill-rule:nonzero;stroke:none"
         d="m 917.973,1113.83 c -0.129,0 -0.258,0 -0.387,0 -8.106,0.05 -15.871,1.85 -22.992,4.85 v 0 c -4.137,1.83 -6.551,5.95 -6.551,10.35 0,0.76 0.074,1.54 0.223,2.31 1.582,8.36 2.492,16.94 2.492,25.63 v 111.6 c 0,3.66 -0.149,7.29 -0.438,10.89 -1.672,20.94 -8.179,40.77 -19.175,58.05 11.117,-13.31 27.64,-21.95 46.339,-21.95 25.059,0 46.559,15.2 55.809,36.88 -1.508,-3.53 -3.309,-6.96 -5.504,-10.22 v 0 c -0.203,-0.3 -0.402,-0.6 -0.605,-0.9 -14.411,-21.82 -22.106,-46.9 -22.106,-72.75 v -111.6 c 0,-8.69 0.91,-17.27 2.488,-25.63 0.176,-0.81 0.262,-1.63 0.262,-2.43 0,-4.35 -2.488,-8.42 -6.59,-10.23 v 0 c -7.172,-3.02 -15.008,-4.82 -23.074,-4.85 -0.062,0 -0.129,0 -0.191,0" /><path
         id="path116"
         style="fill:#1a1512;fill-opacity:1;fill-rule:nonzero;stroke:none"
         d="m 917.973,1113.83 c -0.129,0 -0.258,0 -0.387,0 0.129,0 0.258,0 0.387,0 0.062,0 0.129,0 0.191,0 -0.062,0 -0.129,0 -0.191,0 m 23.265,4.85 v 0 c 4.102,1.81 6.59,5.88 6.59,10.23 0,-4.35 -2.488,-8.42 -6.59,-10.23 v 0 m -46.644,0 v 0 c -4.137,1.83 -6.551,5.95 -6.551,10.35 0,-4.4 2.414,-8.52 6.551,-10.35 v 0 m -4.274,160.78 c -1.711,21.18 -8.422,41.21 -19.66,58.64 0.16,-0.2 0.32,-0.39 0.485,-0.59 10.996,-17.28 17.503,-37.11 19.175,-58.05 m 76.864,61.86 c 0.203,0.3 0.402,0.6 0.605,0.9 v 0 0 c -0.203,-0.3 -0.402,-0.6 -0.605,-0.9" /><path
         id="path118"
         style="fill:#7a321c;fill-opacity:1;fill-rule:nonzero;stroke:none"
         d="m 1244.52,1113.83 c -8.92,0 -17.4,2.03 -25.19,5.64 -0.03,0.02 -0.07,0.04 -0.11,0.05 -4.55,2.18 -6.77,7.34 -5.76,12.38 1.58,8.13 2.37,16.49 2.37,25.07 v 111.6 0 0 0 c 0,0.06 0,0.11 0,0.16 0,0.01 0,0.03 0,0.04 0,0.04 0,0.07 0,0.11 0,0.04 0,0.07 0,0.11 0,0.01 0,0.02 0,0.04 -0.08,25.21 -7.04,49.19 -20.29,69.55 11.05,-14.04 28.01,-23.19 47.27,-23.19 20.19,0 38.01,9.96 48.98,25.19 -14.09,-20.74 -21.51,-45.41 -21.63,-71.38 0,-0.02 0,-0.04 0,-0.06 0,-0.03 0,-0.07 0,-0.1 0,-0.02 0,-0.04 0,-0.07 0,-0.13 0,-0.26 0,-0.4 v -111.6 0 0 c 0,-8.91 0.9,-17.72 2.6,-26.2 v 0 c 0.18,-0.83 0.26,-1.66 0.26,-2.48 0,-4.41 -2.51,-8.45 -6.7,-10.17 -6.78,-2.71 -14.12,-4.29 -21.8,-4.29" /><path
         id="path120"
         style="fill:#1a1512;fill-opacity:1;fill-rule:nonzero;stroke:none"
         d="m 1244.52,1113.83 c -8.92,0 -17.4,2.03 -25.19,5.64 -0.03,0.02 -0.07,0.04 -0.11,0.05 0.04,-0.01 0.08,-0.03 0.11,-0.05 7.79,-3.61 16.27,-5.64 25.19,-5.64 7.68,0 15.02,1.58 21.8,4.29 4.19,1.72 6.7,5.76 6.7,10.17 0,0.82 -0.08,1.65 -0.26,2.48 1.13,-5.31 -1.47,-10.61 -6.44,-12.65 -6.77,-2.71 -14.12,-4.29 -21.8,-4.29 m 25.64,43.14 v 0 111.6 c 0,0.14 0,0.27 0,0.4 0,-0.13 0,-0.26 0,-0.4 v -111.6 m -54.33,111.6 v 0 0 0 m 0,0.16 c 0,0.01 0,0.03 0,0.04 0,-0.01 0,-0.03 0,-0.04 m 0,0.15 c 0,0.03 0,0.07 0,0.11 0,-0.04 0,-0.07 0,-0.11 m 0,0.15 c -0.09,25.54 -7.29,49.78 -20.88,70.31 0.19,-0.26 0.39,-0.51 0.59,-0.76 13.25,-20.36 20.21,-44.34 20.29,-69.55 m 54.33,0.01 c 0,0.03 0,0.07 0,0.1 0,-0.03 0,-0.07 0,-0.1 m 0,0.16 c 0.12,25.97 7.54,50.64 21.63,71.38 0.18,0.25 0.36,0.51 0.54,0.77 -14.43,-20.9 -22.05,-45.85 -22.17,-72.15" /><path
         id="path122"
         style="fill:#beb7b6;fill-opacity:1;fill-rule:nonzero;stroke:none"
         d="m 820.863,1603.82 c -0.011,0 -0.027,0 -0.039,0 0.012,0 0.028,0 0.039,0 v 0 m 0.379,0 c 0.02,0 0.028,0 0.043,0 -0.015,0 -0.023,0 -0.043,0 m 0.074,0 c 0.071,0 0.149,0 0.223,0 -0.074,0 -0.152,0 -0.223,0 m 0.586,0 c -0.011,0 -0.015,0 -0.027,0 v 0 c 0.012,0 0.016,0 0.027,0 m -122.718,76.06 c -0.02,0.05 -0.039,0.1 -0.059,0.14 0.02,-0.04 0.039,-0.09 0.059,-0.14 m -0.141,0.33 c -0.027,0.06 -0.055,0.13 -0.082,0.19 0.027,-0.06 0.055,-0.13 0.082,-0.19 m -0.082,0.19 c -0.043,0.1 -0.082,0.19 -0.125,0.29 0.043,-0.1 0.082,-0.19 0.125,-0.29 m -0.125,0.29 c -42.004,98.03 28.293,192.78 120.863,194.32 h 0.004 c -73.726,-1.24 -133.332,-61.59 -133.316,-135.63 0.008,-18.92 3.902,-38.74 12.449,-58.69" /><path
         id="path124"
         style="fill:#383738;fill-opacity:1;fill-rule:nonzero;stroke:none"
         d="m 821.965,1412.82 v 0 c -0.121,0 -0.25,0 -0.367,0 -0.024,0 -0.055,0 -0.075,0 -0.128,0 -0.238,0 -0.363,0 -0.012,0 -0.027,0 -0.039,0 -0.109,0 -0.223,0 -0.336,0 -0.019,0 -0.051,0 -0.07,0 -0.117,0 -0.242,0 -0.363,0 -0.008,0 -0.036,0 -0.043,0 -0.121,0 -0.223,0 -0.34,0 -0.012,0 -0.043,0 -0.055,0 -0.117,0 -0.25,0 -0.367,0.01 -0.024,0 -0.031,0 -0.055,0 -0.117,0 -0.219,0 -0.336,0 -0.019,0 -0.027,0 -0.051,0 -0.117,0 -0.246,0 -0.363,0 -0.023,0 -0.039,0 -0.062,0 -0.117,0 -0.231,0 -0.352,0.01 -0.008,0 -0.012,0 -0.019,0 -0.129,0 -0.254,0 -0.383,0 -0.008,0 -0.031,0 -0.043,0 -0.25,0 -0.512,0.01 -0.766,0.01 -0.012,0 -0.027,0 -0.039,0 -0.262,0.01 -0.519,0.01 -0.781,0.01 -0.012,0 -0.004,0 -0.016,0.01 -0.269,0 -0.531,0 -0.801,0.01 v 0 c -135.832,2.66 -251.535,88.73 -298.093,208.96 -32.754,109.68 84.004,251.61 302.312,253.17 -92.57,-1.54 -162.867,-96.29 -120.863,-194.32 v 0 c 0.043,-0.1 0.082,-0.19 0.125,-0.29 v 0 0 c 0.027,-0.06 0.055,-0.13 0.082,-0.19 0.027,-0.07 0.055,-0.13 0.082,-0.19 0.02,-0.04 0.039,-0.09 0.059,-0.14 20.859,-47.81 69.437,-76.05 121.64,-76.06 0.012,0 0.028,0 0.039,0 v 0 0 c 0.102,0 0.207,0 0.309,0 v 0 c 0.023,0 0.051,0 0.07,0 0.02,0 0.028,0 0.043,0 0.012,0 0.02,0 0.031,0 0.071,0 0.149,0 0.223,0 0.113,0 0.223,0 0.336,0 0.012,0 0.016,0 0.027,0 48.762,-0.01 88.598,-18.55 118.59,-40.39 26.52,-19.32 45.352,-41.22 55.871,-55.17 -22.363,-29.71 -82.117,-95.44 -174.398,-95.44" /><path
         id="path126"
         style="fill:#1a1512;fill-opacity:1;fill-rule:nonzero;stroke:none"
         d="m 821.965,1412.82 v 0 0 c 92.281,0 152.035,65.73 174.398,95.44 v 0 C 974,1478.55 914.246,1412.82 821.965,1412.82 m -0.367,0 c -0.028,0 -0.051,0 -0.075,0 0.02,0 0.051,0 0.075,0 m -0.438,0 c -0.008,0 -0.027,0 -0.039,0 0.012,0 0.027,0 0.039,0 m -0.375,0 c -0.023,0 -0.047,0 -0.07,0 0.019,0 0.051,0 0.07,0 m -0.433,0 c -0.016,0 -0.028,0 -0.043,0 0.007,0 0.035,0 0.043,0 m -0.383,0 c -0.02,0 -0.035,0 -0.055,0 0.012,0 0.043,0 0.055,0 m -0.422,0.01 c -0.02,0 -0.035,0 -0.055,0 0.024,0 0.031,0 0.055,0 m -0.391,0 c -0.015,0 -0.031,0 -0.051,0 0.024,0 0.032,0 0.051,0 m -0.414,0 c -0.019,0 -0.047,0 -0.062,0 0.023,0 0.039,0 0.062,0 m -0.414,0.01 c -0.008,0 -0.012,0 -0.019,0 0.007,0 0.011,0 0.019,0 m -0.402,0 c -0.016,0 -0.024,0 -0.043,0 0.012,0 0.035,0 0.043,0 m -0.809,0.01 c -0.015,0 -0.023,0 -0.039,0 0.012,0 0.027,0 0.039,0 m -0.82,0.01 -0.016,0.01 c 0.012,-0.01 0.004,-0.01 0.016,-0.01 m -0.817,0.02 v 0 0 m 125.012,150.55 c -29.992,21.84 -69.828,40.38 -118.59,40.39 -0.011,0 -0.015,0 -0.027,0 v 0 c -0.113,0 -0.223,0 -0.336,0 -0.074,0 -0.152,0 -0.223,0 -0.011,0 -0.019,0 -0.031,0 -0.015,0 -0.023,0 -0.043,0 -0.019,0 -0.047,0 -0.07,0 0.242,0 0.473,0 0.715,0 48.765,0 88.609,-18.55 118.605,-40.39 m -254.105,175.95 c -0.016,74.04 59.59,134.39 133.316,135.63 v 0 c -73.726,-1.24 -133.332,-61.59 -133.316,-135.63 m 133.316,135.63 c 0.762,0.01 1.531,0.01 2.297,0.01 0.441,0 0.875,0 1.32,0 -1.211,0 -2.414,0 -3.617,-0.01" /></g></g></svg>