<?xml version="1.0" encoding="UTF-8" standalone="no"?>
<svg
   xmlns:dc="http://purl.org/dc/elements/1.1/"
   xmlns:cc="http://creativecommons.org/ns#"
   xmlns:rdf="http://www.w3.org/1999/02/22-rdf-syntax-ns#"
   xmlns:svg="http://www.w3.org/2000/svg"
   xmlns="http://www.w3.org/2000/svg"
   viewBox="0 0 332.73334 339.58667"
   height="339.58667"
   width="332.73334"
   xml:space="preserve"
   id="svg2"
   version="1.1"><metadata
     id="metadata8"><rdf:RDF><cc:Work
         rdf:about=""><dc:format>image/svg+xml</dc:format><dc:type
           rdf:resource="http://purl.org/dc/dcmitype/StillImage" /></cc:Work></rdf:RDF></metadata><defs
     id="defs6" /><g
     transform="matrix(1.3333333,0,0,-1.3333333,0,339.58667)"
     id="g10"><g
       transform="scale(0.1)"
       id="g12"><path
         id="path14"
         style="fill:#9c3f1f;fill-opacity:1;fill-rule:nonzero;stroke:none"
         d="m 51.3086,78.7891 c 0,8.25 -3.0195,12.6992 -8.5781,12.6992 -14.1367,0 -23.5078,-26.3594 -23.5078,-39.2383 0,-9.3594 3.3359,-14.1289 9.2148,-14.1289 12.8672,0 22.8711,27.8008 22.8711,40.668 z M 63.5391,51.4609 c -1.2696,-4.1328 -1.7461,-6.9921 -1.7461,-9.0507 0,-2.6993 1.2695,-4.1289 3.6523,-4.1289 3.4961,0 6.9922,5.3984 10.6445,16.039 l 7.6211,-2.3789 C 77.5195,32.5586 68.9414,25.4102 59.2539,25.4102 c -7.4687,0 -13.0273,4.7617 -13.0273,13.9804 0,1.1211 0,1.9102 0.1601,3.5 l -1.1133,0.4688 C 39.2383,31.4414 30.1797,25.4102 21.1289,25.4102 7.46484,25.4102 0,36.6914 0,50.6719 c 0,16.1992 6.51172,30.6562 15.0938,39.0664 7.4648,7.6328 15.8828,12.0707 24.7773,12.0707 8.8984,0 13.9766,-6.1879 15.4062,-13.3402 L 58.457,100.699 H 76.5625 L 63.5391,51.4609" /><path
         id="path16"
         style="fill:#9c3f1f;fill-opacity:1;fill-rule:nonzero;stroke:none"
         d="m 163.289,38.2813 c 3.336,0 6.676,5.0781 10.965,16.039 l 7.465,-2.3789 c -6.352,-19.2226 -15.25,-26.5312 -24.301,-26.5312 -8.578,0 -14.141,5.5586 -14.141,14.7695 0,15.8906 10.485,31.6211 10.485,42.4219 0,3.6484 -1.59,5.2382 -4.289,5.2382 -7.305,0 -20.965,-12.0703 -33.676,-60.8398 H 96.7383 l 13.6567,51.4688 c 2.382,9.0507 1.91,11.5898 -0.954,11.5898 -3.652,0 -7.781,-6.8281 -12.3863,-16.668 l -7.4649,3.168 c 6.8321,15.8828 14.7692,25.1014 25.4142,25.1014 6.832,0 11.598,-4.9217 11.598,-14.7811 0,-4.6094 -0.957,-10.3203 -3.34,-17.6172 l 1.113,-0.4804 c 10.484,22.3906 22.234,33.0277 33.516,33.0277 8.894,0 14.457,-6.9887 14.457,-16.5199 0,-13.4883 -11.758,-33.8282 -11.758,-43.5078 0,-2.3907 0.953,-3.5 2.699,-3.5" /><path
         id="path18"
         style="fill:#9c3f1f;fill-opacity:1;fill-rule:nonzero;stroke:none"
         d="m 242.551,63.3789 c 0,-18.4297 9.051,-27.3281 23.98,-27.3281 25.895,0 36.379,38.6094 36.379,59.0898 0,18.4294 -9.215,27.3284 -23.984,27.3284 -26.051,0 -36.375,-38.5979 -36.375,-59.0901 z m 37.168,70.6801 c 26.051,0 44.32,-18.579 44.32,-45.9106 0,-30.6484 -23.031,-63.6875 -58.297,-63.6875 -26.051,0 -44.476,18.5899 -44.476,45.9102 0,30.6489 23.031,63.6879 58.453,63.6879" /><path
         id="path20"
         style="fill:#9c3f1f;fill-opacity:1;fill-rule:nonzero;stroke:none"
         d="m 361.52,49.8711 c 0,-7.7813 3.335,-13.1797 10.32,-13.1797 14.137,0 22.082,26.6875 22.082,39.2383 0,8.8906 -2.863,13.4922 -8.734,13.4922 -12.711,0 -23.668,-25.5625 -23.668,-39.5508 z m -12.868,38.7578 c -3.656,0 -6.511,-4.6094 -11.597,-15.2383 l -7.465,3.168 c 7.621,17.4727 15.09,25.1014 25.098,25.1014 7.148,0 11.914,-5.2498 11.914,-14.3006 0,-1.1094 -0.161,-2.5391 -0.325,-3.9688 l 1.278,-0.4687 c 6.035,12.539 15.722,18.8871 24.461,18.8871 13.339,0 20.968,-10.9496 20.968,-25.7309 0,-25.5664 -17.632,-49.2383 -37.171,-49.2383 -8.418,0 -15.09,4.2891 -18.11,10.6485 l -6.351,-23.668 h 14.925 L 363.105,2.05859 h -44 l 3.176,11.76171 h 10.801 l 16.84,62.8985 c 2.383,8.8906 1.586,11.9101 -1.27,11.9101" /><path
         id="path22"
         style="fill:#9c3f1f;fill-opacity:1;fill-rule:nonzero;stroke:none"
         d="m 442.52,64.3203 c 22.082,2.3906 30.179,10.9688 30.179,20.8203 0,4.4492 -2.539,7.9297 -7.304,7.9297 -11.118,0 -19.536,-15.082 -22.875,-28.75 z m -1.426,-7.4609 c -0.16,-1.2696 -0.16,-2.5391 -0.16,-3.6485 0,-13.1796 6.832,-17.3125 14.769,-17.3125 7.789,0 15.57,5.2422 22.242,14.6133 l 6.668,-4.7734 c -8.097,-11.5899 -17.949,-20.3281 -34.785,-20.3281 -16.359,0 -27.797,11.4296 -27.797,28.9101 0,24.4688 21.129,47.4887 46.067,47.4887 13.66,0 21.281,-6.8207 21.281,-16.5199 0,-14.2891 -14.93,-26.5196 -48.285,-28.4297" /><path
         id="path24"
         style="fill:#9c3f1f;fill-opacity:1;fill-rule:nonzero;stroke:none"
         d="m 571.184,38.2813 c 3.332,0 6.671,5.0781 10.961,16.039 l 7.464,-2.3789 c -6.351,-19.2226 -15.25,-26.5312 -24.3,-26.5312 -8.579,0 -14.141,5.5586 -14.141,14.7695 0,15.8906 10.48,31.6211 10.48,42.4219 0,3.6484 -1.585,5.2382 -4.285,5.2382 -7.304,0 -20.968,-12.0703 -33.675,-60.8398 h -19.059 l 13.656,51.4688 c 2.383,9.0507 1.91,11.5898 -0.949,11.5898 -3.652,0 -7.785,-6.8281 -12.391,-16.668 l -7.465,3.168 c 6.833,15.8828 14.77,25.1014 25.415,25.1014 6.832,0 11.597,-4.9217 11.597,-14.7811 0,-4.6094 -0.957,-10.3203 -3.34,-17.6172 l 1.114,-0.4804 c 10.484,22.3906 22.238,33.0277 33.515,33.0277 8.899,0 14.457,-6.9887 14.457,-16.5199 0,-13.4883 -11.758,-33.8282 -11.758,-43.5078 0,-2.3907 0.954,-3.5 2.704,-3.5" /><path
         id="path26"
         style="fill:#9c3f1f;fill-opacity:1;fill-rule:nonzero;stroke:none"
         d="m 606.121,64.1719 h 11.281 c 3.02,-19.0625 14.137,-28.4336 28.118,-28.4336 12.546,0 19.851,7.9414 19.851,16.2031 0,9.207 -10.484,13.5 -21.762,18.7383 -13.183,5.8789 -27.636,12.8711 -27.636,29.7113 0,17.781 16.043,33.668 37.168,33.668 11.277,0 21.761,-4.61 27.004,-12.071 l 6.511,11.59 h 11.914 l -9.371,-37.6366 h -11.117 c -3.336,19.6876 -11.281,26.9996 -24.941,26.9996 -10.325,0 -17.633,-7.461 -17.633,-15.722 0,-10.0081 10.801,-14.2971 22.242,-19.3792 13.02,-5.5703 27,-12.2382 27,-28.9179 0,-19.5313 -17.312,-34.461 -39.074,-34.461 -13.821,0 -24.145,5.0782 -30.184,12.711 l -6.984,-12.2305 h -11.914 l 9.527,39.2305" /><path
         id="path28"
         style="fill:#9c3f1f;fill-opacity:1;fill-rule:nonzero;stroke:none"
         d="M 736.848,88.7891 727.313,54 c -1.106,-3.9609 -1.903,-7.6211 -1.903,-9.5312 0,-4.2891 2.223,-5.7071 5.563,-5.7071 5.715,0 10.48,6.9766 14.925,17.1485 l 7.625,-2.5391 c -7.781,-22.5625 -20.011,-27.9609 -28.589,-27.9609 -10.485,0 -17.954,5.2382 -17.954,16.039 0,4.6094 1.75,11.2813 2.864,15.7305 l 8.578,31.6094 h -13.981 l 2.539,9.6914 h 13.981 l 5.246,19.0585 18.898,2.07 -5.714,-21.1285 h 22.55 l -2.539,-9.6914 h -22.554" /><path
         id="path30"
         style="fill:#9c3f1f;fill-opacity:1;fill-rule:nonzero;stroke:none"
         d="m 817.219,78.7891 c 0,8.25 -3.02,12.6992 -8.582,12.6992 -14.133,0 -23.504,-26.3594 -23.504,-39.2383 0,-9.3594 3.336,-14.1289 9.215,-14.1289 12.863,0 22.871,27.8008 22.871,40.668 z m 12.23,-27.3282 c -1.269,-4.1328 -1.75,-6.9921 -1.75,-9.0507 0,-2.6993 1.27,-4.1289 3.653,-4.1289 3.496,0 6.992,5.3984 10.644,16.039 l 7.621,-2.3789 C 843.43,32.5586 834.848,25.4102 825.16,25.4102 c -7.465,0 -13.027,4.7617 -13.027,13.9804 0,1.1211 0,1.9102 0.164,3.5 l -1.113,0.4688 c -6.039,-11.918 -15.094,-17.9492 -24.149,-17.9492 -13.66,0 -21.129,11.2812 -21.129,25.2617 0,16.1992 6.516,30.6562 15.094,39.0664 7.469,7.6328 15.887,12.0707 24.781,12.0707 8.899,0 13.977,-6.1879 15.407,-13.3402 l 3.175,12.2302 h 18.11 L 829.449,51.4609" /><path
         id="path32"
         style="fill:#9c3f1f;fill-opacity:1;fill-rule:nonzero;stroke:none"
         d="m 922.367,83.0703 c 0,-6.832 -4.285,-13.6601 -11.117,-13.6601 -5.719,0 -9.371,3.8086 -9.371,8.5781 0,4.4531 2.699,8.1015 6.512,10.8008 -1.274,2.2226 -3.973,3.9726 -8.739,3.9726 -15.882,0 -25.254,-24.3008 -25.254,-38.1211 0,-13.6718 7.305,-17.9492 14.454,-17.9492 7.304,0 14.296,5.2383 20.652,15.0899 l 6.828,-4.6016 c -6.828,-11.918 -16.199,-21.7695 -31.766,-21.7695 -17.476,0 -29.23,11.9101 -29.23,29.2304 0,24.7813 21.285,47.1684 44,47.1684 13.344,0 23.031,-7.4574 23.031,-18.7387" /><path
         id="path34"
         style="fill:#9c3f1f;fill-opacity:1;fill-rule:nonzero;stroke:none"
         d="m 989.719,38.2813 c 3.496,0 6.511,5.0781 10.641,16.039 l 7.47,-2.3789 c -6.04,-19.2226 -14.299,-26.5312 -23.514,-26.5312 -8.894,0 -14.769,5.8789 -14.769,16.1992 0,4.4492 1.746,10.8008 1.746,14.3008 0,5.8789 -2.543,7.3086 -14.141,7.3086 h -0.316 L 947.148,27 h -17.949 l 25.735,97.051 h -13.188 l 3.176,12.39 h 31.609 L 958.746,70.3711 h 0.789 c 8.418,0 11.914,4.7578 18.906,16.3594 5.243,8.5703 10.485,15.0785 19.856,15.0785 7.623,0 11.753,-4.7582 11.753,-11.5902 0,-6.668 -4.29,-13.3477 -10.804,-13.3477 -6.351,0 -9.683,5.5703 -7.465,12.0781 -2.218,-0.4804 -4.601,-3.1797 -8.258,-9.2187 -3.175,-5.8711 -5.718,-9.1992 -10.488,-11.7422 11.281,-0.957 14.934,-5.8789 14.934,-13.3477 0,-4.6015 -1.27,-9.2109 -1.27,-12.0703 0,-3.1797 1.27,-4.289 3.02,-4.289" /><path
         id="path36"
         style="fill:#9c3f1f;fill-opacity:1;fill-rule:nonzero;stroke:none"
         d="m 1076.6,68.7813 c 0,31.9177 23.51,65.2777 58.45,65.2777 13.19,0 23.03,-4.758 28.44,-12.86 l 6.51,12.379 h 12.23 l -10.17,-41.2967 h -11.91 c -1.59,22.8667 -11.6,30.1877 -24.46,30.1877 -28.12,0 -37.81,-37.8088 -37.81,-55.2776 0,-21.1328 10.8,-30.0195 24.62,-30.0195 16.84,0 26.69,12.6992 34.63,31.4492 l 11.28,-3.9727 c -7.95,-22.2382 -22.72,-40.1875 -48.13,-40.1875 -29.23,0 -43.68,18.5899 -43.68,44.3204" /><path
         id="path38"
         style="fill:#9c3f1f;fill-opacity:1;fill-rule:nonzero;stroke:none"
         d="m 1220.83,93.0703 c -14.78,0 -23.2,-28.8984 -23.2,-44.3086 0,-10.1719 4.29,-14.4609 11.12,-14.4609 14.78,0 23.19,28.918 23.19,44.3203 0,10.168 -4.28,14.4492 -11.11,14.4492 z m 30.01,-21.9101 c 0,-24.7813 -19.85,-45.75 -41.93,-45.75 -18.27,0 -30.18,12.8711 -30.18,30.8203 0,24.7695 19.85,45.5785 41.93,45.5785 18.27,0 30.18,-12.6996 30.18,-30.6488" /><path
         id="path40"
         style="fill:#9c3f1f;fill-opacity:1;fill-rule:nonzero;stroke:none"
         d="m 1354.09,40.1797 c 0,15.8906 10.48,31.6211 10.48,42.4219 0,3.6484 -1.59,5.2382 -4.29,5.2382 -6.98,0 -20.8,-12.0703 -33.51,-60.8398 h -18.75 l 11.13,41.9297 c 1.42,5.25 2.22,9.0586 2.22,12.0703 0,3.8203 -1.27,6.8398 -4.77,6.8398 -7.3,0 -20.97,-12.0703 -33.68,-60.8398 h -19.05 l 13.65,51.4688 c 2.39,9.0507 1.91,11.5898 -0.95,11.5898 -3.65,0 -7.78,-6.8281 -12.39,-16.668 l -7.46,3.168 c 6.83,15.8828 14.77,25.1014 25.41,25.1014 6.83,0 11.6,-4.9217 11.6,-14.7811 0,-4.6094 -0.96,-10.3203 -3.34,-17.6172 l 1.11,-0.4804 c 10.49,22.3906 22.24,33.0277 33.05,33.0277 8.73,0 13.34,-5.8676 13.34,-15.4106 0,-4.4375 -1.27,-9.8398 -3.66,-17.1367 l 1.12,-0.4804 c 10.48,22.3906 22.23,33.0277 33.51,33.0277 8.74,0 14.3,-6.9887 14.3,-16.5199 0,-13.4883 -11.76,-33.8282 -11.76,-43.5078 0,-2.3907 0.96,-3.5 2.7,-3.5 3.34,0 6.68,5.0781 10.96,16.039 l 7.47,-2.3789 c -6.35,-19.2226 -15.25,-26.5312 -24.3,-26.5312 -8.58,0 -14.14,5.5586 -14.14,14.7695" /><path
         id="path42"
         style="fill:#9c3f1f;fill-opacity:1;fill-rule:nonzero;stroke:none"
         d="m 1493.39,40.1797 c 0,15.8906 10.49,31.6211 10.49,42.4219 0,3.6484 -1.59,5.2382 -4.29,5.2382 -6.99,0 -20.81,-12.0703 -33.52,-60.8398 h -18.75 l 11.13,41.9297 c 1.42,5.25 2.21,9.0586 2.21,12.0703 0,3.8203 -1.27,6.8398 -4.75,6.8398 -7.32,0 -20.98,-12.0703 -33.68,-60.8398 h -19.07 l 13.67,51.4688 c 2.38,9.0507 1.9,11.5898 -0.95,11.5898 -3.66,0 -7.78,-6.8281 -12.39,-16.668 l -7.47,3.168 c 6.83,15.8828 14.77,25.1014 25.42,25.1014 6.82,0 11.59,-4.9217 11.59,-14.7811 0,-4.6094 -0.95,-10.3203 -3.33,-17.6172 l 1.11,-0.4804 c 10.48,22.3906 22.24,33.0277 33.04,33.0277 8.73,0 13.34,-5.8676 13.34,-15.4106 0,-4.4375 -1.27,-9.8398 -3.65,-17.1367 l 1.11,-0.4804 c 10.48,22.3906 22.23,33.0277 33.51,33.0277 8.74,0 14.3,-6.9887 14.3,-16.5199 0,-13.4883 -11.76,-33.8282 -11.76,-43.5078 0,-2.3907 0.96,-3.5 2.71,-3.5 3.33,0 6.67,5.0781 10.96,16.039 l 7.47,-2.3789 c -6.36,-19.2226 -15.26,-26.5312 -24.31,-26.5312 -8.57,0 -14.14,5.5586 -14.14,14.7695" /><path
         id="path44"
         style="fill:#9c3f1f;fill-opacity:1;fill-rule:nonzero;stroke:none"
         d="m 1591.08,40.3398 c 0,3.9688 0.95,10.0118 3.49,18.1211 l -1.1,0.461 c -10.49,-23.0235 -21.61,-33.5117 -33.05,-33.5117 -8.73,0 -14.45,6.8281 -14.45,16.6796 0,13.3516 11.28,34.4688 11.28,43.5196 0,2.2304 -0.96,3.3398 -2.39,3.3398 -3.34,0 -6.03,-3.4883 -11.75,-15.4101 l -7.47,3.1797 c 6.52,15.7226 14.94,25.0902 25.89,25.0902 8.42,0 13.35,-5.2387 13.35,-14.4496 0,-14.7696 -10.49,-31.6094 -10.49,-41.7813 0,-4.4375 1.75,-6.1875 4.45,-6.1875 7.15,0 20.33,11.75 33.36,61.3084 h 19.06 l -13.03,-49.2381 c -1.27,-4.2812 -1.75,-6.9921 -1.75,-9.0507 0,-2.6993 1.44,-4.1289 3.66,-4.1289 3.66,0 6.99,5.3984 10.64,16.039 l 7.63,-2.3789 c -6.19,-19.3828 -14.78,-26.5312 -23.83,-26.5312 -8.26,0 -13.5,4.6093 -13.5,14.9296" /><path
         id="path46"
         style="fill:#9c3f1f;fill-opacity:1;fill-rule:nonzero;stroke:none"
         d="m 1704.34,38.2813 c 3.33,0 6.67,5.0781 10.95,16.039 l 7.46,-2.3789 c -6.34,-19.2226 -15.24,-26.5312 -24.29,-26.5312 -8.59,0 -14.14,5.5586 -14.14,14.7695 0,15.8906 10.48,31.6211 10.48,42.4219 0,3.6484 -1.59,5.2382 -4.28,5.2382 -7.32,0 -20.98,-12.0703 -33.68,-60.8398 h -19.07 l 13.67,51.4688 c 2.38,9.0507 1.9,11.5898 -0.95,11.5898 -3.66,0 -7.78,-6.8281 -12.39,-16.668 l -7.47,3.168 c 6.83,15.8828 14.77,25.1014 25.41,25.1014 6.83,0 11.6,-4.9217 11.6,-14.7811 0,-4.6094 -0.95,-10.3203 -3.33,-17.6172 l 1.11,-0.4804 c 10.48,22.3906 22.24,33.0277 33.52,33.0277 8.88,0 14.45,-6.9887 14.45,-16.5199 0,-13.4883 -11.76,-33.8282 -11.76,-43.5078 0,-2.3907 0.96,-3.5 2.71,-3.5" /><path
         id="path48"
         style="fill:#9c3f1f;fill-opacity:1;fill-rule:nonzero;stroke:none"
         d="m 1762.77,112.941 c -5.55,0 -9.84,3.809 -9.84,10.161 0,6.519 4.92,13.98 13.34,13.98 6.03,0 10.17,-3.812 10.17,-10.172 0,-6.359 -5.24,-13.969 -13.67,-13.969 z m -7.61,-70.8512 c 0,-2.6992 1.11,-3.8085 3.17,-3.8085 3.02,0 6.51,4.289 11.28,16.039 l 7.46,-2.3789 c -6.19,-18.75 -15.09,-26.5312 -25.25,-26.5312 -8.27,0 -14.3,5.3984 -14.3,14.9296 0,15.1016 13.18,36.379 13.18,46.2305 0,2.5391 -0.94,3.4883 -2.38,3.4883 -4.44,0 -8.42,-6.8281 -12.86,-16.668 l -7.63,3.168 c 6.83,15.8828 15.26,25.2504 26.06,25.2504 8.25,0 14.13,-5.8676 14.13,-16.0395 0,-12.3789 -12.86,-34.4609 -12.86,-43.6797" /><path
         id="path50"
         style="fill:#9c3f1f;fill-opacity:1;fill-rule:nonzero;stroke:none"
         d="M 1818.85,88.7891 1809.32,54 c -1.12,-3.9609 -1.92,-7.6211 -1.92,-9.5312 0,-4.2891 2.23,-5.7071 5.57,-5.7071 5.71,0 10.48,6.9766 14.93,17.1485 l 7.63,-2.5391 c -7.8,-22.5625 -20.02,-27.9609 -28.6,-27.9609 -10.48,0 -17.95,5.2382 -17.95,16.039 0,4.6094 1.75,11.2813 2.86,15.7305 l 8.58,31.6094 h -13.98 l 2.54,9.6914 h 13.98 l 5.24,19.0585 18.9,2.07 -5.71,-21.1285 h 22.56 l -2.55,-9.6914 h -22.55" /><path
         id="path52"
         style="fill:#9c3f1f;fill-opacity:1;fill-rule:nonzero;stroke:none"
         d="m 1881.44,88 c 0,-14.6094 -9.22,-28.9102 -9.22,-38.1289 0,-3.9609 1.74,-5.5625 5.24,-5.5625 8.42,0 19.7,9.543 31.77,56.3904 h 17.79 L 1912.4,39.3906 C 1905.58,10.1602 1889.53,0 1869.68,0 c -11.13,0 -24.47,3.01953 -24.47,14.7695 0,5.0821 3.81,11.4414 10.96,11.4414 6.36,0 9.53,-4.4492 9.22,-9.6992 -0.17,-2.5429 -1.59,-5.4023 -3.18,-6.82029 1.91,-0.64063 4.29,-1.1211 7.31,-1.1211 12.38,0 20.8,10.00779 26.2,32.08989 l 3.19,12.5507 -0.96,0.4805 c -9.21,-16.8516 -19.06,-23.043 -28.27,-23.043 -10.49,0 -15.72,7.3125 -15.72,16.5313 0,12.2187 10.16,29.3789 10.16,38.4297 0,2.0625 -0.96,3.3398 -2.38,3.3398 -3.98,0 -7.78,-6.5078 -12.08,-15.5586 l -7.46,3.168 c 6.99,15.8828 15.72,25.2504 26.21,25.2504 8.09,0 13.03,-5.3988 13.03,-13.809" /><path
         id="path54"
         style="fill:#9c3f1f;fill-opacity:1;fill-rule:nonzero;stroke:none"
         d="m 2011.36,80.0586 c 20.33,0 27.48,12.7031 27.48,24.9294 0,9.223 -5.57,14.774 -21.29,14.774 h -6.83 l -9.85,-39.7034 z m -20.81,-41.1484 h 17.31 L 2005.16,27 h -53.37 l 2.7,11.9102 h 16.04 l 20.02,80.6988 h -16.2 l 3.01,11.911 h 44 c 28.76,0 39.71,-11.758 39.71,-26.692 0,-15.8788 -10.95,-36.0467 -50.35,-36.0467 h -12.71 l -7.46,-29.8711" /><path
         id="path56"
         style="fill:#9c3f1f;fill-opacity:1;fill-rule:nonzero;stroke:none"
         d="m 2085.85,78.4688 c 2.38,9.0507 1.9,11.5898 -0.95,11.5898 -3.66,0 -7.78,-6.8281 -12.39,-16.668 l -7.47,3.168 c 6.84,15.8828 14.77,25.1014 25.42,25.1014 6.83,0 11.59,-4.9217 11.59,-14.7811 0,-4.6094 -0.95,-10.1601 -3.17,-17.1601 l 1.27,-0.4571 c 9.21,20.9571 16.83,32.5473 27.96,32.5473 6.67,0 11.59,-4.5981 11.59,-12.0707 0,-7.9375 -5.08,-14.2891 -11.44,-14.2891 -5.55,0 -9.84,3.6524 -9.53,10.3203 C 2114.12,83.8711 2102.69,70.3711 2091.25,27 h -19.06 l 13.66,51.4688" /><path
         id="path58"
         style="fill:#9c3f1f;fill-opacity:1;fill-rule:nonzero;stroke:none"
         d="m 2185.13,93.0703 c -14.78,0 -23.2,-28.8984 -23.2,-44.3086 0,-10.1719 4.29,-14.4609 11.13,-14.4609 14.76,0 23.18,28.918 23.18,44.3203 0,10.168 -4.29,14.4492 -11.11,14.4492 z m 30.02,-21.9101 c 0,-24.7813 -19.86,-45.75 -41.94,-45.75 -18.27,0 -30.18,12.8711 -30.18,30.8203 0,24.7695 19.86,45.5785 41.94,45.5785 18.26,0 30.18,-12.6996 30.18,-30.6488" /><path
         id="path60"
         style="fill:#9c3f1f;fill-opacity:1;fill-rule:nonzero;stroke:none"
         d="m 2263.91,112.941 c -5.56,0 -9.85,3.809 -9.85,10.161 0,6.519 5.09,13.98 13.34,13.98 6.04,0 10.17,-3.812 10.17,-10.172 0,-6.359 -5.24,-13.969 -13.66,-13.969 z m 3.02,-39.7222 -10.01,-37.9571 C 2250.25,10.0117 2237.86,0 2223.24,0 c -11.11,0 -15.88,5.23828 -15.88,11.2813 0,5.8789 4.29,11.2773 10.48,11.2773 5.4,0 8.26,-3.9805 8.26,-8.1094 0,-3.3398 -1.27,-6.02732 -2.54,-7.62889 6.83,-0.14843 9.54,3.98049 15.41,26.69139 l 10.48,40.1875 c 0.96,3.8125 2.39,9.3711 2.39,12.6992 0,2.8711 -1.27,3.6602 -2.7,3.6602 -3.82,0 -7.95,-6.8281 -12.55,-16.668 l -7.47,3.168 c 6.84,15.8828 15.1,25.2504 26.21,25.2504 8.11,0 13.82,-6.1879 13.82,-15.0785 0,-3.6602 -0.79,-8.1094 -2.22,-13.5117" /><path
         id="path62"
         style="fill:#9c3f1f;fill-opacity:1;fill-rule:nonzero;stroke:none"
         d="m 2302.67,64.3203 c 22.08,2.3906 30.17,10.9688 30.17,20.8203 0,4.4492 -2.54,7.9297 -7.3,7.9297 -11.13,0 -19.54,-15.082 -22.87,-28.75 z m -1.44,-7.4609 c -0.16,-1.2696 -0.16,-2.5391 -0.16,-3.6485 0,-13.1796 6.83,-17.3125 14.78,-17.3125 7.78,0 15.57,5.2422 22.24,14.6133 l 6.67,-4.7734 c -8.1,-11.5899 -17.95,-20.3281 -34.79,-20.3281 -16.36,0 -27.8,11.4296 -27.8,28.9101 0,24.4688 21.13,47.4887 46.06,47.4887 13.66,0 21.29,-6.8207 21.29,-16.5199 0,-14.2891 -14.93,-26.5196 -48.29,-28.4297" /><path
         id="path64"
         style="fill:#9c3f1f;fill-opacity:1;fill-rule:nonzero;stroke:none"
         d="m 2426.08,83.0703 c 0,-6.832 -4.29,-13.6601 -11.12,-13.6601 -5.72,0 -9.37,3.8086 -9.37,8.5781 0,4.4531 2.7,8.1015 6.51,10.8008 -1.27,2.2226 -3.97,3.9726 -8.73,3.9726 -15.89,0 -25.26,-24.3008 -25.26,-38.1211 0,-13.6718 7.31,-17.9492 14.45,-17.9492 7.31,0 14.3,5.2383 20.65,15.0899 l 6.83,-4.6016 c -6.83,-11.918 -16.2,-21.7695 -31.77,-21.7695 -17.47,0 -29.23,11.9101 -29.23,29.2304 0,24.7813 21.29,47.1684 44.01,47.1684 13.34,0 23.03,-7.4574 23.03,-18.7387" /><path
         id="path66"
         style="fill:#9c3f1f;fill-opacity:1;fill-rule:nonzero;stroke:none"
         d="M 2470.4,88.7891 2460.87,54 c -1.11,-3.9609 -1.91,-7.6211 -1.91,-9.5312 0,-4.2891 2.22,-5.7071 5.56,-5.7071 5.71,0 10.48,6.9766 14.93,17.1485 l 7.62,-2.5391 c -7.78,-22.5625 -20.01,-27.9609 -28.58,-27.9609 -10.49,0 -17.95,5.2382 -17.95,16.039 0,4.6094 1.75,11.2813 2.85,15.7305 l 8.58,31.6094 h -13.98 l 2.55,9.6914 h 13.97 l 5.25,19.0585 18.89,2.07 -5.71,-21.1285 h 22.56 l -2.55,-9.6914 h -22.55" /><path
         id="path68"
         style="fill:#201916;fill-opacity:1;fill-rule:nonzero;stroke:none"
         d="m 67.5469,476.449 v 8.961 c 0,134.391 92.1561,227.82 215.6681,227.82 63.992,0 110.711,-19.199 154.226,-54.39 l -63.996,-87.68 c -23.675,21.121 -49.273,37.121 -87.675,37.121 -56.954,0 -100.465,-49.91 -100.465,-124.152 v -6.399 c 0,-81.91 44.152,-127.351 101.746,-127.351 22.402,0 39.039,5.121 51.836,13.441 v 66.551 H 267.855 V 519.32 H 447.043 V 305.578 C 404.805,274.23 350.41,249.91 282.574,249.91 c -122.23,0 -215.0271,86.391 -215.0271,226.539" /><path
         id="path70"
         style="fill:#201916;fill-opacity:1;fill-rule:nonzero;stroke:none"
         d="M 505.297,705.551 H 620.488 V 361.262 H 796.48 V 257.59 H 505.297 v 447.961" /><path
         id="path72"
         style="fill:#201916;fill-opacity:1;fill-rule:nonzero;stroke:none"
         d="m 1066.56,430.371 -41.6,131.188 -41.597,-131.188 z M 968.008,708.109 H 1084.48 L 1242.54,257.59 H 1121.6 l -26.24,80.629 H 954.566 L 928.969,257.59 H 810.574 l 157.434,450.519" /><path
         id="path74"
         style="fill:#201916;fill-opacity:1;fill-rule:nonzero;stroke:none"
         d="m 1277.77,705.551 h 108.15 L 1535.03,480.289 V 705.551 H 1648.3 V 257.59 H 1545.91 L 1391.04,492.449 V 257.59 h -113.27 v 447.961" /><path
         id="path76"
         style="fill:#201916;fill-opacity:1;fill-rule:nonzero;stroke:none"
         d="m 1701.45,477.09 v 7.68 c 0,138.23 90.23,228.46 207.98,228.46 70.39,0 118.39,-27.519 154.87,-70.39 l -74.23,-78.719 c -19.2,23.051 -43.53,42.25 -78.72,42.25 -52.47,0 -91.52,-46.723 -91.52,-122.883 v -2.558 c 0,-79.989 39.68,-124.149 91.52,-124.149 38.4,0 61.43,20.469 81.91,44.16 l 72.96,-74.242 c -36.47,-44.801 -86.4,-76.789 -161.27,-76.789 -114.55,0 -203.5,87.668 -203.5,227.18" /><path
         id="path78"
         style="fill:#201916;fill-opacity:1;fill-rule:nonzero;stroke:none"
         d="m 2109.12,705.551 h 308.46 v -101.11 h -194.55 v -73.589 h 175.35 V 435.5 h -175.35 v -76.801 h 197.11 V 257.59 h -311.02 v 447.961" /><path
         id="path80"
         style="fill:#f57516;fill-opacity:1;fill-rule:nonzero;stroke:none"
         d="m 1318.71,1000.95 c -99.36,0 -192.54,44.01 -255.75,120.81 -3.34,3.58 -6.51,5.4 -13.79,5.4 -10.22,0 -24.98,-3.79 -43.66,-8.59 l -2.11,-0.55 c -32.658,-8.36 -65.712,-12.6 -98.345,-12.6 -68.895,0 -134.016,18.75 -188.317,54.23 -79.722,52.06 -131.75,134.67 -146.5,232.63 -27.859,185.01 44.211,302.95 109.575,369.31 56.046,56.89 151.867,114.3 239.605,114.3 h 0.25 l 3.574,25.93 c -0.629,0.04 -1.25,0.09 -1.801,0.16 -8.699,1.19 -15.961,5.78 -20.461,12.95 -7.906,12.54 -4.46,28.05 -0.574,40.16 0.176,0.54 0.371,1.07 0.586,1.6 24.539,60.64 59.266,144.86 85.313,201.79 58.245,127.25 171.285,194.52 326.915,194.52 165.78,0 296,-72.62 348.32,-194.25 39.48,-91.79 101.46,-255.98 113.71,-288.61 l 0.1,-0.23 c 4.48,-11.38 4.48,-11.38 11.68,-15.41 0.76,-0.43 1.51,-0.9 2.22,-1.41 94.64,-68.24 154.29,-238.49 138.74,-396.02 -11.88,-120.39 -53.66,-210.62 -124.19,-268.18 -69.84,-56.99 -149.13,-65.5 -190.19,-65.5 -2.03,0 -4.01,0.03 -5.98,0.06 -3.74,0.11 -6.76,0.18 -9.46,0.18 -9.63,0 -9.75,0 -17.35,-9.07 -58.26,-75.39 -146.44,-113.61 -262.11,-113.61" /><path
         id="path82"
         style="fill:#9c3f1f;fill-opacity:1;fill-rule:nonzero;stroke:none"
         d="m 1789.25,1853.09 c -0.71,0.51 -1.46,0.98 -2.22,1.41 -7.2,4.03 -7.2,4.03 -11.68,15.41 l -0.1,0.23 c -1.5,3.99 -3.76,10 -6.62,17.57 l -31.72,9.7 c 10.74,0.54 19.57,1.6 26.92,2.99 -15.97,42.1 -43.62,114.37 -69.82,179.68 l -13.97,6.73 c -12.08,37.78 -24.55,80.07 -40.64,108.8 -0.54,-0.15 -0.28,-0.07 0,0 -6.58,11.8 -13.52,22.81 -20.79,33.05 -22.52,27.07 -50.08,50.17 -81.86,68.86 26.56,-24.2 51.18,-51.62 73.55,-82.75 -265.57,138.52 -487.3,52.25 -577.8,3.31 14.38,19.71 29.71,37.87 45.82,54.72 -26.24,-23.28 -51.48,-53.49 -72.94,-92.74 -15.985,-29.23 -30.814,-60.91 -43.732,-95.6 0.34,0.9 0.672,1.82 1.008,2.73 l -9.609,-4.63 c -18.289,-43.03 -37.07,-88.84 -52.055,-125.87 -0.215,-0.53 -0.41,-1.06 -0.586,-1.6 -3.886,-12.11 -7.332,-27.62 0.574,-40.16 4.5,-7.17 11.762,-11.76 20.461,-12.95 0.551,-0.07 1.172,-0.12 1.801,-0.16 l -3.574,-25.93 h -0.25 c -47.441,0 -97.23,-16.8 -141.828,-41.21 l -4.594,-3.37 -74.805,-63.21 c 5.051,0.52 10.653,0.95 17.024,1.22 l -20.84,-23.23 c 45.598,-171.05 186.988,-237.2 317.855,-260.44 l 0.19,-0.32 c 1.36,-0.16 2.85,-0.31 4.28,-0.47 31.45,-5.35 62.19,-8.28 90.79,-9.62 68.71,-8.93 145.7,-25.53 176.62,-64.85 0.64,-4.15 0.97,-8.43 0.97,-12.85 0,-80.84 25.66,-26.09 35.87,-1.08 10.22,-25.01 35.87,-79.76 35.87,1.08 0,3.34 0.25,6.58 0.62,9.77 29.25,41.53 108.39,58.77 178.86,67.93 28.59,1.34 59.34,4.27 90.78,9.62 1.44,0.16 2.93,0.31 4.29,0.47 l 0.19,0.32 c 104.25,18.52 215.16,64.28 279.03,168.6 -23.54,85.62 -66.56,159.33 -121.34,198.84" /><path
         id="path84"
         style="fill:#9c3f1f;fill-opacity:1;fill-rule:nonzero;stroke:none"
         d="m 1562.8,2312.31 c 0.33,-0.21 0.62,-0.41 0.87,-0.61 0.52,-0.41 1.06,-0.8 1.61,-1.16 54.78,-35.93 95.2,-83.54 120.14,-141.53 6.15,-14.3 13.37,-31.6 21.45,-51.41 0.22,-0.53 0.45,-1.06 0.71,-1.57 4.81,-9.66 14.21,-15.66 24.51,-15.66 6.96,0 13.64,2.87 18.49,8.04 4.84,5.25 7.28,12.36 6.93,20.11 -0.01,0.71 -0.05,1.41 -0.13,2.11 -1.6,15.53 -3.31,30.96 -5.08,45.83 -23.52,197.73 -53.55,273.93 -74.61,303.04 -0.19,0.25 -0.38,0.5 -0.57,0.75 -4.02,5.11 -13.47,17.09 -30.02,17.09 -5.22,0 -10.53,-1.14 -17.47,-3.8 -43.38,-17.2 -72.32,-83.59 -85.7,-121.63 -0.26,-0.71 -0.47,-1.43 -0.65,-2.16 l -0.28,-0.93 c -7.89,-22.56 -0.49,-43.66 19.8,-56.51" /><path
         id="path86"
         style="fill:#9c3f1f;fill-opacity:1;fill-rule:nonzero;stroke:none"
         d="m 914.563,2100.43 c 9.074,0 17.91,4.94 23.042,12.9 0.696,1.08 1.301,2.21 1.805,3.39 8.445,19.62 16.27,37.31 23.258,52.57 29.703,64.92 73.552,115.94 130.322,151.65 2.93,1.85 5.4,4.33 7.25,7.26 7.46,11.88 8.66,26.5 3.37,41.16 -0.2,0.85 -0.44,1.7 -0.73,2.55 -13.39,38.04 -42.34,104.43 -86,121.75 -6.67,2.54 -11.97,3.68 -17.185,3.68 -16.55,0 -26.019,-12.02 -30.054,-17.14 -0.2,-0.25 -0.395,-0.5 -0.575,-0.76 -21.039,-29.1 -51.054,-105.27 -74.57,-302.98 -1.762,-14.83 -3.476,-30.28 -5.094,-45.93 -0.082,-0.76 -0.117,-1.54 -0.121,-2.31 -0.281,-7.65 2.168,-14.66 6.996,-19.88 4.684,-5.03 11.352,-7.91 18.286,-7.91" /><path
         id="path88"
         style="fill:#ffffff;fill-opacity:1;fill-rule:nonzero;stroke:none"
         d="m 1043.08,1542.66 0.13,-0.38 c 1.2,-0.29 2.51,-0.6 3.77,-0.91 27.41,-8.9 54.49,-15 79.83,-19.15 74.2,-20.12 158.27,-54.38 158.27,-124.68 0,-80.84 25.66,-26.09 35.87,-1.08 10.22,-25.01 35.87,-79.76 35.87,1.08 0,70.3 84.08,104.56 158.28,124.68 25.34,4.15 52.4,10.25 79.81,19.14 1.26,0.32 2.57,0.63 3.78,0.92 l 0.14,0.38 c 101.21,33.79 205.84,106.08 242.59,258.19 -15.79,20.85 -33.28,38.61 -52.17,52.24 -0.71,0.51 -1.46,0.98 -2.22,1.41 -7.2,4.03 -7.2,4.03 -11.68,15.41 l -0.1,0.23 c -1.5,3.99 -3.76,10 -6.62,17.57 l -4.8,12.69 c 10.73,0.55 -7.35,-1.39 0,0 -15.97,42.1 -43.62,114.37 -69.82,179.68 l -14.76,7.11 c 2.64,-7.06 5.23,-14.2 7.72,-21.51 -1.39,0.3 -2.81,0.55 -4.22,0.81 0.1,-0.28 0.2,-0.54 0.29,-0.81 -8.66,1.92 -17.49,2.95 -26.34,3.12 -64.56,-0.77 -129.85,-49.95 -149.51,-167.89 -12.59,-75.53 -15.18,-180.21 -54.58,-277.48 -4.17,-11.63 -8.76,-23.07 -13.89,-34.18 0,0 -2.55,-2.61 -7.1,-6.79 -26.87,-40.81 -58.04,-56.62 -88.56,-58.77 -5.82,-5.22 -9.1,-8.07 -9.1,-8.07 l -13.01,-82.42 -13.01,82.42 c 0,0 -3.26,2.84 -9.05,8.03 -35.52,2.47 -71.93,23.49 -101.41,80.85 -47.3,102.42 -49.35,215.94 -62.76,296.41 -22.76,136.53 -106.65,180.95 -179.794,164.77 2.492,7.31 5.09,14.45 7.73,21.51 l -9.609,-4.63 c -18.289,-43.03 -37.07,-88.84 -52.055,-125.87 -0.215,-0.53 -0.41,-1.06 -0.586,-1.6 -3.886,-12.11 -7.332,-27.62 0.574,-40.16 4.5,-7.17 11.762,-11.76 20.461,-12.95 0.551,-0.07 1.172,-0.12 1.801,-0.16 l -3.574,-25.93 h -0.25 c -42.234,0 -86.332,-13.32 -126.977,-33.47 26.489,-180.84 140.61,-263.03 250.639,-299.76" /><path
         id="path90"
         style="fill:#f57516;fill-opacity:1;fill-rule:nonzero;stroke:none"
         d="m 1082.09,1134.86 c 58.8,-70.49 144.85,-110.85 236.62,-110.85 103.87,0 183.58,32.58 237.28,96.67 -275.11,-107.7 -455.58,2.25 -473.9,14.18" /><path
         id="path92"
         style="fill:#f14b26;fill-opacity:1;fill-rule:nonzero;stroke:none"
         d="m 654.695,1404.56 c -28.093,186.57 44.129,305.05 109.668,371.59 24.871,25.25 51.766,45.92 78.875,62.52 -22,28.29 -129.39,-37.25 -175.34,-83.91 -61.668,-62.61 -127.418,-198.42 -100.972,-374 13.754,-91.36 79.203,-179.72 153.332,-228.13 50.555,-33.02 130.09,-44.89 194.484,-44.89 1.676,0 -6.328,20.81 -4.644,20.84 -39.903,8.57 -77.317,23.93 -110.555,45.65 -78.781,51.44 -130.223,133.24 -144.848,230.33" /><path
         id="path94"
         style="fill:#201916;fill-opacity:1;fill-rule:nonzero;stroke:none"
         d="m 935.863,1706.98 c 19.188,-42.99 65.247,-64.2 102.877,-47.41 37.65,16.79 52.62,65.25 33.43,108.23 -19.17,42.99 -65.24,64.22 -102.885,47.41 -37.637,-16.78 -52.597,-65.25 -33.422,-108.23" /><path
         id="path96"
         style="fill:#201916;fill-opacity:1;fill-rule:nonzero;stroke:none"
         d="m 1708.61,1706.98 c -19.19,-42.99 -65.24,-64.2 -102.88,-47.41 -37.64,16.79 -52.61,65.25 -33.43,108.23 19.18,42.99 65.25,64.22 102.89,47.41 37.64,-16.78 52.59,-65.25 33.42,-108.23" /><path
         id="path98"
         style="fill:#201916;fill-opacity:1;fill-rule:nonzero;stroke:none"
         d="m 1415.42,1593.29 h -184.9 c -16.8,0 -29.02,-5.59 -34.42,-15.73 -5.4,-10.15 -3.2,-23.41 6.18,-37.33 l 76.59,-113.7 c 7.38,-13.1 8,-23.85 8.01,-33.89 l 0.04,-102.09 c -0.99,-9.09 -5.02,-19.91 -18.56,-19.91 -1.49,0 -3.1,0.13 -4.77,0.39 -1.73,0.28 -3.35,0.42 -4.86,0.46 -33.35,4.9 -63.97,15.89 -90.78,32.44 -5.27,4.44 -9.39,12.93 -5.2,23.31 6.76,13.04 12.91,26.6 18.84,41.5 2.27,6.43 4.19,13.86 1.13,20.22 -2.09,4.37 -6.33,7.7 -12.6,9.89 l -27.49,9.78 c -3.96,1.3 -7.35,1.94 -10.36,1.94 -10.2,0 -14.35,-7.49 -17.48,-14.57 -21.68,-54.71 -46.25,-88.81 -84.69,-117.6 -6.07,-3.89 -9.67,-8.48 -10.71,-13.65 -1.03,-5.15 0.54,-10.79 4.64,-16.72 l 18.12,-27.17 c 3.03,-5.37 8.24,-8.57 13.94,-8.57 3.71,0 7.41,1.27 11.02,3.82 12.68,9.19 24.02,18.59 34.48,28.56 7.6,5.59 15.96,5.09 27.47,-1.91 l 1.26,-0.58 c 49.36,-30.64 106.53,-46.17 169.93,-46.17 53.07,0 97.26,11.12 119,17.79 6.73,2.54 10.43,5.26 12.01,8.81 1.88,4.2 0.66,9.13 -2.08,16.22 l -11.97,30.7 c -2.92,6.61 -7.09,13.37 -15.89,13.37 -2.63,0 -5.54,-0.58 -8.75,-1.73 -6.17,-1.75 -12.7,-3.38 -19.06,-4.79 h -0.44 c -9.05,0 -13.09,11.67 -14.03,18.32 l -0.01,106.82 c 0.65,8.16 2.7,15.37 6.35,22.49 l 78.28,116.22 c 9.39,13.92 11.58,27.18 6.18,37.33 -5.4,10.14 -17.61,15.73 -34.42,15.73" /><path
         id="path100"
         style="fill:#201916;fill-opacity:1;fill-rule:nonzero;stroke:none"
         d="m 912.348,2128.16 c 1.64,15.85 3.343,31.18 5.054,45.57 24.145,202.97 54.473,270.22 70.356,292.19 4.922,6.25 7.933,8.35 11.937,8.35 2.265,0 5.035,-0.67 8.945,-2.16 36.72,-14.56 63.77,-83.12 72.47,-107.86 h -0.18 l 0.95,-2.66 c 2.94,-8.1 2.54,-15.2 -1.18,-21.12 -60.63,-38.14 -107.403,-92.51 -139.012,-161.58 -6.922,-15.13 -14.872,-33.07 -23.465,-53.05 -1.352,-2.1 -3.891,-3.02 -5.055,-1.78 -0.648,0.71 -0.941,2.02 -0.809,3.71 0.012,0.18 0.008,0.33 -0.011,0.39 z m 650.482,-999.15 c -53.66,-69.67 -135.8,-105 -244.12,-105 -92.65,0 -179.48,41.12 -238.31,112.86 -8.37,9.24 -18,13.36 -31.23,13.36 -13.12,0 -29.13,-4.11 -49.397,-9.31 l -2.199,-0.58 c -30.644,-7.85 -61.769,-11.85 -92.519,-11.85 -64.391,0 -125.153,17.46 -175.7,50.47 -74.136,48.42 -122.542,125.39 -136.296,216.76 -26.45,175.57 41.515,287.06 103.191,349.67 73.098,74.21 164.758,107.43 223.168,107.43 0.937,0 1.867,-0.01 2.773,-0.02 16.836,-0.48 18.024,6.46 19.696,15.31 l 5.222,37.92 c 1.411,6.76 0.922,11.15 -1.578,14.22 -2.383,2.94 -6.472,4.36 -12.508,4.36 l -0.718,-0.01 c -2.446,0.15 -4.938,0.2 -7.422,0.25 h -0.332 c -1.879,0.25 -3.199,1.02 -4.028,2.35 -2.132,3.38 -1.492,10.44 1.848,20.84 24.442,60.38 59.012,144.23 84.919,200.84 54.2,118.44 159.99,181.05 305.93,181.05 156.27,0 278.57,-67.4 327.12,-180.29 39.29,-91.34 101.36,-255.78 113.41,-287.85 l 0.18,-0.45 c 5.12,-12.99 7.46,-18.92 21.82,-26.97 88.5,-63.8 144.07,-225.05 129.28,-375.03 -11.26,-114.07 -50.23,-199.04 -115.81,-252.58 -64.29,-52.46 -137.62,-60.3 -175.61,-60.3 -1.89,0 -3.77,0.02 -5.6,0.05 -25.69,0.8 -30.65,-0.14 -45.18,-17.5 z m 2.85,1235.24 c 8.71,24.74 35.77,93.3 72.45,107.84 3.94,1.51 6.7,2.18 8.97,2.18 4,0 7.02,-2.1 11.89,-8.29 15.93,-22.03 46.26,-89.28 70.4,-292.25 1.71,-14.42 3.42,-29.75 5.04,-45.47 v -0.38 l 0.01,-0.11 c 0.13,-1.69 -0.16,-3.01 -0.83,-3.73 -1.15,-1.22 -3.94,-0.62 -5.38,2.27 -8.08,19.83 -15.36,37.27 -21.62,51.82 -26.76,62.21 -70.1,113.28 -128.67,151.7 -0.8,0.62 -1.68,1.26 -2.7,1.91 -11.4,7.22 -14.88,17.27 -10.33,29.85 l 0.81,2.66 z m 272.94,-487.99 c -8.23,8.24 -13.61,22.73 -15.96,42.92 -2.88,56.53 -9.76,167.79 -23.4,277.6 -30.49,245.42 -74.64,350.14 -147.62,350.14 -43.07,0 -103.94,-25.49 -149.65,-146.65 l -0.33,-0.77 c -2.27,-5.29 -14.7,-18.55 -30.6,-18.57 -2.19,0 -4.42,0.27 -6.59,0.77 -1.06,0.26 -2.04,0.44 -2.79,0.56 -46.17,13.14 -96.11,19.8 -148.46,19.8 -50.93,0 -98.99,-6.92 -142.84,-20.58 -13.55,2.51 -23.39,13.7 -25.24,18.02 l -0.26,0.56 c -45.71,121.35 -106.63,146.86 -149.72,146.86 -72.98,0 -117.129,-104.72 -147.617,-350.14 -11.203,-90.21 -17.824,-181.13 -21.387,-241.33 -1.707,-11.13 -8.754,-48.09 -27.761,-56.51 -0.657,-0.29 -1.25,-0.57 -1.68,-0.8 C 741.133,1875.28 687.203,1838.99 644.859,1796 541.363,1690.93 497.633,1544.96 521.719,1384.98 538.59,1273 598.32,1178.38 689.906,1118.55 c 62.832,-41.02 137.25,-62.7 215.227,-62.7 34.254,0 68.699,4.23 102.247,12.56 19.37,3.27 35.84,-0.59 48.52,-11.37 0.32,-0.26 0.64,-0.5 0.96,-0.74 l 0.37,-0.27 c 70.64,-67.151 163.5,-104.151 261.48,-104.151 120.79,0 215.28,36.59 280.9,108.781 10.25,11.83 18.09,13.92 30.75,13.92 1.31,0 2.67,-0.03 4.17,-0.04 112.36,3.91 192.81,67.88 240.51,120.86 56.15,62.37 91.35,151.19 101.78,256.86 16.36,165.95 -39.2,336.38 -138.2,424" /></g></g></svg>