<?xml version="1.0" encoding="UTF-8" standalone="no"?>
<svg
   xmlns:dc="http://purl.org/dc/elements/1.1/"
   xmlns:cc="http://creativecommons.org/ns#"
   xmlns:rdf="http://www.w3.org/1999/02/22-rdf-syntax-ns#"
   xmlns:svg="http://www.w3.org/2000/svg"
   xmlns="http://www.w3.org/2000/svg"
   viewBox="0 0 408.82666 343.06668"
   height="343.06668"
   width="408.82666"
   xml:space="preserve"
   id="svg2"
   version="1.1"><metadata
     id="metadata8"><rdf:RDF><cc:Work
         rdf:about=""><dc:format>image/svg+xml</dc:format><dc:type
           rdf:resource="http://purl.org/dc/dcmitype/StillImage" /></cc:Work></rdf:RDF></metadata><defs
     id="defs6" /><g
     transform="matrix(1.3333333,0,0,-1.3333333,0,343.06667)"
     id="g10"><g
       transform="scale(0.1)"
       id="g12"><path
         id="path14"
         style="fill:#34a33f;fill-opacity:1;fill-rule:nonzero;stroke:none"
         d="m 334.164,78.7891 c 0,8.25 -3.016,12.6992 -8.578,12.6992 -14.137,0 -23.508,-26.3594 -23.508,-39.2383 0,-9.3594 3.336,-14.1289 9.215,-14.1289 12.867,0 22.871,27.8008 22.871,40.668 z m 12.231,-27.3282 c -1.266,-4.1328 -1.747,-6.9921 -1.747,-9.0507 0,-2.6993 1.27,-4.1289 3.653,-4.1289 3.496,0 6.992,5.3984 10.644,16.039 l 7.621,-2.3789 c -6.191,-19.3828 -14.769,-26.5312 -24.457,-26.5312 -7.464,0 -13.027,4.7617 -13.027,13.9804 0,1.1211 0,1.9102 0.16,3.5 l -1.113,0.4688 c -6.035,-11.918 -15.094,-17.9492 -24.145,-17.9492 -13.664,0 -21.129,11.2812 -21.129,25.2617 0,16.1992 6.516,30.6601 15.094,39.0664 7.465,7.6328 15.883,12.0707 24.781,12.0707 8.895,0 13.973,-6.1879 15.407,-13.3285 l 3.176,12.2185 h 18.105 L 346.395,51.4609" /><path
         id="path16"
         style="fill:#34a33f;fill-opacity:1;fill-rule:nonzero;stroke:none"
         d="m 446.148,38.2813 c 3.332,0 6.672,5.0781 10.961,16.039 l 7.465,-2.3789 c -6.351,-19.2226 -15.25,-26.5312 -24.301,-26.5312 -8.578,0 -14.14,5.5703 -14.14,14.7695 0,15.8906 10.484,31.6211 10.484,42.4219 0,3.6484 -1.59,5.2382 -4.289,5.2382 -7.305,0 -20.965,-12.0703 -33.676,-60.8398 h -19.058 l 13.66,51.4688 c 2.383,9.0507 1.906,11.5898 -0.953,11.5898 -3.653,0 -7.785,-6.8281 -12.391,-16.668 l -7.465,3.168 c 6.832,15.8828 14.774,25.1014 25.414,25.1014 6.832,0 11.598,-4.9217 11.598,-14.7811 0,-4.6094 -0.957,-10.3203 -3.34,-17.6172 l 1.113,-0.4804 c 10.485,22.3906 22.239,33.0277 33.516,33.0277 8.899,0 14.457,-6.9887 14.457,-16.5199 0,-13.4883 -11.758,-33.8282 -11.758,-43.5078 0,-2.3907 0.953,-3.5 2.703,-3.5" /><path
         id="path18"
         style="fill:#34a33f;fill-opacity:1;fill-rule:nonzero;stroke:none"
         d="m 525.406,63.3789 c 0,-18.4297 9.051,-27.3281 23.985,-27.3281 25.89,0 36.375,38.6094 36.375,59.0976 0,18.4216 -9.211,27.3206 -23.985,27.3206 -26.051,0 -36.375,-38.5979 -36.375,-59.0901 z m 37.168,70.6801 c 26.055,0 44.321,-18.579 44.321,-45.9106 0,-30.6484 -23.032,-63.6875 -58.297,-63.6875 -26.047,0 -44.477,18.5899 -44.477,45.9102 0,30.6489 23.031,63.6879 58.453,63.6879" /><path
         id="path20"
         style="fill:#34a33f;fill-opacity:1;fill-rule:nonzero;stroke:none"
         d="m 644.375,49.8711 c 0,-7.7813 3.336,-13.1797 10.32,-13.1797 14.137,0 22.082,26.6875 22.082,39.2383 0,8.8906 -2.859,13.4922 -8.734,13.4922 -12.711,0 -23.668,-25.5625 -23.668,-39.5508 z m -12.867,38.7578 c -3.656,0 -6.512,-4.6094 -11.598,-15.2383 l -7.465,3.168 c 7.621,17.4727 15.09,25.1014 25.098,25.1014 7.148,0 11.914,-5.2498 11.914,-14.3006 0,-1.1094 -0.16,-2.5391 -0.32,-3.9688 l 1.273,-0.4687 c 6.035,12.539 15.723,18.8871 24.461,18.8871 13.344,0 20.969,-10.9496 20.969,-25.7309 0,-25.5664 -17.633,-49.2383 -37.172,-49.2383 -8.418,0 -15.09,4.2891 -18.105,10.6485 l -6.352,-23.668 h 14.926 L 645.961,2.05859 h -43.996 l 3.172,11.76171 h 10.801 l 16.839,62.8985 c 2.383,8.8906 1.586,11.9101 -1.269,11.9101" /><path
         id="path22"
         style="fill:#34a33f;fill-opacity:1;fill-rule:nonzero;stroke:none"
         d="m 725.375,64.3203 c 22.082,2.3906 30.184,10.9688 30.184,20.8203 0,4.4492 -2.539,7.9297 -7.305,7.9297 -11.121,0 -19.539,-15.082 -22.879,-28.75 z m -1.426,-7.4609 c -0.16,-1.2696 -0.16,-2.5391 -0.16,-3.6485 0,-13.1796 6.832,-17.3125 14.77,-17.3125 7.789,0 15.574,5.2422 22.242,14.6133 l 6.672,-4.7734 C 759.371,34.1484 749.52,25.4102 732.688,25.4102 c -16.364,0 -27.801,11.4296 -27.801,28.9101 0,24.4688 21.129,47.4887 46.066,47.4887 13.66,0 21.281,-6.8207 21.281,-16.5199 0,-14.2891 -14.929,-26.5196 -48.285,-28.4297" /><path
         id="path24"
         style="fill:#34a33f;fill-opacity:1;fill-rule:nonzero;stroke:none"
         d="m 854.039,38.2813 c 3.332,0 6.676,5.0781 10.961,16.039 l 7.465,-2.3789 c -6.352,-19.2226 -15.246,-26.5312 -24.301,-26.5312 -8.578,0 -14.141,5.5703 -14.141,14.7695 0,15.8906 10.485,31.6211 10.485,42.4219 0,3.6484 -1.586,5.2382 -4.289,5.2382 -7.305,0 -20.965,-12.0703 -33.676,-60.8398 h -19.059 l 13.661,51.4688 c 2.378,9.0507 1.906,11.5898 -0.954,11.5898 -3.652,0 -7.785,-6.8281 -12.386,-16.668 l -7.469,3.168 c 6.832,15.8828 14.769,25.1014 25.418,25.1014 6.828,0 11.594,-4.9217 11.594,-14.7811 0,-4.6094 -0.957,-10.3203 -3.34,-17.6172 l 1.113,-0.4804 c 10.484,22.3906 22.238,33.0277 33.516,33.0277 8.898,0 14.461,-6.9887 14.461,-16.5199 0,-13.4883 -11.758,-33.8282 -11.758,-43.5078 0,-2.3907 0.949,-3.5 2.699,-3.5" /><path
         id="path26"
         style="fill:#34a33f;fill-opacity:1;fill-rule:nonzero;stroke:none"
         d="m 888.98,64.1719 h 11.278 c 3.019,-19.0625 14.137,-28.4336 28.117,-28.4336 12.547,0 19.852,7.9414 19.852,16.2031 0,9.207 -10.485,13.5 -21.762,18.7383 -13.184,5.8789 -27.637,12.8711 -27.637,29.7113 0,17.781 16.043,33.668 37.168,33.668 11.277,0 21.762,-4.61 27.008,-12.071 l 6.508,11.59 h 11.914 l -9.371,-37.6366 h -11.117 c -3.336,19.6876 -11.282,26.9996 -24.942,26.9996 -10.32,0 -17.633,-7.461 -17.633,-15.722 0,-10.0081 10.801,-14.2971 22.242,-19.3792 13.024,-5.5703 27,-12.2382 27,-28.9179 0,-19.5313 -17.312,-34.461 -39.074,-34.461 -13.82,0 -24.14,5.0782 -30.179,12.711 l -6.989,-12.2305 h -11.914 l 9.531,39.2305" /><path
         id="path28"
         style="fill:#34a33f;fill-opacity:1;fill-rule:nonzero;stroke:none"
         d="M 1019.7,88.7891 1010.17,54 c -1.11,-3.9609 -1.9,-7.6211 -1.9,-9.5312 0,-4.2891 2.22,-5.7071 5.56,-5.7071 5.72,0 10.48,6.9766 14.92,17.1485 l 7.63,-2.5391 c -7.78,-22.5625 -20.01,-27.9609 -28.59,-27.9609 -10.485,0 -17.95,5.2382 -17.95,16.039 0,4.6094 1.746,11.2813 2.859,15.7305 l 8.581,31.6094 h -13.979 l 2.539,9.6914 h 13.98 l 5.24,19.0585 18.9,2.07 -5.71,-21.1285 h 22.55 l -2.54,-9.6914 h -22.56" /><path
         id="path30"
         style="fill:#34a33f;fill-opacity:1;fill-rule:nonzero;stroke:none"
         d="m 1100.07,78.7891 c 0,8.25 -3.01,12.6992 -8.58,12.6992 -14.13,0 -23.5,-26.3594 -23.5,-39.2383 0,-9.3594 3.33,-14.1289 9.21,-14.1289 12.87,0 22.87,27.8008 22.87,40.668 z m 12.23,-27.3282 c -1.26,-4.1328 -1.74,-6.9921 -1.74,-9.0507 0,-2.6993 1.27,-4.1289 3.65,-4.1289 3.5,0 6.99,5.3984 10.64,16.039 l 7.63,-2.3789 c -6.2,-19.3828 -14.77,-26.5312 -24.46,-26.5312 -7.47,0 -13.03,4.7617 -13.03,13.9804 0,1.1211 0,1.9102 0.16,3.5 l -1.11,0.4688 c -6.04,-11.918 -15.09,-17.9492 -24.15,-17.9492 -13.66,0 -21.13,11.2812 -21.13,25.2617 0,16.1992 6.52,30.6601 15.1,39.0664 7.46,7.6328 15.88,12.0707 24.78,12.0707 8.89,0 13.97,-6.1879 15.4,-13.3285 l 3.18,12.2185 h 18.11 L 1112.3,51.4609" /><path
         id="path32"
         style="fill:#34a33f;fill-opacity:1;fill-rule:nonzero;stroke:none"
         d="m 1205.22,83.0703 c 0,-6.832 -4.28,-13.6601 -11.11,-13.6601 -5.72,0 -9.37,3.8086 -9.37,8.5781 0,4.4531 2.7,8.1015 6.51,10.8008 -1.27,2.2226 -3.97,3.9726 -8.74,3.9726 -15.88,0 -25.25,-24.3008 -25.25,-38.1211 0,-13.6601 7.3,-17.9492 14.45,-17.9492 7.3,0 14.3,5.2383 20.65,15.0899 l 6.83,-4.6016 c -6.83,-11.918 -16.2,-21.7695 -31.77,-21.7695 -17.47,0 -29.23,11.9101 -29.23,29.2304 0,24.7813 21.29,47.1684 44,47.1684 13.35,0 23.03,-7.4574 23.03,-18.7387" /><path
         id="path34"
         style="fill:#34a33f;fill-opacity:1;fill-rule:nonzero;stroke:none"
         d="m 1272.57,38.2813 c 3.5,0 6.52,5.0781 10.65,16.039 l 7.46,-2.3789 c -6.03,-19.2226 -14.29,-26.5312 -23.51,-26.5312 -8.89,0 -14.77,5.8789 -14.77,16.1992 0,4.4492 1.75,10.8008 1.75,14.3008 0,5.8789 -2.54,7.3086 -14.14,7.3086 h -0.32 L 1230,27 h -17.94 l 25.73,97.051 h -13.19 l 3.18,12.39 h 31.61 L 1241.6,70.3711 h 0.79 c 8.42,0 11.92,4.7578 18.91,16.3594 5.24,8.5703 10.48,15.0785 19.85,15.0785 7.62,0 11.76,-4.7582 11.76,-11.5902 0,-6.668 -4.29,-13.3477 -10.81,-13.3477 -6.35,0 -9.68,5.5703 -7.46,12.0781 -2.22,-0.4687 -4.61,-3.1797 -8.26,-9.2187 -3.18,-5.8711 -5.72,-9.1992 -10.49,-11.7422 11.28,-0.957 14.94,-5.8789 14.94,-13.3477 0,-4.6015 -1.27,-9.2109 -1.27,-12.0703 0,-3.1797 1.27,-4.289 3.01,-4.289" /><path
         id="path36"
         style="fill:#34a33f;fill-opacity:1;fill-rule:nonzero;stroke:none"
         d="m 1359.45,68.7813 c 0,31.9177 23.51,65.2777 58.46,65.2777 13.18,0 23.03,-4.758 28.43,-12.86 l 6.51,12.379 h 12.23 L 1454.92,92.2813 H 1443 c -1.58,22.8667 -11.59,30.1877 -24.46,30.1877 -28.11,0 -37.8,-37.8088 -37.8,-55.2776 0,-21.1328 10.8,-30.0195 24.62,-30.0195 16.84,0 26.69,12.6992 34.63,31.4492 l 11.27,-3.9727 c -7.94,-22.2382 -22.71,-40.1875 -48.13,-40.1875 -29.22,0 -43.68,18.5899 -43.68,44.3204" /><path
         id="path38"
         style="fill:#34a33f;fill-opacity:1;fill-rule:nonzero;stroke:none"
         d="m 1503.68,93.0703 c -14.77,0 -23.19,-28.8984 -23.19,-44.3086 0,-10.1719 4.29,-14.4531 11.12,-14.4531 14.77,0 23.19,28.9102 23.19,44.3125 0,10.168 -4.29,14.4492 -11.12,14.4492 z m 30.02,-21.9101 c 0,-24.7813 -19.85,-45.75 -41.93,-45.75 -18.27,0 -30.18,12.8711 -30.18,30.8203 0,24.7695 19.85,45.5785 41.93,45.5785 18.27,0 30.18,-12.6996 30.18,-30.6488" /><path
         id="path40"
         style="fill:#34a33f;fill-opacity:1;fill-rule:nonzero;stroke:none"
         d="m 1636.94,40.1797 c 0,15.8906 10.49,31.6211 10.49,42.4219 0,3.6484 -1.59,5.2382 -4.29,5.2382 -6.99,0 -20.81,-12.0703 -33.52,-60.8398 h -18.74 L 1602,68.9297 c 1.43,5.25 2.22,9.0586 2.22,12.0703 0,3.8203 -1.27,6.8398 -4.76,6.8398 -7.31,0 -20.97,-12.0703 -33.68,-60.8398 h -19.06 l 13.66,51.4688 c 2.38,9.0507 1.91,11.5898 -0.95,11.5898 -3.65,0 -7.78,-6.8281 -12.39,-16.668 l -7.46,3.168 c 6.83,15.8828 14.77,25.1014 25.41,25.1014 6.83,0 11.6,-4.9217 11.6,-14.7811 0,-4.6094 -0.96,-10.3203 -3.34,-17.6172 l 1.11,-0.4804 c 10.48,22.3906 22.24,33.0277 33.04,33.0277 8.74,0 13.34,-5.8676 13.34,-15.4106 0,-4.4375 -1.27,-9.8398 -3.65,-17.1367 l 1.11,-0.4804 c 10.49,22.3906 22.24,33.0277 33.52,33.0277 8.73,0 14.3,-6.9887 14.3,-16.5199 0,-13.4883 -11.76,-33.8282 -11.76,-43.5078 0,-2.3907 0.95,-3.5 2.7,-3.5 3.34,0 6.67,5.0781 10.96,16.039 l 7.47,-2.3789 c -6.36,-19.2226 -15.25,-26.5312 -24.31,-26.5312 -8.58,0 -14.14,5.5703 -14.14,14.7695" /><path
         id="path42"
         style="fill:#34a33f;fill-opacity:1;fill-rule:nonzero;stroke:none"
         d="m 1776.25,40.1797 c 0,15.8906 10.48,31.6211 10.48,42.4219 0,3.6484 -1.59,5.2382 -4.28,5.2382 -7,0 -20.81,-12.0703 -33.52,-60.8398 h -18.75 l 11.12,41.9297 c 1.43,5.25 2.22,9.0586 2.22,12.0703 0,3.8203 -1.27,6.8398 -4.76,6.8398 -7.31,0 -20.97,-12.0703 -33.68,-60.8398 h -19.06 l 13.66,51.4688 c 2.39,9.0507 1.91,11.5898 -0.94,11.5898 -3.67,0 -7.79,-6.8281 -12.4,-16.668 l -7.46,3.168 c 6.83,15.8828 14.77,25.1014 25.41,25.1014 6.83,0 11.59,-4.9217 11.59,-14.7811 0,-4.6094 -0.94,-10.3203 -3.33,-17.6172 l 1.12,-0.4804 c 10.48,22.3906 22.23,33.0277 33.03,33.0277 8.73,0 13.34,-5.8676 13.34,-15.4106 0,-4.4375 -1.27,-9.8398 -3.65,-17.1367 l 1.11,-0.4804 c 10.48,22.3906 22.24,33.0277 33.52,33.0277 8.74,0 14.3,-6.9887 14.3,-16.5199 0,-13.4883 -11.76,-33.8282 -11.76,-43.5078 0,-2.3907 0.96,-3.5 2.7,-3.5 3.33,0 6.67,5.0781 10.96,16.039 l 7.47,-2.3789 c -6.36,-19.2226 -15.25,-26.5312 -24.3,-26.5312 -8.58,0 -14.14,5.5703 -14.14,14.7695" /><path
         id="path44"
         style="fill:#34a33f;fill-opacity:1;fill-rule:nonzero;stroke:none"
         d="m 1873.94,40.3398 c 0,3.9688 0.95,10.0118 3.49,18.1211 l -1.11,0.461 c -10.49,-23.0235 -21.61,-33.5117 -33.04,-33.5117 -8.73,0 -14.46,6.8281 -14.46,16.6796 0,13.3516 11.28,34.4688 11.28,43.5196 0,2.2304 -0.95,3.3398 -2.38,3.3398 -3.34,0 -6.04,-3.4883 -11.76,-15.4101 l -7.46,3.1797 c 6.51,15.7226 14.93,25.0902 25.89,25.0902 8.42,0 13.35,-5.2387 13.35,-14.4496 0,-14.7696 -10.49,-31.6094 -10.49,-41.7774 0,-4.4414 1.75,-6.1914 4.44,-6.1914 7.15,0 20.34,11.75 33.36,61.3084 h 19.07 l -13.03,-49.2381 c -1.27,-4.2812 -1.75,-6.9921 -1.75,-9.0507 0,-2.6993 1.44,-4.1289 3.65,-4.1289 3.67,0 7,5.3984 10.65,16.039 l 7.62,-2.3789 c -6.19,-19.3828 -14.77,-26.5312 -23.82,-26.5312 -8.27,0 -13.5,4.6093 -13.5,14.9296" /><path
         id="path46"
         style="fill:#34a33f;fill-opacity:1;fill-rule:nonzero;stroke:none"
         d="m 1987.19,38.2813 c 3.33,0 6.67,5.0781 10.96,16.039 l 7.46,-2.3789 c -6.35,-19.2226 -15.24,-26.5312 -24.3,-26.5312 -8.58,0 -14.14,5.5703 -14.14,14.7695 0,15.8906 10.49,31.6211 10.49,42.4219 0,3.6484 -1.59,5.2382 -4.29,5.2382 -7.31,0 -20.97,-12.0703 -33.68,-60.8398 h -19.06 l 13.66,51.4688 c 2.38,9.0507 1.91,11.5898 -0.95,11.5898 -3.66,0 -7.78,-6.8281 -12.39,-16.668 l -7.47,3.168 c 6.84,15.8828 14.78,25.1014 25.42,25.1014 6.83,0 11.59,-4.9217 11.59,-14.7811 0,-4.6094 -0.94,-10.3203 -3.33,-17.6172 l 1.12,-0.4804 c 10.47,22.3906 22.23,33.0277 33.51,33.0277 8.89,0 14.46,-6.9887 14.46,-16.5199 0,-13.4883 -11.76,-33.8282 -11.76,-43.5078 0,-2.3907 0.95,-3.5 2.7,-3.5" /><path
         id="path48"
         style="fill:#34a33f;fill-opacity:1;fill-rule:nonzero;stroke:none"
         d="m 2045.63,112.941 c -5.56,0 -9.84,3.809 -9.84,10.161 0,6.519 4.92,13.98 13.34,13.98 6.03,0 10.16,-3.812 10.16,-10.172 0,-6.351 -5.23,-13.969 -13.66,-13.969 z m -7.62,-70.8512 c 0,-2.6992 1.12,-3.8085 3.18,-3.8085 3.01,0 6.51,4.289 11.28,16.039 l 7.46,-2.3789 c -6.19,-18.75 -15.09,-26.5312 -25.26,-26.5312 -8.26,0 -14.29,5.3984 -14.29,14.9296 0,15.1016 13.18,36.379 13.18,46.2305 0,2.5391 -0.95,3.4883 -2.38,3.4883 -4.45,0 -8.42,-6.8281 -12.86,-16.668 l -7.63,3.168 c 6.82,15.8828 15.25,25.2504 26.05,25.2504 8.26,0 14.13,-5.8676 14.13,-16.0395 0,-12.3789 -12.86,-34.4609 -12.86,-43.6797" /><path
         id="path50"
         style="fill:#34a33f;fill-opacity:1;fill-rule:nonzero;stroke:none"
         d="M 2101.7,88.7891 2092.17,54 c -1.11,-3.9609 -1.91,-7.6211 -1.91,-9.5312 0,-4.2891 2.23,-5.7071 5.57,-5.7071 5.71,0 10.47,6.9766 14.93,17.1485 l 7.62,-2.5391 c -7.79,-22.5625 -20.02,-27.9609 -28.59,-27.9609 -10.49,0 -17.95,5.2382 -17.95,16.039 0,4.6094 1.75,11.2813 2.85,15.7305 l 8.59,31.6094 h -13.99 l 2.55,9.6914 h 13.98 l 5.24,19.0585 18.9,2.07 -5.72,-21.1285 h 22.56 l -2.55,-9.6914 h -22.55" /><path
         id="path52"
         style="fill:#34a33f;fill-opacity:1;fill-rule:nonzero;stroke:none"
         d="m 2164.29,88 c 0,-14.6094 -9.22,-28.9102 -9.22,-38.1289 0,-3.9609 1.75,-5.5625 5.25,-5.5625 8.42,0 19.69,9.543 31.76,56.3904 h 17.8 L 2195.26,39.3906 C 2188.43,10.1602 2172.39,0 2152.53,0 c -11.12,0 -24.46,3.01953 -24.46,14.7695 0,5.0821 3.81,11.4414 10.96,11.4414 6.36,0 9.53,-4.4492 9.22,-9.6992 -0.17,-2.5429 -1.59,-5.4023 -3.19,-6.82029 1.92,-0.64063 4.3,-1.1211 7.32,-1.1211 12.38,0 20.8,10.00779 26.2,32.08989 l 3.18,12.5507 -0.95,0.4805 c -9.21,-16.8516 -19.07,-23.043 -28.28,-23.043 -10.48,0 -15.72,7.3125 -15.72,16.5313 0,12.2187 10.17,29.3789 10.17,38.4297 0,2.0625 -0.96,3.3398 -2.39,3.3398 -3.97,0 -7.78,-6.5078 -12.08,-15.5586 l -7.46,3.168 c 7,15.8828 15.73,25.2504 26.21,25.2504 8.1,0 13.03,-5.3988 13.03,-13.809" /><path
         id="path54"
         style="fill:#34a33f;fill-opacity:1;fill-rule:nonzero;stroke:none"
         d="m 2294.21,80.0586 c 20.34,0 27.48,12.7031 27.48,24.9294 0,9.223 -5.56,14.774 -21.28,14.774 h -6.83 l -9.85,-39.7034 z M 2273.4,38.9102 h 17.32 L 2288.01,27 h -53.37 l 2.71,11.9102 h 16.03 l 20.02,80.6988 h -16.2 l 3.02,11.911 h 43.99 c 28.76,0 39.72,-11.758 39.72,-26.692 0,-15.8788 -10.96,-36.0467 -50.35,-36.0467 h -12.72 l -7.46,-29.8711" /><path
         id="path56"
         style="fill:#34a33f;fill-opacity:1;fill-rule:nonzero;stroke:none"
         d="m 2368.71,78.4688 c 2.38,9.0507 1.9,11.5898 -0.95,11.5898 -3.66,0 -7.78,-6.8281 -12.39,-16.668 l -7.47,3.168 c 6.83,15.8828 14.77,25.1014 25.42,25.1014 6.82,0 11.59,-4.9217 11.59,-14.7811 0,-4.6094 -0.95,-10.1601 -3.18,-17.1484 l 1.27,-0.4688 c 9.21,20.9571 16.84,32.5473 27.96,32.5473 6.67,0 11.59,-4.5981 11.59,-12.0707 0,-7.9297 -5.07,-14.2891 -11.43,-14.2891 -5.56,0 -9.85,3.6524 -9.53,10.3203 C 2396.98,83.8711 2385.54,70.3711 2374.11,27 h -19.07 l 13.67,51.4688" /><path
         id="path58"
         style="fill:#34a33f;fill-opacity:1;fill-rule:nonzero;stroke:none"
         d="m 2467.98,93.0703 c -14.77,0 -23.19,-28.8984 -23.19,-44.3086 0,-10.1719 4.29,-14.4531 11.12,-14.4531 14.77,0 23.19,28.9102 23.19,44.3125 0,10.168 -4.29,14.4492 -11.12,14.4492 z M 2498,71.1602 c 0,-24.7813 -19.85,-45.75 -41.93,-45.75 -18.27,0 -30.19,12.8711 -30.19,30.8203 0,24.7695 19.87,45.5785 41.95,45.5785 18.26,0 30.17,-12.6996 30.17,-30.6488" /><path
         id="path60"
         style="fill:#34a33f;fill-opacity:1;fill-rule:nonzero;stroke:none"
         d="m 2546.76,112.941 c -5.55,0 -9.84,3.809 -9.84,10.161 0,6.519 5.09,13.98 13.34,13.98 6.03,0 10.16,-3.812 10.16,-10.172 0,-6.351 -5.23,-13.969 -13.66,-13.969 z m 3.03,-39.7222 -10.01,-37.9571 C 2533.11,10.0117 2520.72,0 2506.1,0 c -11.11,0 -15.88,5.23828 -15.88,11.2813 0,5.8789 4.29,11.2773 10.48,11.2773 5.4,0 8.26,-3.9805 8.26,-8.1094 0,-3.3398 -1.27,-6.02732 -2.54,-7.62889 6.83,-0.14843 9.53,3.98049 15.41,26.69139 l 10.48,40.1875 c 0.96,3.8125 2.38,9.3711 2.38,12.6992 0,2.8711 -1.27,3.6602 -2.69,3.6602 -3.82,0 -7.95,-6.8281 -12.55,-16.668 l -7.47,3.168 c 6.83,15.8828 15.1,25.2504 26.21,25.2504 8.1,0 13.82,-6.1879 13.82,-15.0785 0,-3.6602 -0.79,-8.1094 -2.22,-13.5117" /><path
         id="path62"
         style="fill:#34a33f;fill-opacity:1;fill-rule:nonzero;stroke:none"
         d="m 2585.52,64.3203 c 22.08,2.3906 30.18,10.9688 30.18,20.8203 0,4.4492 -2.54,7.9297 -7.31,7.9297 -11.12,0 -19.54,-15.082 -22.87,-28.75 z m -1.43,-7.4609 c -0.16,-1.2696 -0.16,-2.5391 -0.16,-3.6485 0,-13.1796 6.83,-17.3125 14.78,-17.3125 7.78,0 15.56,5.2422 22.23,14.6133 l 6.67,-4.7734 c -8.09,-11.5899 -17.95,-20.3281 -34.78,-20.3281 -16.36,0 -27.81,11.4296 -27.81,28.9101 0,24.4688 21.14,47.4887 46.07,47.4887 13.66,0 21.29,-6.8207 21.29,-16.5199 0,-14.2891 -14.93,-26.5196 -48.29,-28.4297" /><path
         id="path64"
         style="fill:#34a33f;fill-opacity:1;fill-rule:nonzero;stroke:none"
         d="m 2708.94,83.0703 c 0,-6.832 -4.3,-13.6601 -11.12,-13.6601 -5.73,0 -9.38,3.8086 -9.38,8.5781 0,4.4531 2.71,8.1015 6.52,10.8008 -1.27,2.2226 -3.97,3.9726 -8.73,3.9726 -15.89,0 -25.27,-24.3008 -25.27,-38.1211 0,-13.6601 7.32,-17.9492 14.46,-17.9492 7.31,0 14.29,5.2383 20.65,15.0899 l 6.83,-4.6016 c -6.83,-11.918 -16.21,-21.7695 -31.77,-21.7695 -17.47,0 -29.23,11.9101 -29.23,29.2304 0,24.7813 21.29,47.1684 44,47.1684 13.34,0 23.04,-7.4574 23.04,-18.7387" /><path
         id="path66"
         style="fill:#34a33f;fill-opacity:1;fill-rule:nonzero;stroke:none"
         d="M 2753.26,88.7891 2743.73,54 c -1.12,-3.9609 -1.92,-7.6211 -1.92,-9.5312 0,-4.2891 2.23,-5.7071 5.57,-5.7071 5.71,0 10.48,6.9766 14.93,17.1485 l 7.62,-2.5391 c -7.79,-22.5625 -20.01,-27.9609 -28.59,-27.9609 -10.49,0 -17.95,5.2382 -17.95,16.039 0,4.6094 1.75,11.2813 2.86,15.7305 l 8.58,31.6094 h -13.99 l 2.55,9.6914 h 13.98 l 5.24,19.0585 18.9,2.07 -5.71,-21.1285 h 22.55 l -2.54,-9.6914 h -22.55" /><path
         id="path68"
         style="fill:#201916;fill-opacity:1;fill-rule:nonzero;stroke:none"
         d="m 0,705.559 h 115.191 v -177.27 l 123.516,177.27 H 371.176 L 232.305,514.852 375.652,257.59 H 241.266 l -90.235,163.18 -35.84,-46.711 V 257.59 H 0 v 447.969" /><path
         id="path70"
         style="fill:#201916;fill-opacity:1;fill-rule:nonzero;stroke:none"
         d="M 420.473,705.559 H 728.93 V 604.441 H 534.387 V 530.852 H 709.73 V 435.5 H 534.387 V 358.699 H 731.492 V 257.59 H 420.473 v 447.969" /><path
         id="path72"
         style="fill:#201916;fill-opacity:1;fill-rule:nonzero;stroke:none"
         d="M 894.703,425.25 750.715,705.559 h 127.348 l 74.875,-161.918 75.512,161.918 h 125.43 L 1009.89,426.531 V 257.59 H 894.703 v 167.66" /><path
         id="path74"
         style="fill:#201916;fill-opacity:1;fill-rule:nonzero;stroke:none"
         d="m 1134.71,317.102 61.44,83.839 c 36.48,-30.082 78.07,-50.562 121.59,-50.562 30.72,0 46.72,13.441 46.72,32.641 v 0.64 c 0,17.922 -13.44,28.801 -65.92,47.352 -84.47,28.797 -143.99,59.519 -143.99,140.797 v 1.91 c 0,81.281 62.08,138.23 159.99,138.23 60.15,0 113.27,-16.64 159.99,-54.39 l -58.24,-85.75 c -30.71,23.671 -67.83,40.953 -104.31,40.953 -26.24,0 -40.96,-12.801 -40.96,-29.442 v -0.64 c 0,-19.84 14.08,-30.071 71.04,-51.2 85.11,-27.511 138.23,-62.07 138.23,-138.218 v -1.282 c 0,-87.039 -67.2,-140.789 -163.19,-140.789 -66.56,0 -129.91,20.481 -182.39,65.911" /><path
         id="path76"
         style="fill:#201916;fill-opacity:1;fill-rule:nonzero;stroke:none"
         d="m 1607.66,601.879 h -110.72 v 103.68 h 336.62 V 601.879 H 1722.85 V 257.59 h -115.19 v 344.289" /><path
         id="path78"
         style="fill:#201916;fill-opacity:1;fill-rule:nonzero;stroke:none"
         d="m 2147.16,477.73 v 7.04 c 0,77.441 -37.12,124.789 -90.23,124.789 -53.12,0 -89.59,-46.719 -89.59,-124.149 v -7.039 c 0,-77.43 37.12,-124.793 90.23,-124.793 53.75,0 89.59,46.711 89.59,124.152 z m -297.58,-1.281 v 9.602 c 0,133.75 87.68,227.828 207.99,227.828 120.95,0 207.35,-92.801 207.35,-227.188 v -9.601 c 0,-133.75 -87.68,-227.82 -207.99,-227.82 -120.95,0 -207.35,92.789 -207.35,227.179" /><path
         id="path80"
         style="fill:#201916;fill-opacity:1;fill-rule:nonzero;stroke:none"
         d="m 2318.71,705.559 h 108.14 l 149.11,-225.27 v 225.27 h 113.27 V 257.59 H 2586.84 L 2431.98,492.449 V 257.59 h -113.27 v 447.969" /><path
         id="path82"
         style="fill:#201916;fill-opacity:1;fill-rule:nonzero;stroke:none"
         d="m 2755.18,705.559 h 308.46 V 604.441 h -194.55 v -73.589 h 175.35 V 435.5 H 2869.09 V 358.699 H 3066.2 V 257.59 h -311.02 v 447.969" /><path
         id="path84"
         style="fill:#9ed51e;fill-opacity:1;fill-rule:nonzero;stroke:none"
         d="m 785.129,2018.54 c -12.484,0 -24.094,6.7 -30.301,17.5 -6.207,10.79 -6.168,24.19 0.106,34.96 60.183,102.6 171.461,166.3 290.456,166.3 84.41,0 165.19,-31.51 227.47,-88.72 8.45,-7.79 12.58,-19.2 11.05,-30.55 -1.51,-11.2 -8.4,-20.98 -18.42,-26.15 0,0 -132.12,-69.55 -132.26,-69.61 -4.88,-2.45 -10.37,-3.73 -15.87,-3.73 H 785.129" /><path
         id="path86"
         style="fill:#9ed51e;fill-opacity:1;fill-rule:nonzero;stroke:none"
         d="m 1176.55,1030.79 c -13.68,0 -26.16,8.06 -31.79,20.54 -49.39,108.06 -37.68,235.7 30.6,333.02 20.42,29.13 45.35,54.88 74.1,76.51 6.17,4.53 13.23,6.84 20.63,6.84 11.47,0 22.23,-5.63 28.79,-15.06 25.57,-36.95 53.9,-72.33 84.24,-105.19 11.11,-12.16 12.31,-30.51 2.92,-43.73 l -180.98,-258.04 c -6.37,-9.27 -17.07,-14.89 -28.5,-14.89 h -0.01" /><path
         id="path88"
         style="fill:#9ed51e;fill-opacity:1;fill-rule:nonzero;stroke:none"
         d="m 1854.99,1030.79 c -11.36,0 -22.06,5.56 -28.6,14.88 l -171.74,244.96 c -9.52,13.75 -8.01,32.27 3.51,44.14 32.08,33.66 62,69.73 88.78,107.05 6.41,9.15 17.1,14.72 28.45,14.72 8.02,0 15.84,-2.85 21.98,-8.02 22.32,-18.8 42.11,-40.38 58.82,-64.15 68.25,-97.46 79.95,-225.09 30.56,-333.14 -5.57,-12.37 -18.06,-20.44 -31.76,-20.44 v 0" /><path
         id="path90"
         style="fill:#9ed51e;fill-opacity:1;fill-rule:nonzero;stroke:none"
         d="m 1935.86,2018.54 c -5.49,0 -10.98,1.28 -15.86,3.73 -0.14,0.06 -132.04,69.44 -132.04,69.44 -10.14,5.4 -16.97,15.33 -18.37,26.61 -1.39,11.3 2.83,22.61 11.29,30.26 62.22,57.17 143.05,88.72 227.46,88.72 118.99,0 230.27,-63.7 290.41,-166.23 6.31,-10.84 6.35,-24.24 0.15,-35.03 -6.21,-10.8 -17.82,-17.5 -30.3,-17.5 h -332.74" /><path
         id="path92"
         style="fill:#9ed51e;fill-opacity:1;fill-rule:nonzero;stroke:none"
         d="m 1488.95,2390.24 c -4.9,0 -8.73,-3.83 -8.73,-8.73 0,-4.81 3.92,-8.73 8.73,-8.73 4.81,0 8.73,3.92 8.73,8.73 0,4.9 -3.84,8.73 -8.73,8.73 z m 131.27,-205.67 c -5.62,0 -11.24,1.4 -16.25,4.06 l -77.35,40.73 -77.28,-40.76 c -5.09,-2.65 -10.69,-4.03 -16.28,-4.03 -19.23,0 -34.88,15.67 -34.88,34.93 v 274.7 c 0,19.22 15.7,34.85 35.01,34.85 2.22,0 4.46,-0.22 6.65,-0.64 124.73,-24.11 215.21,-133.8 215.21,-260.84 v -48.07 c 0,-9.57 -3.77,-18.49 -10.61,-25.11 -6.54,-6.34 -15.14,-9.82 -24.22,-9.82 v 0" /><path
         id="path94"
         style="fill:#34a33f;fill-opacity:1;fill-rule:nonzero;stroke:none"
         d="m 1201.42,1765.12 c -16.14,0 -30.11,11.02 -33.97,26.79 -14.64,63.73 -22.91,128.77 -24.67,193.63 -0.34,13.18 6.98,25.68 18.65,31.85 l 125.82,66.16 c 4.78,2.6 10.48,4.05 16.23,4.05 12.01,0 23.35,-6.34 29.6,-16.52 l 73.14,-117.29 c 6.55,-10.68 6.95,-24.02 1.14,-34.95 l -74.88,-135.67 c -6.3,-11.19 -17.93,-18.05 -30.45,-18.05 h -100.61" /><path
         id="path96"
         style="fill:#34a33f;fill-opacity:1;fill-rule:nonzero;stroke:none"
         d="m 1329.41,1465.9 c -11.68,0 -22.51,5.77 -28.96,15.44 -45.09,68.53 -81.21,142.66 -107.44,220.45 -3.56,10.37 -1.84,22.06 4.66,31.16 6.57,9.21 17.24,14.71 28.53,14.71 h 75.83 c 12.56,0 24.19,-6.81 30.36,-17.77 l 75.06,-136.15 c 6.09,-10.83 5.83,-24.34 -0.77,-35.09 l -47.52,-76.35 c -6.63,-10.36 -17.69,-16.4 -29.75,-16.4 v 0" /><path
         id="path98"
         style="fill:#34a33f;fill-opacity:1;fill-rule:nonzero;stroke:none"
         d="m 1526.62,1250.14 c -8,0 -15.82,2.77 -22.03,7.81 -54.09,43.35 -103.4,92.19 -146.46,145.09 -9.38,11.39 -10.51,27.66 -2.74,40.39 l 67.03,107.39 c 6.35,10.43 17.42,16.65 29.66,16.65 h 150.68 c 11.98,0 23.01,-6.12 29.52,-16.39 0,0 66.48,-106.63 66.57,-106.77 7.57,-12.73 6.45,-28.89 -2.78,-40.19 -43.86,-53.78 -93.51,-103 -147.54,-146.26 -6.1,-4.95 -13.92,-7.72 -21.91,-7.72" /><path
         id="path100"
         style="fill:#34a33f;fill-opacity:1;fill-rule:nonzero;stroke:none"
         d="m 1724.63,1467.05 c -12.26,0 -23.38,6.22 -29.77,16.64 l -47.47,76.04 c -6.71,10.95 -6.97,24.51 -0.78,35.54 l 74.14,134.46 c 6.25,11.12 17.93,17.93 30.57,17.93 h 75.72 c 11.29,0 21.95,-5.5 28.53,-14.72 6.49,-9.1 8.2,-20.79 4.6,-31.28 -25.91,-77.09 -61.73,-150.8 -106.43,-218.94 -6.44,-9.81 -17.31,-15.67 -29.1,-15.67 -0.01,0 -0.01,0 -0.01,0" /><path
         id="path102"
         style="fill:#34a33f;fill-opacity:1;fill-rule:nonzero;stroke:none"
         d="m 1751.32,1765.12 c -12.6,0 -24.28,6.86 -30.49,17.91 l -74.8,135.64 c -6.08,10.83 -5.82,24.33 0.76,35.09 l 73.24,117.33 c 6.23,10.23 17.56,16.57 29.62,16.57 5.6,0 11.18,-1.36 16.14,-3.95 l 125.96,-66.29 c 11.72,-6.19 19.05,-18.7 18.69,-31.88 -1.75,-64.86 -10.02,-129.9 -24.6,-193.32 -3.91,-16.08 -17.88,-27.1 -34.03,-27.1 h -100.49" /><path
         id="path104"
         style="fill:#34a33f;fill-opacity:1;fill-rule:nonzero;stroke:none"
         d="m 1451.34,1945.43 c -12.15,0 -23.22,6.14 -29.62,16.44 l -70.47,113.17 c -5.1,8.09 -6.63,18.17 -4.1,27.53 2.52,9.35 8.91,17.28 17.53,21.75 l 145.7,76.77 c 5.1,2.64 10.66,3.99 16.24,3.99 5.57,0 11.13,-1.35 16.07,-3.9 l 145.85,-76.79 c 8.46,-4.39 14.82,-12.27 17.37,-21.55 2.57,-9.36 1.1,-19.47 -4.04,-27.76 0,0 -70.69,-113.53 -70.79,-113.67 -6.55,-10 -17.51,-15.98 -29.31,-15.98 h -150.43" /><path
         id="path106"
         style="fill:#34a33f;fill-opacity:1;fill-rule:nonzero;stroke:none"
         d="m 1452.96,1584.93 c -12.65,0 -24.33,6.82 -30.49,17.78 l -75.55,136.88 c -5.69,10.66 -5.69,23.07 -0.14,33.46 l 75.61,136.88 c 6.29,11.19 17.97,18.05 30.57,18.05 h 147.44 c 12.86,0 24.59,-7.04 30.61,-18.35 l 75.29,-136.31 c 5.7,-10.67 5.7,-23.06 0.16,-33.44 l -75.62,-137.02 c -5.81,-10.94 -17.54,-17.93 -30.44,-17.93 h -147.44" /><path
         id="path108"
         style="fill:#57bf36;fill-opacity:1;fill-rule:nonzero;stroke:none"
         d="m 1117.37,2008.46 171.77,103.06 c 7.72,3.99 -35.94,62.86 -42.29,68.71 -17.33,15.93 -45.98,-6.65 -45.98,-6.65 l -154.63,-81.39 c -22.57,-11.87 -40.54,-29.89 -52.677,-51.26 l -8.325,-32.47 c 2.121,0 130.392,-0.87 132.132,0" /><path
         id="path110"
         style="fill:#57bf36;fill-opacity:1;fill-rule:nonzero;stroke:none"
         d="m 1408.05,1337.25 c -31.38,34 -106.1,102.46 -132.13,140.06 -3.99,5.73 -20.82,-1.17 -26.42,-5.29 -26.16,-19.67 -38.59,-35.52 -58.14,-63.41 -8.33,-11.88 -39.64,-39.64 -19.88,-73.92 32.98,-49.54 69.81,-96.62 110.21,-140.74 l 23.3,-23.18 c 3.36,4.74 107.04,162.13 103.06,166.48" /><path
         id="path112"
         style="fill:#57bf36;fill-opacity:1;fill-rule:nonzero;stroke:none"
         d="m 1797.37,1448.52 c -5.48,4.61 -31.12,24.07 -35.22,18.22 -27.53,-38.35 -88.56,-116.01 -121.56,-150.62 -4.11,-4.24 83.85,-143.13 87.21,-147.99 l 25.76,20.44 c 40.28,43.45 77.02,89.84 110.05,138.64 0,0 24.75,19.64 14.81,33.83 -15.93,22.66 -60.5,70.17 -81.05,87.48" /><path
         id="path114"
         style="fill:#57bf36;fill-opacity:1;fill-rule:nonzero;stroke:none"
         d="m 1993.92,2092.19 -147.41,77.58 c 0,0 -21.24,22.11 -36.8,7.82 -6.46,-5.85 -71.14,-67.25 -63.42,-71.35 l 182.34,-87.21 c 1.75,-0.87 122.08,-5.28 124.2,-5.28 l -6.24,27.18 c -12.14,21.37 -30.11,39.39 -52.67,51.26" /><path
         id="path116"
         style="fill:#57bf36;fill-opacity:1;fill-rule:nonzero;stroke:none"
         d="m 1402.76,2169.66 116.27,60.78 c 3.62,1.86 7.97,1.86 11.59,0 l 89.6,-45.87 c 8.22,-4.36 33.58,4.69 33.58,14.16 l 1.25,68.84 c 0,5.09 -22.76,10.1 -23.08,15.12 l -50.95,26.82 c -38.15,20.08 -83.73,20.08 -121.88,0 l -38.56,-20.29 -20.46,-16.5 c 0,-9.47 -5.7,-107.42 2.64,-103.06" /><path
         id="path118"
         style="fill:#201916;fill-opacity:1;fill-rule:nonzero;stroke:none"
         d="m 1255.21,2111.79 c 7.72,3.98 8.84,14.44 2.49,20.3 -56.66,52.04 -131.75,82.8 -212.31,82.8 -113.199,0 -215.433,-60.26 -271.097,-155.16 -4.859,-8.34 1.121,-18.8 10.836,-18.8 h 332.231 c 2.12,0 4.11,0.5 5.85,1.37 z m 112.57,-795.1 c 3.36,4.73 2.86,11.21 -1.12,15.56 -31.38,34 -60.15,69.99 -86.17,107.6 -3.99,5.72 -11.95,7.22 -17.56,3.11 -26.15,-19.68 -49.68,-43.59 -69.23,-71.48 -65.01,-92.64 -74.22,-210.94 -28.52,-310.93 3.99,-8.85 16.06,-9.98 21.54,-2 z m 19.8,612.67 c 2.12,3.98 2,8.71 -0.37,12.57 l -73.23,117.43 c -3.35,5.48 -10.58,7.48 -16.3,4.36 L 1171.9,1997.6 c -4.23,-2.24 -6.85,-6.72 -6.72,-11.46 1.74,-64.51 9.96,-127.64 24.03,-188.91 1.37,-5.6 6.48,-9.71 12.21,-9.71 h 100.61 c 4.48,0 8.6,2.49 10.84,6.48 z m 0,-359.01 c 2.37,3.86 2.49,8.59 0.25,12.58 l -74.96,135.98 c -2.24,3.98 -6.36,6.35 -10.84,6.35 h -75.83 c -8.47,0 -14.7,-8.34 -11.96,-16.31 25.65,-76.09 60.77,-148.19 104.85,-215.18 4.98,-7.48 16.19,-7.23 21.05,0.37 z m 245.07,649.15 v 48.07 c 0,118.3 -84.93,217.17 -197,238.84 -7.85,1.49 -15.07,-4.36 -15.07,-12.2 V 2219.5 c 0,-9.46 9.96,-15.44 18.31,-11.08 l 81.94,43.21 c 3.6,1.87 7.96,1.87 11.57,0 l 82.07,-43.21 c 8.22,-4.36 18.18,1.62 18.18,11.08 z m 46.07,-801.2 c 3.36,4.11 3.61,9.97 0.87,14.57 l -66.25,106.23 c -2.36,3.73 -6.34,5.97 -10.58,5.97 h -150.68 c -4.35,0 -8.34,-2.24 -10.58,-5.97 l -66.99,-107.35 c -2.74,-4.48 -2.49,-10.34 0.99,-14.57 41.97,-51.55 89.91,-99.12 143.21,-141.83 4.61,-3.74 11.2,-3.74 15.81,0 53.67,42.96 101.86,91.03 144.2,142.95 z m 4.11,668.58 c 3.86,6.23 1.75,14.32 -4.73,17.68 l -145.7,76.71 c -3.61,1.87 -7.97,1.87 -11.57,0 L 1375,2104.44 c -6.47,-3.36 -8.59,-11.46 -4.73,-17.56 l 70.48,-113.19 c 2.24,-3.61 6.23,-5.85 10.59,-5.85 h 150.43 c 4.23,0 8.22,2.24 10.58,5.85 z m 3.86,-336.47 c 2,3.74 2,8.35 0,12.09 l -75.46,136.59 c -2.12,3.99 -6.35,6.48 -10.83,6.48 h -147.44 c -4.61,0 -8.72,-2.49 -10.96,-6.48 l -75.46,-136.59 c -1.99,-3.74 -1.99,-8.35 0,-12.09 L 1442,1613.68 c 2.24,-3.98 6.35,-6.35 10.96,-6.35 h 147.44 c 4.48,0 8.71,2.37 10.83,6.35 z m 152.3,-41.46 c 2.73,7.97 -3.49,16.31 -11.95,16.31 h -75.72 c -4.61,0 -8.72,-2.37 -10.95,-6.35 l -74.22,-134.61 c -2.24,-3.99 -2.12,-8.85 0.25,-12.7 l 47.56,-76.22 c 4.74,-7.72 16.06,-7.96 21.04,-0.37 43.72,66.62 78.58,138.35 103.99,213.94 z m 27.39,-648.4 c 45.7,99.99 36.37,218.29 -28.51,310.93 -15.94,22.66 -34.37,42.59 -54.92,59.9 -5.47,4.6 -13.7,3.24 -17.81,-2.62 -27.52,-38.35 -57.9,-74.96 -90.9,-109.58 -4.11,-4.24 -4.61,-10.83 -1.25,-15.69 l 171.72,-244.94 c 5.61,-7.98 17.69,-6.85 21.67,2 z m 21.67,925.59 c 0.13,4.74 -2.49,9.22 -6.73,11.46 l -125.89,66.25 c -5.73,2.99 -12.95,1.11 -16.31,-4.49 l -73.22,-117.3 c -2.37,-3.86 -2.49,-8.6 -0.25,-12.58 L 1740.37,1794 c 2.23,-3.99 6.34,-6.48 10.95,-6.48 h 100.49 c 5.73,0 10.84,4.11 12.21,9.71 14.07,61.27 22.28,124.4 24.03,188.91 z m 380.55,54.79 c 9.72,0 15.69,10.46 10.84,18.8 -55.67,94.9 -157.9,155.16 -271.1,155.16 -80.69,0 -155.78,-30.88 -212.44,-82.93 -6.47,-5.85 -5.23,-16.31 2.49,-20.42 l 131.62,-69.24 c 1.75,-0.87 3.74,-1.37 5.85,-1.37 z M 1508,1204.87 c -27.77,20.79 -54.29,42.71 -79.45,65.74 -5.48,4.99 -14.19,4.12 -18.43,-1.99 L 1184.11,946.23 c -4.86,-6.968 -15.19,-7.101 -20.17,-0.25 l -15.45,20.911 c -49.31,66.619 -74.09,145.449 -74.09,224.399 0,75.47 22.79,151.05 68.24,215.93 24.78,35.24 54.79,65.01 88.29,89.16 5.11,3.74 6.72,10.59 3.48,16.19 -78.32,136.73 -123.53,291.52 -130.75,454.14 -0.25,6.6 -5.73,11.96 -12.33,11.96 H 691.605 c -8.464,0 -14.441,8.34 -11.703,16.31 l 8.219,24.66 c 51.43,154.04 195.008,257.52 357.269,257.52 107.09,0 205.96,-45.21 275.69,-120.3 3.87,-4.1 9.84,-5.23 14.95,-2.61 l 15.69,8.34 c 3.98,2.12 6.6,6.36 6.6,10.96 v 387.03 c 0,6.97 5.6,12.45 12.45,12.45 h 18.68 c 168.73,0 305.46,-136.73 305.46,-305.46 v -94.02 c 0,-4.6 2.61,-8.84 6.73,-10.96 l 15.93,-8.46 c 4.98,-2.62 11.09,-1.5 14.94,2.61 69.61,75.09 168.62,120.42 275.83,120.42 162.26,0 305.83,-103.48 357.27,-257.52 l 8.21,-24.66 c 2.75,-7.97 -3.23,-16.31 -11.7,-16.31 h -400.23 c -6.59,0 -11.95,-5.36 -12.32,-11.96 -7.35,-167.11 -54.92,-325.75 -137.23,-465.22 -3.24,-5.36 -1.87,-12.08 2.99,-15.94 27.64,-22.05 52.42,-48.32 73.46,-78.33 93.15,-132.74 90.79,-309.82 -5.72,-440.329 l -15.44,-20.911 c -5.11,-6.851 -15.32,-6.718 -20.17,0.25 l -217.67,310.44 c -4.24,6.1 -12.83,6.97 -18.31,2.12 -21.29,-18.68 -43.34,-36.74 -66.25,-53.92 l -11.21,-8.22 c -4.36,-3.37 -10.46,-3.37 -14.82,0 l -11.2,8.22" /><path
         id="path120"
         style="fill:#201916;fill-opacity:1;fill-rule:nonzero;stroke:none"
         d="m 1488.95,2412.64 c 17.18,0 31.13,-13.82 31.13,-31.13 0,-17.19 -13.95,-31.13 -31.13,-31.13 -17.19,0 -31.14,13.94 -31.14,31.13 0,17.31 13.95,31.13 31.14,31.13" /></g></g></svg>