<?xml version="1.0" encoding="UTF-8" standalone="no"?>
<svg
   xmlns:dc="http://purl.org/dc/elements/1.1/"
   xmlns:cc="http://creativecommons.org/ns#"
   xmlns:rdf="http://www.w3.org/1999/02/22-rdf-syntax-ns#"
   xmlns:svg="http://www.w3.org/2000/svg"
   xmlns="http://www.w3.org/2000/svg"
   viewBox="0 0 386.38666 344.48001"
   height="344.48001"
   width="386.38666"
   xml:space="preserve"
   id="svg2"
   version="1.1"><metadata
     id="metadata8"><rdf:RDF><cc:Work
         rdf:about=""><dc:format>image/svg+xml</dc:format><dc:type
           rdf:resource="http://purl.org/dc/dcmitype/StillImage" /></cc:Work></rdf:RDF></metadata><defs
     id="defs6" /><g
     transform="matrix(1.3333333,0,0,-1.3333333,0,344.48)"
     id="g10"><g
       transform="scale(0.1)"
       id="g12"><path
         id="path14"
         style="fill:#ed212c;fill-opacity:1;fill-rule:nonzero;stroke:none"
         d="m 256.09,78.7891 c 0,8.25 -3.02,12.7109 -8.578,12.7109 -14.137,0 -23.508,-26.3711 -23.508,-39.2383 0,-9.3711 3.336,-14.1328 9.215,-14.1328 12.867,0 22.871,27.793 22.871,40.6602 z m 12.23,-27.3203 c -1.269,-4.129 -1.75,-7 -1.75,-9.0586 0,-2.6993 1.274,-4.1289 3.657,-4.1289 3.496,0 6.992,5.3984 10.64,16.0507 l 7.625,-2.3906 c -6.191,-19.3828 -14.769,-26.5312 -24.461,-26.5312 -7.465,0 -13.023,4.7695 -13.023,13.9882 0,1.1133 0,1.9024 0.16,3.4922 l -1.113,0.4688 C 244.02,31.4492 234.961,25.4102 225.906,25.4102 c -13.66,0 -21.125,11.2812 -21.125,25.2695 0,16.1992 6.512,30.6523 15.09,39.0703 7.469,7.6211 15.887,12.07 24.781,12.07 8.899,0 13.977,-6.1911 15.407,-13.3395 l 3.179,12.2185 h 18.106 L 268.32,51.4688" /><path
         id="path16"
         style="fill:#ed212c;fill-opacity:1;fill-rule:nonzero;stroke:none"
         d="m 368.07,38.2813 c 3.336,0 6.676,5.0781 10.961,16.0507 l 7.469,-2.3906 c -6.355,-19.2109 -15.25,-26.5312 -24.305,-26.5312 -8.578,0 -14.136,5.5703 -14.136,14.7812 0,15.8906 10.48,31.6094 10.48,42.4102 0,3.6484 -1.586,5.2382 -4.285,5.2382 -7.305,0 -20.969,-12.0703 -33.68,-60.8398 H 301.52 l 13.656,51.4688 c 2.383,9.0507 1.91,11.5898 -0.953,11.5898 -3.653,0 -7.782,-6.8281 -12.387,-16.668 l -7.465,3.168 c 6.828,15.8828 14.77,25.1014 25.414,25.1014 6.832,0 11.598,-4.9217 11.598,-14.7694 0,-4.6093 -0.957,-10.332 -3.34,-17.6289 l 1.113,-0.4804 c 10.485,22.3906 22.235,33.0387 33.516,33.0387 8.894,0 14.457,-6.988 14.457,-16.5309 0,-13.4883 -11.758,-33.8203 -11.758,-43.5078 0,-2.3829 0.953,-3.5 2.699,-3.5" /><path
         id="path18"
         style="fill:#ed212c;fill-opacity:1;fill-rule:nonzero;stroke:none"
         d="m 447.328,63.3789 c 0,-18.4297 9.055,-27.3203 23.985,-27.3203 25.894,0 36.378,38.6016 36.378,59.0898 0,18.4336 -9.214,27.3206 -23.984,27.3206 -26.051,0 -36.379,-38.5979 -36.379,-59.0901 z m 37.168,70.6801 c 26.055,0 44.32,-18.579 44.32,-45.8988 0,-30.6602 -23.031,-63.6993 -58.293,-63.6993 -26.05,0 -44.476,18.5899 -44.476,45.9102 0,30.6599 23.031,63.6879 58.449,63.6879" /><path
         id="path20"
         style="fill:#ed212c;fill-opacity:1;fill-rule:nonzero;stroke:none"
         d="m 566.301,49.8711 c 0,-7.7813 3.332,-13.1797 10.32,-13.1797 14.137,0 22.078,26.6875 22.078,39.2383 0,8.9023 -2.859,13.5 -8.734,13.5 -12.707,0 -23.664,-25.5703 -23.664,-39.5586 z m -12.867,38.7578 c -3.661,0 -6.516,-4.6094 -11.598,-15.2383 l -7.465,3.168 c 7.621,17.4727 15.086,25.1014 25.098,25.1014 7.148,0 11.914,-5.2381 11.914,-14.3006 0,-1.1094 -0.16,-2.5274 -0.324,-3.9688 l 1.277,-0.4687 c 6.031,12.539 15.723,18.8981 24.461,18.8981 13.34,0 20.969,-10.9606 20.969,-25.7302 0,-25.5781 -17.633,-49.2382 -37.176,-49.2382 -8.418,0 -15.086,4.2773 -18.106,10.6367 l -6.351,-23.668 h 14.926 L 567.887,2.05859 h -44 l 3.176,11.76171 h 10.796 l 16.844,62.8985 c 2.383,8.9023 1.586,11.9101 -1.269,11.9101" /><path
         id="path22"
         style="fill:#ed212c;fill-opacity:1;fill-rule:nonzero;stroke:none"
         d="m 647.301,64.332 c 22.078,2.3789 30.179,10.9571 30.179,20.8086 0,4.4492 -2.539,7.9414 -7.304,7.9414 -11.117,0 -19.535,-15.0937 -22.875,-28.75 z m -1.426,-7.4609 c -0.16,-1.2695 -0.16,-2.5391 -0.16,-3.6602 0,-13.1796 6.828,-17.3125 14.769,-17.3125 7.786,0 15.571,5.2422 22.243,14.6133 l 6.668,-4.7734 c -8.102,-11.5899 -17.95,-20.3281 -34.786,-20.3281 -16.363,0 -27.796,11.4414 -27.796,28.9218 0,24.4571 21.125,47.488 46.062,47.488 13.664,0 21.285,-6.8317 21.285,-16.5309 0,-14.2774 -14.93,-26.5196 -48.285,-28.418" /><path
         id="path24"
         style="fill:#ed212c;fill-opacity:1;fill-rule:nonzero;stroke:none"
         d="m 775.961,38.2813 c 3.336,0 6.676,5.0781 10.965,16.0507 l 7.465,-2.3906 c -6.356,-19.2109 -15.25,-26.5312 -24.301,-26.5312 -8.582,0 -14.145,5.5703 -14.145,14.7812 0,15.8906 10.485,31.6094 10.485,42.4102 0,3.6484 -1.586,5.2382 -4.285,5.2382 -7.305,0 -20.969,-12.0703 -33.676,-60.8398 H 709.41 l 13.656,51.4688 c 2.383,9.0507 1.911,11.5898 -0.953,11.5898 -3.652,0 -7.781,-6.8281 -12.386,-16.668 l -7.465,3.168 c 6.832,15.8828 14.769,25.1014 25.414,25.1014 6.832,0 11.597,-4.9217 11.597,-14.7694 0,-4.6093 -0.957,-10.332 -3.339,-17.6289 l 1.113,-0.4804 c 10.48,22.3906 22.234,33.0387 33.516,33.0387 8.894,0 14.457,-6.988 14.457,-16.5309 0,-13.4883 -11.758,-33.8203 -11.758,-43.5078 0,-2.3829 0.953,-3.5 2.699,-3.5" /><path
         id="path26"
         style="fill:#ed212c;fill-opacity:1;fill-rule:nonzero;stroke:none"
         d="m 810.902,64.1719 h 11.282 c 3.015,-19.0625 14.132,-28.4336 28.113,-28.4336 12.551,0 19.855,7.9414 19.855,16.2031 0,9.207 -10.484,13.5 -21.761,18.75 -13.188,5.8672 -27.637,12.8672 -27.637,29.6996 0,17.789 16.043,33.668 37.168,33.668 11.277,0 21.762,-4.61 27.004,-12.071 l 6.512,11.602 h 11.914 L 893.98,95.9414 h -11.121 c -3.332,19.6996 -11.277,26.9996 -24.937,26.9996 -10.324,0 -17.633,-7.461 -17.633,-15.722 0,-10.0081 10.801,-14.2971 22.238,-19.3792 13.024,-5.5585 27.004,-12.2304 27.004,-28.9101 0,-19.5313 -17.312,-34.4688 -39.078,-34.4688 -13.816,0 -24.14,5.0782 -30.18,12.711 l -6.988,-12.2305 h -11.914 l 9.531,39.2305" /><path
         id="path28"
         style="fill:#ed212c;fill-opacity:1;fill-rule:nonzero;stroke:none"
         d="m 941.625,88.7891 -9.531,-34.7774 c -1.11,-3.9726 -1.903,-7.6328 -1.903,-9.5429 0,-4.2774 2.219,-5.7071 5.563,-5.7071 5.715,0 10.48,6.9766 14.926,17.1485 l 7.625,-2.5391 c -7.782,-22.5625 -20.012,-27.9609 -28.594,-27.9609 -10.481,0 -17.949,5.25 -17.949,16.0507 0,4.6094 1.75,11.2774 2.863,15.7188 l 8.578,31.6094 h -13.98 l 2.539,9.7031 h 13.98 l 5.242,19.0468 18.903,2.07 -5.715,-21.1168 h 22.551 l -2.539,-9.7031 h -22.559" /><path
         id="path30"
         style="fill:#ed212c;fill-opacity:1;fill-rule:nonzero;stroke:none"
         d="m 1022,78.7891 c 0,8.25 -3.02,12.7109 -8.58,12.7109 -14.139,0 -23.51,-26.3711 -23.51,-39.2383 0,-9.3711 3.336,-14.1328 9.215,-14.1328 12.865,0 22.875,27.793 22.875,40.6602 z m 12.23,-27.3203 c -1.27,-4.129 -1.75,-7 -1.75,-9.0586 0,-2.6993 1.27,-4.1289 3.65,-4.1289 3.5,0 7,5.3984 10.65,16.0507 l 7.62,-2.3906 c -6.19,-19.3828 -14.77,-26.5312 -24.46,-26.5312 -7.46,0 -13.03,4.7695 -13.03,13.9882 0,1.1133 0,1.9024 0.17,3.4922 l -1.12,0.4688 c -6.03,-11.9102 -15.09,-17.9492 -24.144,-17.9492 -13.664,0 -21.128,11.2812 -21.128,25.2695 0,16.1992 6.515,30.6523 15.093,39.0703 7.465,7.6211 15.889,12.07 24.779,12.07 8.9,0 13.98,-6.1911 15.41,-13.3395 l 3.18,12.2185 h 18.1 l -13.02,-49.2302" /><path
         id="path32"
         style="fill:#ed212c;fill-opacity:1;fill-rule:nonzero;stroke:none"
         d="m 1127.15,83.082 c 0,-6.8437 -4.29,-13.6601 -11.12,-13.6601 -5.72,0 -9.37,3.7969 -9.37,8.5664 0,4.4531 2.7,8.1133 6.51,10.8008 -1.27,2.2304 -3.97,3.9804 -8.74,3.9804 -15.88,0 -25.25,-24.3086 -25.25,-38.1289 0,-13.6601 7.3,-17.9492 14.45,-17.9492 7.31,0 14.3,5.25 20.65,15.0899 l 6.83,-4.6016 c -6.83,-11.9102 -16.2,-21.7695 -31.76,-21.7695 -17.48,0 -29.23,11.9218 -29.23,29.2304 0,24.7891 21.28,47.1794 44,47.1794 13.34,0 23.03,-7.4606 23.03,-18.738" /><path
         id="path34"
         style="fill:#ed212c;fill-opacity:1;fill-rule:nonzero;stroke:none"
         d="m 1194.5,38.2813 c 3.49,0 6.51,5.0781 10.64,16.0507 l 7.47,-2.3906 c -6.04,-19.2109 -14.3,-26.5312 -23.51,-26.5312 -8.9,0 -14.77,5.8789 -14.77,16.1992 0,4.4609 1.74,10.8008 1.74,14.3008 0,5.8789 -2.54,7.3086 -14.14,7.3086 h -0.31 L 1151.93,27 h -17.95 l 25.73,97.051 h -13.18 l 3.17,12.398 h 31.61 l -17.78,-66.0779 h 0.79 c 8.41,0 11.91,4.7578 18.9,16.3594 5.24,8.5703 10.49,15.0895 19.86,15.0895 7.62,0 11.75,-4.7692 11.75,-11.5895 0,-6.6719 -4.29,-13.3516 -10.8,-13.3516 -6.35,0 -9.69,5.5625 -7.47,12.082 -2.22,-0.4804 -4.6,-3.1914 -8.25,-9.2187 -3.18,-5.8828 -5.73,-9.2109 -10.49,-11.7539 11.28,-0.957 14.93,-5.8789 14.93,-13.3477 0,-4.6015 -1.27,-9.2109 -1.27,-12.0703 0,-3.1719 1.27,-4.289 3.02,-4.289" /><path
         id="path36"
         style="fill:#ed212c;fill-opacity:1;fill-rule:nonzero;stroke:none"
         d="m 1281.38,68.7813 c 0,31.9177 23.51,65.2777 58.45,65.2777 13.19,0 23.03,-4.758 28.44,-12.86 l 6.51,12.391 h 12.23 l -10.17,-41.3009 h -11.91 c -1.59,22.8709 -11.6,30.1799 -24.46,30.1799 -28.12,0 -37.81,-37.8088 -37.81,-55.2776 0,-21.1211 10.8,-30.0195 24.62,-30.0195 16.84,0 26.69,12.6992 34.63,31.4492 l 11.28,-3.9727 c -7.95,-22.2382 -22.72,-40.1875 -48.13,-40.1875 -29.23,0 -43.68,18.5899 -43.68,44.3204" /><path
         id="path38"
         style="fill:#ed212c;fill-opacity:1;fill-rule:nonzero;stroke:none"
         d="m 1425.61,93.082 c -14.78,0 -23.2,-28.9101 -23.2,-44.3203 0,-10.1601 4.29,-14.4531 11.12,-14.4531 14.78,0 23.19,28.9102 23.19,44.3125 0,10.168 -4.28,14.4609 -11.11,14.4609 z m 30.02,-21.9218 c 0,-24.7813 -19.86,-45.75 -41.94,-45.75 -18.27,0 -30.18,12.8711 -30.18,30.8203 0,24.7812 19.85,45.5895 41.93,45.5895 18.27,0 30.19,-12.7106 30.19,-30.6598" /><path
         id="path40"
         style="fill:#ed212c;fill-opacity:1;fill-rule:nonzero;stroke:none"
         d="m 1558.87,40.1914 c 0,15.8906 10.48,31.6094 10.48,42.4102 0,3.6484 -1.59,5.2382 -4.29,5.2382 -6.98,0 -20.8,-12.0703 -33.51,-60.8398 h -18.75 l 11.13,41.9414 c 1.42,5.2383 2.22,9.0469 2.22,12.0703 0,3.8203 -1.27,6.8281 -4.77,6.8281 -7.3,0 -20.96,-12.0703 -33.67,-60.8398 h -19.06 l 13.65,51.4688 c 2.39,9.0507 1.91,11.5898 -0.95,11.5898 -3.65,0 -7.78,-6.8281 -12.39,-16.668 l -7.46,3.168 c 6.83,15.8828 14.77,25.1014 25.41,25.1014 6.84,0 11.6,-4.9217 11.6,-14.7694 0,-4.6093 -0.96,-10.332 -3.34,-17.6289 l 1.11,-0.4804 c 10.49,22.3906 22.24,33.0387 33.05,33.0387 8.73,0 13.34,-5.8786 13.34,-15.4098 0,-4.4493 -1.27,-9.8516 -3.66,-17.1485 l 1.12,-0.4804 c 10.48,22.3906 22.23,33.0387 33.51,33.0387 8.74,0 14.3,-6.988 14.3,-16.5309 0,-13.4883 -11.76,-33.8203 -11.76,-43.5078 0,-2.3829 0.96,-3.5 2.7,-3.5 3.34,0 6.68,5.0781 10.96,16.0507 l 7.47,-2.3906 c -6.35,-19.2109 -15.25,-26.5312 -24.3,-26.5312 -8.58,0 -14.14,5.5703 -14.14,14.7812" /><path
         id="path42"
         style="fill:#ed212c;fill-opacity:1;fill-rule:nonzero;stroke:none"
         d="m 1698.17,40.1914 c 0,15.8906 10.49,31.6094 10.49,42.4102 0,3.6484 -1.59,5.2382 -4.29,5.2382 -6.99,0 -20.81,-12.0703 -33.52,-60.8398 h -18.75 l 11.13,41.9414 c 1.42,5.2383 2.21,9.0469 2.21,12.0703 0,3.8203 -1.27,6.8281 -4.75,6.8281 -7.32,0 -20.98,-12.0703 -33.68,-60.8398 h -19.07 l 13.67,51.4688 c 2.38,9.0507 1.9,11.5898 -0.95,11.5898 -3.66,0 -7.78,-6.8281 -12.39,-16.668 l -7.47,3.168 c 6.83,15.8828 14.77,25.1014 25.42,25.1014 6.82,0 11.59,-4.9217 11.59,-14.7694 0,-4.6093 -0.95,-10.332 -3.33,-17.6289 l 1.11,-0.4804 c 10.48,22.3906 22.24,33.0387 33.04,33.0387 8.73,0 13.34,-5.8786 13.34,-15.4098 0,-4.4493 -1.27,-9.8516 -3.65,-17.1485 l 1.11,-0.4804 c 10.48,22.3906 22.24,33.0387 33.51,33.0387 8.74,0 14.3,-6.988 14.3,-16.5309 0,-13.4883 -11.76,-33.8203 -11.76,-43.5078 0,-2.3829 0.96,-3.5 2.71,-3.5 3.33,0 6.67,5.0781 10.96,16.0507 l 7.47,-2.3906 c -6.36,-19.2109 -15.26,-26.5312 -24.31,-26.5312 -8.57,0 -14.14,5.5703 -14.14,14.7812" /><path
         id="path44"
         style="fill:#ed212c;fill-opacity:1;fill-rule:nonzero;stroke:none"
         d="m 1795.86,40.3398 c 0,3.9805 0.95,10.0118 3.49,18.1211 l -1.1,0.4688 c -10.49,-23.0313 -21.61,-33.5195 -33.05,-33.5195 -8.73,0 -14.45,6.8398 -14.45,16.6796 0,13.3516 11.28,34.4688 11.28,43.5313 0,2.2187 -0.96,3.3398 -2.39,3.3398 -3.34,0 -6.03,-3.5 -11.75,-15.4101 l -7.47,3.168 c 6.52,15.7226 14.94,25.1012 25.89,25.1012 8.42,0 13.35,-5.2497 13.35,-14.4606 0,-14.7696 -10.49,-31.6094 -10.49,-41.7696 0,-4.4492 1.75,-6.1914 4.45,-6.1914 7.15,0 20.33,11.7422 33.36,61.3006 h 19.06 l -13.03,-49.2302 c -1.27,-4.2891 -1.75,-7 -1.75,-9.0586 0,-2.6993 1.44,-4.1289 3.66,-4.1289 3.66,0 6.99,5.3984 10.64,16.0507 l 7.63,-2.3906 c -6.19,-19.3828 -14.78,-26.5312 -23.83,-26.5312 -8.26,0 -13.5,4.6093 -13.5,14.9296" /><path
         id="path46"
         style="fill:#ed212c;fill-opacity:1;fill-rule:nonzero;stroke:none"
         d="m 1909.12,38.2813 c 3.33,0 6.67,5.0781 10.95,16.0507 l 7.46,-2.3906 c -6.34,-19.2109 -15.24,-26.5312 -24.29,-26.5312 -8.59,0 -14.14,5.5703 -14.14,14.7812 0,15.8906 10.48,31.6094 10.48,42.4102 0,3.6484 -1.59,5.2382 -4.28,5.2382 -7.32,0 -20.98,-12.0703 -33.68,-60.8398 h -19.07 l 13.67,51.4688 c 2.38,9.0507 1.9,11.5898 -0.95,11.5898 -3.66,0 -7.78,-6.8281 -12.39,-16.668 l -7.47,3.168 c 6.83,15.8828 14.77,25.1014 25.42,25.1014 6.82,0 11.59,-4.9217 11.59,-14.7694 0,-4.6093 -0.95,-10.332 -3.33,-17.6289 l 1.11,-0.4804 c 10.48,22.3906 22.24,33.0387 33.52,33.0387 8.88,0 14.45,-6.988 14.45,-16.5309 0,-13.4883 -11.76,-33.8203 -11.76,-43.5078 0,-2.3829 0.96,-3.5 2.71,-3.5" /><path
         id="path48"
         style="fill:#ed212c;fill-opacity:1;fill-rule:nonzero;stroke:none"
         d="m 1967.55,112.941 c -5.55,0 -9.84,3.809 -9.84,10.168 0,6.512 4.92,13.973 13.34,13.973 6.03,0 10.17,-3.812 10.17,-10.16 0,-6.363 -5.24,-13.981 -13.67,-13.981 z m -7.61,-70.8512 c 0,-2.6914 1.11,-3.8085 3.17,-3.8085 3.02,0 6.51,4.289 11.28,16.0507 l 7.46,-2.3906 c -6.19,-18.75 -15.09,-26.5312 -25.25,-26.5312 -8.27,0 -14.3,5.3984 -14.3,14.9296 0,15.1016 13.18,36.379 13.18,46.2305 0,2.5391 -0.94,3.4883 -2.38,3.4883 -4.44,0 -8.42,-6.8281 -12.86,-16.668 l -7.63,3.168 c 6.83,15.8828 15.26,25.2614 26.06,25.2614 8.25,0 14.13,-5.8786 14.13,-16.0505 0,-12.3789 -12.86,-34.4609 -12.86,-43.6797" /><path
         id="path50"
         style="fill:#ed212c;fill-opacity:1;fill-rule:nonzero;stroke:none"
         d="m 2023.63,88.7891 -9.53,-34.7774 c -1.12,-3.9726 -1.92,-7.6328 -1.92,-9.5429 0,-4.2774 2.23,-5.7071 5.57,-5.7071 5.71,0 10.48,6.9766 14.93,17.1485 l 7.63,-2.5391 c -7.8,-22.5625 -20.02,-27.9609 -28.6,-27.9609 -10.48,0 -17.95,5.25 -17.95,16.0507 0,4.6094 1.75,11.2774 2.86,15.7188 l 8.58,31.6094 h -13.98 l 2.54,9.7031 h 13.98 l 5.24,19.0468 18.9,2.07 -5.71,-21.1168 h 22.56 l -2.55,-9.7031 h -22.55" /><path
         id="path52"
         style="fill:#ed212c;fill-opacity:1;fill-rule:nonzero;stroke:none"
         d="m 2086.22,88 c 0,-14.6094 -9.22,-28.9102 -9.22,-38.1289 0,-3.9609 1.75,-5.5508 5.24,-5.5508 8.42,0 19.7,9.5313 31.77,56.3787 h 17.79 L 2117.18,39.3984 C 2110.36,10.1719 2094.31,0 2074.46,0 2063.33,0 2050,3.01953 2050,14.7813 c 0,5.0703 3.8,11.4296 10.95,11.4296 6.36,0 9.53,-4.4492 9.22,-9.6914 -0.17,-2.539 -1.59,-5.4101 -3.18,-6.82809 1.91,-0.64063 4.29,-1.10938 7.31,-1.10938 12.38,0 20.8,10.00777 26.2,32.08987 l 3.19,12.539 -0.96,0.4805 c -9.21,-16.8398 -19.06,-23.0312 -28.27,-23.0312 -10.49,0 -15.72,7.3007 -15.72,16.5195 0,12.2305 10.16,29.3789 10.16,38.4414 0,2.0586 -0.96,3.3398 -2.38,3.3398 -3.98,0 -7.78,-6.5195 -12.08,-15.5703 l -7.46,3.168 c 6.99,15.8828 15.72,25.2614 26.21,25.2614 8.09,0 13.03,-5.3981 13.03,-13.82" /><path
         id="path54"
         style="fill:#ed212c;fill-opacity:1;fill-rule:nonzero;stroke:none"
         d="m 2216.14,80.0586 c 20.33,0 27.48,12.7109 27.48,24.9294 0,9.223 -5.57,14.782 -21.29,14.782 h -6.83 l -9.85,-39.7114 z m -20.81,-41.1367 h 17.31 L 2209.94,27 h -53.37 l 2.7,11.9219 h 16.04 l 20.02,80.6871 h -16.2 l 3.01,11.911 h 44 c 28.76,0 39.71,-11.75 39.71,-26.68 0,-15.8791 -10.95,-36.0587 -50.35,-36.0587 h -12.71 l -7.46,-29.8594" /><path
         id="path56"
         style="fill:#ed212c;fill-opacity:1;fill-rule:nonzero;stroke:none"
         d="m 2290.63,78.4688 c 2.38,9.0507 1.9,11.5898 -0.95,11.5898 -3.66,0 -7.78,-6.8281 -12.39,-16.668 l -7.47,3.168 c 6.84,15.8828 14.77,25.1014 25.42,25.1014 6.83,0 11.59,-4.9217 11.59,-14.7694 0,-4.6093 -0.95,-10.1718 -3.17,-17.1601 l 1.27,-0.4688 c 9.21,20.9688 16.83,32.5583 27.96,32.5583 6.67,0 11.59,-4.6091 11.59,-12.07 0,-7.9414 -5.08,-14.3008 -11.44,-14.3008 -5.55,0 -9.84,3.6524 -9.53,10.3203 C 2318.9,83.8711 2307.47,70.3711 2296.03,27 h -19.06 l 13.66,51.4688" /><path
         id="path58"
         style="fill:#ed212c;fill-opacity:1;fill-rule:nonzero;stroke:none"
         d="m 2389.91,93.082 c -14.78,0 -23.2,-28.9101 -23.2,-44.3203 0,-10.1601 4.29,-14.4531 11.13,-14.4531 14.76,0 23.18,28.9102 23.18,44.3125 0,10.168 -4.29,14.4609 -11.11,14.4609 z m 30.02,-21.9218 c 0,-24.7813 -19.86,-45.75 -41.94,-45.75 -18.27,0 -30.18,12.8711 -30.18,30.8203 0,24.7812 19.86,45.5895 41.94,45.5895 18.26,0 30.18,-12.7106 30.18,-30.6598" /><path
         id="path60"
         style="fill:#ed212c;fill-opacity:1;fill-rule:nonzero;stroke:none"
         d="m 2468.69,112.941 c -5.56,0 -9.85,3.809 -9.85,10.168 0,6.512 5.09,13.973 13.34,13.973 6.04,0 10.17,-3.812 10.17,-10.16 0,-6.363 -5.24,-13.981 -13.66,-13.981 z m 3.02,-39.7222 -10.01,-37.9493 C 2455.03,10.0117 2442.64,0 2428.02,0 c -11.11,0 -15.88,5.25 -15.88,11.2813 0,5.8789 4.29,11.2773 10.48,11.2773 5.4,0 8.26,-3.9688 8.26,-8.1094 0,-3.3398 -1.27,-6.02732 -2.54,-7.61717 6.83,-0.16015 9.54,3.96877 15.41,26.68747 l 10.48,40.1797 c 0.96,3.8125 2.39,9.3828 2.39,12.711 0,2.8593 -1.27,3.6484 -2.7,3.6484 -3.82,0 -7.95,-6.8281 -12.55,-16.668 l -7.47,3.168 c 6.84,15.8828 15.1,25.2614 26.21,25.2614 8.11,0 13.82,-6.1911 13.82,-15.0895 0,-3.6485 -0.79,-8.1094 -2.22,-13.5117" /><path
         id="path62"
         style="fill:#ed212c;fill-opacity:1;fill-rule:nonzero;stroke:none"
         d="m 2507.45,64.332 c 22.08,2.3789 30.17,10.9571 30.17,20.8086 0,4.4492 -2.54,7.9414 -7.3,7.9414 -11.13,0 -19.54,-15.0937 -22.87,-28.75 z m -1.44,-7.4609 c -0.16,-1.2695 -0.16,-2.5391 -0.16,-3.6602 0,-13.1796 6.83,-17.3125 14.78,-17.3125 7.78,0 15.57,5.2422 22.24,14.6133 l 6.67,-4.7734 c -8.1,-11.5899 -17.95,-20.3281 -34.79,-20.3281 -16.36,0 -27.8,11.4414 -27.8,28.9218 0,24.4571 21.13,47.488 46.06,47.488 13.66,0 21.29,-6.8317 21.29,-16.5309 0,-14.2774 -14.93,-26.5196 -48.29,-28.418" /><path
         id="path64"
         style="fill:#ed212c;fill-opacity:1;fill-rule:nonzero;stroke:none"
         d="m 2630.86,83.082 c 0,-6.8437 -4.29,-13.6601 -11.12,-13.6601 -5.72,0 -9.37,3.7969 -9.37,8.5664 0,4.4531 2.7,8.1133 6.51,10.8008 -1.27,2.2304 -3.96,3.9804 -8.73,3.9804 -15.89,0 -25.26,-24.3086 -25.26,-38.1289 0,-13.6601 7.31,-17.9492 14.45,-17.9492 7.31,0 14.3,5.25 20.65,15.0899 l 6.83,-4.6016 c -6.83,-11.9102 -16.2,-21.7695 -31.77,-21.7695 -17.47,0 -29.23,11.9218 -29.23,29.2304 0,24.7891 21.29,47.1794 44.01,47.1794 13.34,0 23.03,-7.4606 23.03,-18.738" /><path
         id="path66"
         style="fill:#ed212c;fill-opacity:1;fill-rule:nonzero;stroke:none"
         d="m 2675.18,88.7891 -9.53,-34.7774 c -1.11,-3.9726 -1.91,-7.6328 -1.91,-9.5429 0,-4.2774 2.22,-5.7071 5.56,-5.7071 5.71,0 10.48,6.9766 14.93,17.1485 l 7.62,-2.5391 c -7.78,-22.5625 -20.01,-27.9609 -28.58,-27.9609 -10.49,0 -17.95,5.25 -17.95,16.0507 0,4.6094 1.75,11.2774 2.85,15.7188 l 8.58,31.6094 h -13.98 l 2.55,9.7031 h 13.97 l 5.25,19.0468 18.89,2.07 -5.71,-21.1168 h 22.56 l -2.55,-9.7031 h -22.55" /><path
         id="path68"
         style="fill:#201916;fill-opacity:1;fill-rule:nonzero;stroke:none"
         d="m 0,705.559 h 108.152 l 149.11,-225.27 v 225.27 H 370.531 V 257.59 H 268.141 L 113.27,492.449 V 257.59 H 0 v 447.969" /><path
         id="path70"
         style="fill:#201916;fill-opacity:1;fill-rule:nonzero;stroke:none"
         d="M 450.559,705.559 H 759.016 V 604.441 H 564.469 V 530.852 H 739.82 V 435.5 H 564.469 V 358.699 H 761.578 V 257.59 H 450.559 v 447.969" /><path
         id="path72"
         style="fill:#201916;fill-opacity:1;fill-rule:nonzero;stroke:none"
         d="M 824.949,434.852 V 705.559 H 940.781 V 433.582 c 0,-53.762 26.239,-79.363 65.919,-79.363 40.32,0 65.91,24.32 65.91,77.429 v 273.911 h 116.47 V 436.781 c 0,-129.91 -73.59,-186.871 -183.02,-186.871 -109.435,0 -181.111,57.59 -181.111,184.942" /><path
         id="path74"
         style="fill:#201916;fill-opacity:1;fill-rule:nonzero;stroke:none"
         d="m 1355.5,601.891 h -110.71 v 103.668 h 336.62 V 601.891 H 1470.69 V 257.59 H 1355.5 v 344.301" /><path
         id="path76"
         style="fill:#201916;fill-opacity:1;fill-rule:nonzero;stroke:none"
         d="m 1813.09,487.969 c 39.03,0 62.08,22.402 62.08,58.242 v 1.277 c 0,38.403 -24.33,57.594 -62.72,57.594 h -56.31 V 487.969 Z m -171.5,217.59 h 175.98 c 60.16,0 105.59,-16 134.39,-45.438 24.96,-24.961 39.04,-59.512 39.04,-104.949 v -3.211 c 0,-66.551 -32.64,-108.141 -80,-131.82 l 92.16,-162.551 h -129.91 l -76.16,138.871 h -40.95 V 257.59 h -114.55 v 447.969" /><path
         id="path78"
         style="fill:#201916;fill-opacity:1;fill-rule:nonzero;stroke:none"
         d="m 2341.72,477.738 v 7.043 c 0,77.43 -37.12,124.778 -90.23,124.778 -53.12,0 -89.59,-46.719 -89.59,-124.149 v -7.039 c 0,-77.43 37.12,-124.781 90.23,-124.781 53.75,0 89.59,46.699 89.59,124.148 z m -297.57,-1.277 v 9.598 c 0,133.75 87.67,227.82 207.98,227.82 120.95,0 207.35,-92.789 207.35,-227.188 v -9.601 c 0,-133.75 -87.68,-227.82 -207.99,-227.82 -120.95,0 -207.34,92.789 -207.34,227.191" /><path
         id="path80"
         style="fill:#201916;fill-opacity:1;fill-rule:nonzero;stroke:none"
         d="m 2527.35,705.559 h 108.14 l 149.11,-225.27 v 225.27 h 113.28 V 257.59 h -102.4 L 2640.62,492.449 V 257.59 h -113.27 v 447.969" /><path
         id="path82"
         style="fill:#ed212c;fill-opacity:1;fill-rule:nonzero;stroke:none"
         d="m 1452.17,1735.44 c 49.97,0 90.61,-40.64 90.61,-90.62 0,-49.96 -40.64,-90.6 -90.61,-90.6 -49.97,0 -90.49,40.64 -90.49,90.6 0,49.98 40.52,90.62 90.49,90.62" /><path
         id="path84"
         style="fill:#ed212c;fill-opacity:1;fill-rule:nonzero;stroke:none"
         d="m 1452.17,1879.21 c 22.72,0 41.26,-18.42 41.26,-41.13 0,-22.83 -18.54,-41.25 -41.26,-41.25 -22.71,0 -41.25,18.42 -41.25,41.25 0,22.71 18.54,41.13 41.25,41.13" /><path
         id="path86"
         style="fill:#971829;fill-opacity:1;fill-rule:nonzero;stroke:none"
         d="m 1452.17,1606.4 c -40.9,0 -75.43,27.24 -86.63,64.52 -23.66,35.33 -35.97,-15.07 -35.97,-24.14 0,-49.97 72.63,-116.89 122.6,-116.89 49.97,0 117.32,60.77 117.32,110.74 0,9.07 -6.15,57.41 -30.57,30.29 -11.23,-37.28 -45.85,-64.52 -86.75,-64.52" /><path
         id="path88"
         style="fill:#971829;fill-opacity:1;fill-rule:nonzero;stroke:none"
         d="m 1452.21,1820.6 c -18.63,0 -34.36,12.4 -39.47,29.39 -1.12,-3.77 -25.75,-6.32 -25.75,-10.46 0,-22.76 42.45,-59.46 65.22,-59.46 22.76,0 59.87,36.7 59.87,59.46 0,4.14 -19.22,6.69 -20.36,10.46 -5.12,-16.99 -20.89,-29.39 -39.51,-29.39" /><path
         id="path90"
         style="fill:#201916;fill-opacity:1;fill-rule:nonzero;stroke:none"
         d="m 1999.89,1508.79 c 2.09,-10.31 -8.97,-18.3 -18.05,-13.01 l -65.08,37.57 c -3.18,1.96 -5.51,5.15 -6.01,8.83 -23.21,148.69 -23.21,299.09 0,447.78 0.5,3.68 2.83,7 6.01,8.84 l 65.08,37.57 c 9.21,5.28 20.14,-2.58 18.16,-13.02 -32.52,-169.8 -32.52,-344.64 -0.11,-514.56 z m -51.08,-88.28 c -163.17,-56.85 -314.68,-144.26 -445.44,-257.22 -7.98,-7 -20.38,-1.47 -20.38,9.09 v 75.14 c 0,3.8 1.72,7.36 4.67,9.7 117.13,94.41 247.39,169.68 387.73,223.82 3.44,1.35 7.49,1.11 10.68,-0.86 l 65.08,-37.44 c 9.08,-5.28 7.73,-18.79 -2.34,-22.23 z m -488.9,-106.69 c -4.42,-3.44 -10.68,-3.44 -15.11,0 -52.17,41.38 -106.81,78.82 -163.66,112.71 -4.54,2.7 -6.87,8.1 -5.76,13.26 8.71,40.76 20.38,78.21 34.49,111.11 3.68,8.6 15.35,10.2 21,2.71 27.75,-36.84 71.7,-60.78 121.3,-60.78 49.61,0 93.68,23.94 121.43,60.78 5.53,7.49 17.19,5.89 20.87,-2.71 14.13,-32.9 25.91,-70.47 34.63,-111.36 1.1,-5.15 -1.23,-10.43 -5.77,-13.13 -56.73,-33.89 -111.36,-71.34 -163.42,-112.59 z M 1421.6,1172.5 c 0,-10.56 -12.4,-16.08 -20.38,-9.21 -130.76,112.96 -282.14,200.37 -445.439,257.22 -9.945,3.44 -11.293,16.95 -2.211,22.23 l 65.07,37.44 c 3.2,1.97 7.13,2.21 10.69,0.86 140.33,-54.14 270.6,-129.41 387.73,-223.82 2.94,-2.34 4.54,-5.9 4.54,-9.7 z m -516.893,336.29 c 32.535,169.92 32.535,344.76 0,514.56 -1.969,10.32 8.961,18.3 18.168,13.02 l 65.074,-37.57 c 3.196,-1.84 5.406,-5.16 6.016,-8.84 23.205,-148.69 23.205,-299.09 0,-447.78 -0.61,-3.68 -2.82,-6.87 -6.016,-8.71 l -65.074,-37.57 c -9.207,-5.28 -20.137,2.58 -18.168,12.89 z m 51.074,602.96 c 163.299,56.73 314.559,144.14 445.439,257.1 7.98,6.87 20.38,1.35 20.38,-9.21 v -75.14 c 0,-3.68 -1.72,-7.24 -4.66,-9.57 -117.14,-94.42 -247.28,-169.56 -387.61,-223.83 -3.56,-1.35 -7.49,-0.98 -10.69,0.86 l -65.07,37.58 c -9.207,5.27 -7.734,18.65 2.211,22.21 z m 139.359,-115.29 c -3.93,6.27 -1.11,14.62 5.76,17.56 34.63,14.74 68.64,30.7 101.91,47.89 7.12,3.68 15.59,-0.25 17.56,-7.98 22.47,-90.62 59.3,-165.02 105.46,-213.27 8.97,-9.33 -0.98,-24.19 -13.13,-19.89 -90.98,32.17 -167.59,94.78 -217.56,175.69 z m 0,-460.66 c 45.79,74.04 113.93,132.85 194.97,166.86 9.45,4.05 19.4,-4.91 16.45,-14.74 -2.82,-9.45 -4.67,-19.15 -5.65,-29.22 -34.13,-46.41 -61.63,-108.29 -79.93,-180.85 -1.84,-7.74 -10.43,-11.66 -17.43,-7.98 -33.52,17.44 -67.77,33.52 -102.65,48.37 -6.87,2.83 -9.69,11.18 -5.76,17.56 z m -27.51,356.67 c -0.98,11.67 13.63,17.93 21.37,9.09 45.67,-52.8 102.76,-95.4 167.34,-124.38 9.58,-4.29 9.58,-17.8 0,-22.22 -64.58,-28.85 -121.67,-71.58 -167.34,-124.25 -7.74,-8.84 -22.35,-2.58 -21.37,9.08 7.13,84.11 7.13,168.46 0,252.68 z m 343.29,-54.39 c 0,22.71 18.54,41.13 41.25,41.13 22.72,0 41.26,-18.42 41.26,-41.13 0,-22.83 -18.54,-41.25 -41.26,-41.25 -22.71,0 -41.25,18.42 -41.25,41.25 z m 41.25,-102.64 c 49.97,0 90.61,-40.64 90.61,-90.62 0,-49.96 -40.64,-90.6 -90.61,-90.6 -49.97,0 -90.49,40.64 -90.49,90.6 0,49.98 40.52,90.62 90.49,90.62 z m -7.37,482.89 c 4.43,3.44 10.69,3.44 15.11,0 52.18,-41.38 107.06,-78.95 163.91,-112.84 4.54,-2.7 6.87,-7.98 5.89,-13.13 -16.57,-78.58 -44.08,-145.13 -78.08,-189.94 -5.04,-6.51 -14.49,-6.39 -19.65,-0.13 -18.79,23.33 -47.52,38.31 -79.81,38.31 -32.17,0 -60.9,-14.98 -79.8,-38.31 -5.04,-6.26 -14.61,-6.38 -19.52,0.13 -34.01,44.69 -61.52,111.23 -78.09,189.81 -1.11,5.04 1.23,10.44 5.77,13.02 57.09,34 111.97,71.7 164.27,113.08 z m 146.97,-397.56 c -12.28,-4.3 -22.22,10.56 -13.26,19.89 46.16,48.38 83.13,122.78 105.6,213.39 1.83,7.74 10.31,11.79 17.43,8.1 33.4,-17.31 67.4,-33.27 102.03,-48 6.87,-2.95 9.7,-11.3 5.76,-17.56 -49.96,-80.91 -126.58,-143.65 -217.56,-175.82 z m 22.59,-118.11 c 81.04,-34.01 149.18,-92.82 194.97,-166.98 3.94,-6.39 1.11,-14.61 -5.76,-17.56 -34.87,-14.86 -69.13,-30.94 -102.65,-48.37 -7.12,-3.69 -15.59,0.24 -17.56,7.98 -18.17,72.56 -45.79,134.56 -79.92,180.97 -0.86,10.07 -2.83,19.77 -5.65,29.22 -2.95,9.83 7,18.79 16.57,14.74 z m 222.72,-63.23 c 0.98,-11.67 -13.63,-18.05 -21.36,-9.22 -45.79,52.93 -102.89,95.77 -167.59,124.75 -9.7,4.42 -9.7,17.93 0,22.22 64.7,28.98 121.8,71.83 167.59,124.75 7.73,8.83 22.34,2.57 21.36,-9.09 -7.11,-84.47 -7.11,-169.06 0,-253.41 z m -354.09,720.34 c 0,10.68 12.28,16.2 20.26,9.21 130.88,-112.96 282.26,-200.5 445.56,-257.23 10.07,-3.43 11.42,-16.94 2.34,-22.21 l -65.08,-37.58 c -3.19,-1.84 -7.24,-2.21 -10.68,-0.86 -140.34,54.27 -270.73,129.53 -387.86,223.95 -2.94,2.33 -4.54,5.89 -4.54,9.7 z m 681.91,-969.71 -82.01,47.4 c -2.83,1.59 -4.92,4.42 -5.78,7.73 -53.28,210.32 -53.28,431.44 0,641.89 0.75,3.19 2.95,6.01 5.78,7.73 l 82.01,47.27 c 5.9,3.44 7.86,10.92 4.55,16.82 l -18.42,31.92 c -3.44,5.89 -10.93,7.86 -16.83,4.42 l -82.01,-47.39 c -2.95,-1.6 -6.38,-2.09 -9.58,-1.1 -208.85,58.93 -400.38,169.55 -555.94,320.94 -2.33,2.33 -3.68,5.52 -3.68,8.96 v 94.66 c 0,6.75 -5.52,12.28 -12.28,12.28 h -36.83 c -6.87,0 -12.28,-5.53 -12.28,-12.28 v -94.91 c 0,-3.31 -1.35,-6.63 -3.8,-8.96 -155.56,-151.26 -346.97,-261.76 -555.823,-320.81 -3.192,-0.87 -6.629,-0.5 -9.575,1.22 l -82.136,47.39 c -5.895,3.44 -13.387,1.47 -16.825,-4.42 l -18.418,-31.92 c -3.308,-5.9 -1.347,-13.38 4.547,-16.82 l 82.141,-47.39 c 2.941,-1.72 5.031,-4.42 5.891,-7.73 53.289,-210.33 53.289,-431.33 0,-641.77 -0.739,-3.19 -2.95,-6.01 -5.77,-7.61 l -82.262,-47.52 c -5.894,-3.43 -7.855,-10.92 -4.547,-16.82 l 18.418,-31.8 c 3.438,-5.89 10.93,-7.98 16.825,-4.54 l 82.136,47.39 c 2.946,1.72 6.383,2.09 9.575,1.23 208.853,-59.06 400.263,-169.56 555.823,-320.82 2.45,-2.34 3.8,-5.53 3.8,-8.97 v -94.898 c 0,-6.762 5.41,-12.273 12.28,-12.273 h 36.83 c 6.76,0 12.28,5.511 12.28,12.273 v 94.788 c 0,3.31 1.35,6.63 3.68,8.96 155.56,151.26 347.09,261.88 555.94,320.94 3.2,0.86 6.63,0.49 9.58,-1.23 l 82.01,-47.39 c 5.9,-3.44 13.39,-1.35 16.83,4.54 l 18.42,31.8 c 3.31,5.9 1.35,13.39 -4.55,16.82" /></g></g></svg>