<?xml version="1.0" encoding="UTF-8" standalone="no"?>
<svg
   xmlns:dc="http://purl.org/dc/elements/1.1/"
   xmlns:cc="http://creativecommons.org/ns#"
   xmlns:rdf="http://www.w3.org/1999/02/22-rdf-syntax-ns#"
   xmlns:svg="http://www.w3.org/2000/svg"
   xmlns="http://www.w3.org/2000/svg"
   viewBox="0 0 332.73334 342.92001"
   height="342.92001"
   width="332.73334"
   xml:space="preserve"
   id="svg2"
   version="1.1"><metadata
     id="metadata8"><rdf:RDF><cc:Work
         rdf:about=""><dc:format>image/svg+xml</dc:format><dc:type
           rdf:resource="http://purl.org/dc/dcmitype/StillImage" /></cc:Work></rdf:RDF></metadata><defs
     id="defs6" /><g
     transform="matrix(1.3333333,0,0,-1.3333333,0,342.92)"
     id="g10"><g
       transform="scale(0.1)"
       id="g12"><path
         id="path14"
         style="fill:#ed212c;fill-opacity:1;fill-rule:nonzero;stroke:none"
         d="m 51.3086,78.7813 c 0,8.2578 -3.0195,12.707 -8.5781,12.707 -14.1367,0 -23.5078,-26.3672 -23.5078,-39.2383 0,-9.3594 3.3359,-14.1289 9.2148,-14.1289 12.8672,0 22.8711,27.7891 22.8711,40.6602 z M 63.5391,51.4609 c -1.2696,-4.1328 -1.7461,-6.9921 -1.7461,-9.0507 0,-2.711 1.2695,-4.1289 3.6523,-4.1289 3.4961,0 6.9922,5.3984 10.6445,16.039 l 7.6211,-2.3789 C 77.5195,32.5508 68.9414,25.4102 59.2539,25.4102 c -7.4687,0 -13.0273,4.7617 -13.0273,13.9804 0,1.1094 0,1.8985 0.1601,3.5 l -1.1133,0.461 C 39.2383,31.4414 30.1797,25.4102 21.1289,25.4102 7.46484,25.4102 0,36.6797 0,50.6719 c 0,16.1992 6.51172,30.6484 15.0938,39.0664 7.4648,7.6328 15.8828,12.0707 24.7773,12.0707 8.8984,0 13.9766,-6.1879 15.4062,-13.3402 L 58.457,100.699 H 76.5625 L 63.5391,51.4609" /><path
         id="path16"
         style="fill:#ed212c;fill-opacity:1;fill-rule:nonzero;stroke:none"
         d="m 163.289,38.2813 c 3.336,0 6.676,5.0703 10.965,16.039 l 7.465,-2.3789 c -6.352,-19.2226 -15.25,-26.5312 -24.301,-26.5312 -8.578,0 -14.141,5.5586 -14.141,14.7695 0,15.8906 10.485,31.6094 10.485,42.4101 0,3.6602 -1.59,5.25 -4.289,5.25 -7.305,0 -20.965,-12.0703 -33.676,-60.8398 H 96.7383 l 13.6567,51.4609 c 2.382,9.0508 1.91,11.5899 -0.954,11.5899 -3.652,0 -7.781,-6.8203 -12.3863,-16.6719 l -7.4649,3.1797 c 6.8321,15.8828 14.7692,25.1014 25.4142,25.1014 6.832,0 11.598,-4.9295 11.598,-14.7811 0,-4.6094 -0.957,-10.3203 -3.34,-17.6289 l 1.113,-0.4805 c 10.484,22.4024 22.234,33.0395 33.516,33.0395 8.894,0 14.457,-6.9887 14.457,-16.5199 0,-13.5 -11.758,-33.8282 -11.758,-43.5196 0,-2.3789 0.953,-3.4882 2.699,-3.4882" /><path
         id="path18"
         style="fill:#ed212c;fill-opacity:1;fill-rule:nonzero;stroke:none"
         d="m 242.551,63.3711 c 0,-18.4219 9.051,-27.3203 23.98,-27.3203 25.895,0 36.379,38.5976 36.379,59.0898 0,18.4294 -9.215,27.3284 -23.984,27.3284 -26.051,0 -36.375,-38.6096 -36.375,-59.0979 z m 37.168,70.6879 c 26.051,0 44.32,-18.59 44.32,-45.9106 0,-30.6484 -23.031,-63.6875 -58.297,-63.6875 -26.051,0 -44.476,18.5782 -44.476,45.9102 0,30.6489 23.031,63.6879 58.453,63.6879" /><path
         id="path20"
         style="fill:#ed212c;fill-opacity:1;fill-rule:nonzero;stroke:none"
         d="m 361.52,49.8711 c 0,-7.7813 3.335,-13.1914 10.32,-13.1914 14.137,0 22.082,26.6914 22.082,39.2422 0,8.8984 -2.863,13.5 -8.734,13.5 -12.711,0 -23.668,-25.5703 -23.668,-39.5508 z m -12.868,38.7578 c -3.656,0 -6.511,-4.6094 -11.597,-15.25 l -7.465,3.1797 c 7.621,17.4727 15.09,25.1014 25.098,25.1014 7.148,0 11.914,-5.2498 11.914,-14.3006 0,-1.1094 -0.161,-2.5391 -0.325,-3.9805 l 1.278,-0.457 c 6.035,12.5273 15.722,18.8871 24.461,18.8871 13.339,0 20.968,-10.9574 20.968,-25.7309 0,-25.5781 -17.632,-49.2383 -37.171,-49.2383 -8.418,0 -15.09,4.2891 -18.11,10.6485 l -6.351,-23.6797 h 14.925 L 363.105,2.05859 h -44 l 3.176,11.75001 h 10.801 l 16.84,62.9023 c 2.383,8.8985 1.586,11.918 -1.27,11.918" /><path
         id="path22"
         style="fill:#ed212c;fill-opacity:1;fill-rule:nonzero;stroke:none"
         d="m 442.52,64.3203 c 22.082,2.3789 30.179,10.9688 30.179,20.8086 0,4.4609 -2.539,7.9414 -7.304,7.9414 -11.118,0 -19.536,-15.0898 -22.875,-28.75 z m -1.426,-7.4609 c -0.16,-1.2696 -0.16,-2.5391 -0.16,-3.6485 0,-13.1914 6.832,-17.3203 14.769,-17.3203 7.789,0 15.57,5.25 22.242,14.6094 l 6.668,-4.7617 c -8.097,-11.5899 -17.949,-20.3281 -34.785,-20.3281 -16.359,0 -27.797,11.4296 -27.797,28.9101 0,24.461 21.129,47.4887 46.067,47.4887 13.66,0 21.281,-6.8207 21.281,-16.5199 0,-14.2891 -14.93,-26.5274 -48.285,-28.4297" /><path
         id="path24"
         style="fill:#ed212c;fill-opacity:1;fill-rule:nonzero;stroke:none"
         d="m 571.184,38.2813 c 3.332,0 6.671,5.0703 10.961,16.039 l 7.464,-2.3789 c -6.351,-19.2226 -15.25,-26.5312 -24.3,-26.5312 -8.579,0 -14.141,5.5586 -14.141,14.7695 0,15.8906 10.48,31.6094 10.48,42.4101 0,3.6602 -1.585,5.25 -4.285,5.25 -7.304,0 -20.968,-12.0703 -33.675,-60.8398 h -19.059 l 13.656,51.4609 c 2.383,9.0508 1.91,11.5899 -0.949,11.5899 -3.652,0 -7.785,-6.8203 -12.391,-16.6719 l -7.465,3.1797 c 6.833,15.8828 14.77,25.1014 25.415,25.1014 6.832,0 11.597,-4.9295 11.597,-14.7811 0,-4.6094 -0.957,-10.3203 -3.34,-17.6289 l 1.114,-0.4805 c 10.484,22.4024 22.238,33.0395 33.515,33.0395 8.899,0 14.457,-6.9887 14.457,-16.5199 0,-13.5 -11.758,-33.8282 -11.758,-43.5196 0,-2.3789 0.954,-3.4882 2.704,-3.4882" /><path
         id="path26"
         style="fill:#ed212c;fill-opacity:1;fill-rule:nonzero;stroke:none"
         d="m 606.121,64.1719 h 11.281 c 3.02,-19.0703 14.137,-28.4336 28.118,-28.4336 12.546,0 19.851,7.9414 19.851,16.2031 0,9.207 -10.484,13.4883 -21.762,18.7383 -13.183,5.8789 -27.636,12.8711 -27.636,29.7113 0,17.781 16.043,33.668 37.168,33.668 11.277,0 21.761,-4.61 27.004,-12.071 l 6.511,11.59 h 11.914 l -9.371,-37.6483 h -11.117 c -3.336,19.6993 -11.281,27.0003 -24.941,27.0003 -10.325,0 -17.633,-7.461 -17.633,-15.719 0,-10.0118 10.801,-14.2891 22.242,-19.3712 13.02,-5.5703 27,-12.2382 27,-28.9179 0,-19.5313 -17.312,-34.461 -39.074,-34.461 -13.821,0 -24.145,5.0782 -30.184,12.6993 l -6.984,-12.2188 h -11.914 l 9.527,39.2305" /><path
         id="path28"
         style="fill:#ed212c;fill-opacity:1;fill-rule:nonzero;stroke:none"
         d="M 736.848,88.7813 727.313,54 c -1.106,-3.9687 -1.903,-7.6289 -1.903,-9.5312 0,-4.2891 2.223,-5.7188 5.563,-5.7188 5.715,0 10.48,6.9883 14.925,17.1484 l 7.625,-2.539 c -7.781,-22.5508 -20.011,-27.9492 -28.589,-27.9492 -10.485,0 -17.954,5.2382 -17.954,16.039 0,4.6094 1.75,11.2813 2.864,15.7227 l 8.578,31.6094 h -13.981 l 2.539,9.6992 h 13.981 l 5.246,19.0505 18.898,2.071 -5.714,-21.1215 h 22.55 l -2.539,-9.6992 h -22.554" /><path
         id="path30"
         style="fill:#ed212c;fill-opacity:1;fill-rule:nonzero;stroke:none"
         d="m 817.219,78.7813 c 0,8.2578 -3.02,12.707 -8.582,12.707 -14.133,0 -23.504,-26.3672 -23.504,-39.2383 0,-9.3594 3.336,-14.1289 9.215,-14.1289 12.863,0 22.871,27.7891 22.871,40.6602 z m 12.23,-27.3204 c -1.269,-4.1328 -1.75,-6.9921 -1.75,-9.0507 0,-2.711 1.27,-4.1289 3.653,-4.1289 3.496,0 6.992,5.3984 10.644,16.039 l 7.621,-2.3789 C 843.43,32.5508 834.848,25.4102 825.16,25.4102 c -7.465,0 -13.027,4.7617 -13.027,13.9804 0,1.1094 0,1.8985 0.164,3.5 l -1.113,0.461 C 805.145,31.4414 796.09,25.4102 787.035,25.4102 c -13.66,0 -21.129,11.2695 -21.129,25.2617 0,16.1992 6.516,30.6484 15.094,39.0664 7.469,7.6328 15.887,12.0707 24.781,12.0707 8.899,0 13.977,-6.1879 15.407,-13.3402 l 3.175,12.2302 h 18.11 L 829.449,51.4609" /><path
         id="path32"
         style="fill:#ed212c;fill-opacity:1;fill-rule:nonzero;stroke:none"
         d="m 922.367,83.0703 c 0,-6.832 -4.285,-13.6601 -11.117,-13.6601 -5.719,0 -9.371,3.8086 -9.371,8.5703 0,4.4609 2.699,8.1093 6.512,10.8008 -1.274,2.2304 -3.973,3.9804 -8.739,3.9804 -15.882,0 -25.254,-24.3125 -25.254,-38.1328 0,-13.6601 7.305,-17.9492 14.454,-17.9492 7.304,0 14.296,5.25 20.652,15.0898 l 6.828,-4.5976 c -6.828,-11.9102 -16.199,-21.7617 -31.766,-21.7617 -17.476,0 -29.23,11.9101 -29.23,29.2187 0,24.793 21.285,47.1801 44,47.1801 13.344,0 23.031,-7.4574 23.031,-18.7387" /><path
         id="path34"
         style="fill:#ed212c;fill-opacity:1;fill-rule:nonzero;stroke:none"
         d="m 989.719,38.2813 c 3.496,0 6.511,5.0703 10.641,16.039 l 7.47,-2.3789 c -6.04,-19.2226 -14.299,-26.5312 -23.514,-26.5312 -8.894,0 -14.769,5.8711 -14.769,16.1992 0,4.4492 1.746,10.8008 1.746,14.289 0,5.8829 -2.543,7.3204 -14.141,7.3204 h -0.316 L 947.148,27 h -17.949 l 25.735,97.051 h -13.188 l 3.176,12.39 h 31.609 L 958.746,70.3711 h 0.789 c 8.418,0 11.914,4.75 18.906,16.3477 5.243,8.582 10.485,15.0902 19.856,15.0902 7.623,0 11.753,-4.7582 11.753,-11.5902 0,-6.668 -4.29,-13.3477 -10.804,-13.3477 -6.351,0 -9.683,5.5703 -7.465,12.0781 -2.218,-0.4804 -4.601,-3.1797 -8.258,-9.2187 -3.175,-5.8789 -5.718,-9.211 -10.488,-11.75 11.281,-0.9492 14.934,-5.8789 14.934,-13.3516 0,-4.5976 -1.27,-9.207 -1.27,-12.0703 0,-3.168 1.27,-4.2773 3.02,-4.2773" /><path
         id="path36"
         style="fill:#ed212c;fill-opacity:1;fill-rule:nonzero;stroke:none"
         d="m 1076.6,68.7695 c 0,31.9295 23.51,65.2895 58.45,65.2895 13.19,0 23.03,-4.77 28.44,-12.86 l 6.51,12.379 h 12.23 l -10.17,-41.2967 h -11.91 c -1.59,22.8667 -11.6,30.1877 -24.46,30.1877 -28.12,0 -37.81,-37.8206 -37.81,-55.2893 0,-21.1211 10.8,-30.0195 24.62,-30.0195 16.84,0 26.69,12.7109 34.63,31.4609 l 11.28,-3.9805 c -7.95,-22.2304 -22.72,-40.1797 -48.13,-40.1797 -29.23,0 -43.68,18.5782 -43.68,44.3086" /><path
         id="path38"
         style="fill:#ed212c;fill-opacity:1;fill-rule:nonzero;stroke:none"
         d="m 1220.83,93.0703 c -14.78,0 -23.2,-28.8984 -23.2,-44.3203 0,-10.1602 4.29,-14.4492 11.12,-14.4492 14.78,0 23.19,28.918 23.19,44.3203 0,10.1602 -4.28,14.4492 -11.11,14.4492 z m 30.01,-21.9101 c 0,-24.7891 -19.85,-45.75 -41.93,-45.75 -18.27,0 -30.18,12.8711 -30.18,30.8203 0,24.7695 19.85,45.5785 41.93,45.5785 18.27,0 30.18,-12.6996 30.18,-30.6488" /><path
         id="path40"
         style="fill:#ed212c;fill-opacity:1;fill-rule:nonzero;stroke:none"
         d="m 1354.09,40.1797 c 0,15.8906 10.48,31.6094 10.48,42.4101 0,3.6602 -1.59,5.25 -4.29,5.25 -6.98,0 -20.8,-12.0703 -33.51,-60.8398 h -18.75 l 11.13,41.9297 c 1.42,5.2422 2.22,9.0508 2.22,12.0703 0,3.8203 -1.27,6.8398 -4.77,6.8398 -7.3,0 -20.97,-12.0703 -33.68,-60.8398 h -19.05 l 13.65,51.4609 c 2.39,9.0508 1.91,11.5899 -0.95,11.5899 -3.65,0 -7.78,-6.8203 -12.39,-16.6719 l -7.46,3.1797 c 6.83,15.8828 14.77,25.1014 25.41,25.1014 6.83,0 11.6,-4.9295 11.6,-14.7811 0,-4.6094 -0.96,-10.3203 -3.34,-17.6289 l 1.11,-0.4805 c 10.49,22.4024 22.24,33.0395 33.05,33.0395 8.73,0 13.34,-5.8793 13.34,-15.4106 0,-4.4375 -1.27,-9.8398 -3.66,-17.1484 l 1.12,-0.4805 c 10.48,22.4024 22.23,33.0395 33.51,33.0395 8.74,0 14.3,-6.9887 14.3,-16.5199 0,-13.5 -11.76,-33.8282 -11.76,-43.5196 0,-2.3789 0.96,-3.4882 2.7,-3.4882 3.34,0 6.68,5.0703 10.96,16.039 l 7.47,-2.3789 c -6.35,-19.2226 -15.25,-26.5312 -24.3,-26.5312 -8.58,0 -14.14,5.5586 -14.14,14.7695" /><path
         id="path42"
         style="fill:#ed212c;fill-opacity:1;fill-rule:nonzero;stroke:none"
         d="m 1493.39,40.1797 c 0,15.8906 10.49,31.6094 10.49,42.4101 0,3.6602 -1.59,5.25 -4.29,5.25 -6.99,0 -20.81,-12.0703 -33.52,-60.8398 h -18.75 l 11.13,41.9297 c 1.42,5.2422 2.21,9.0508 2.21,12.0703 0,3.8203 -1.27,6.8398 -4.75,6.8398 -7.32,0 -20.98,-12.0703 -33.68,-60.8398 h -19.07 l 13.67,51.4609 c 2.38,9.0508 1.9,11.5899 -0.95,11.5899 -3.66,0 -7.78,-6.8203 -12.39,-16.6719 l -7.47,3.1797 c 6.83,15.8828 14.77,25.1014 25.42,25.1014 6.82,0 11.59,-4.9295 11.59,-14.7811 0,-4.6094 -0.95,-10.3203 -3.33,-17.6289 l 1.11,-0.4805 c 10.48,22.4024 22.24,33.0395 33.04,33.0395 8.73,0 13.34,-5.8793 13.34,-15.4106 0,-4.4375 -1.27,-9.8398 -3.65,-17.1484 l 1.11,-0.4805 c 10.48,22.4024 22.23,33.0395 33.51,33.0395 8.74,0 14.3,-6.9887 14.3,-16.5199 0,-13.5 -11.76,-33.8282 -11.76,-43.5196 0,-2.3789 0.96,-3.4882 2.71,-3.4882 3.33,0 6.67,5.0703 10.96,16.039 l 7.47,-2.3789 c -6.36,-19.2226 -15.26,-26.5312 -24.31,-26.5312 -8.57,0 -14.14,5.5586 -14.14,14.7695" /><path
         id="path44"
         style="fill:#ed212c;fill-opacity:1;fill-rule:nonzero;stroke:none"
         d="m 1591.08,40.3398 c 0,3.9688 0.95,10.0118 3.49,18.1094 l -1.1,0.4727 c -10.49,-23.0313 -21.61,-33.5117 -33.05,-33.5117 -8.73,0 -14.45,6.8281 -14.45,16.6796 0,13.3399 11.28,34.4688 11.28,43.5196 0,2.2304 -0.96,3.3398 -2.39,3.3398 -3.34,0 -6.03,-3.5 -11.75,-15.4101 l -7.47,3.1718 c 6.52,15.7305 14.94,25.0981 25.89,25.0981 8.42,0 13.35,-5.2387 13.35,-14.4496 0,-14.7774 -10.49,-31.6094 -10.49,-41.7813 0,-4.4375 1.75,-6.1875 4.45,-6.1875 7.15,0 20.33,11.75 33.36,61.3084 h 19.06 l -13.03,-49.2381 c -1.27,-4.289 -1.75,-6.9921 -1.75,-9.0507 0,-2.711 1.44,-4.1289 3.66,-4.1289 3.66,0 6.99,5.3984 10.64,16.039 l 7.63,-2.3789 c -6.19,-19.3906 -14.78,-26.5312 -23.83,-26.5312 -8.26,0 -13.5,4.6015 -13.5,14.9296" /><path
         id="path46"
         style="fill:#ed212c;fill-opacity:1;fill-rule:nonzero;stroke:none"
         d="m 1704.34,38.2813 c 3.33,0 6.67,5.0703 10.95,16.039 l 7.46,-2.3789 c -6.34,-19.2226 -15.24,-26.5312 -24.29,-26.5312 -8.59,0 -14.14,5.5586 -14.14,14.7695 0,15.8906 10.48,31.6094 10.48,42.4101 0,3.6602 -1.59,5.25 -4.28,5.25 -7.32,0 -20.98,-12.0703 -33.68,-60.8398 h -19.07 l 13.67,51.4609 c 2.38,9.0508 1.9,11.5899 -0.95,11.5899 -3.66,0 -7.78,-6.8203 -12.39,-16.6719 l -7.47,3.1797 c 6.83,15.8828 14.77,25.1014 25.41,25.1014 6.83,0 11.6,-4.9295 11.6,-14.7811 0,-4.6094 -0.95,-10.3203 -3.33,-17.6289 l 1.11,-0.4805 c 10.48,22.4024 22.24,33.0395 33.52,33.0395 8.88,0 14.45,-6.9887 14.45,-16.5199 0,-13.5 -11.76,-33.8282 -11.76,-43.5196 0,-2.3789 0.96,-3.4882 2.71,-3.4882" /><path
         id="path48"
         style="fill:#ed212c;fill-opacity:1;fill-rule:nonzero;stroke:none"
         d="m 1762.77,112.93 c -5.55,0 -9.84,3.808 -9.84,10.172 0,6.507 4.92,13.976 13.34,13.976 6.03,0 10.17,-3.808 10.17,-10.168 0,-6.359 -5.24,-13.98 -13.67,-13.98 z m -7.61,-70.8402 c 0,-2.6992 1.11,-3.8085 3.17,-3.8085 3.02,0 6.51,4.2773 11.28,16.039 l 7.46,-2.3789 c -6.19,-18.75 -15.09,-26.5312 -25.25,-26.5312 -8.27,0 -14.3,5.3984 -14.3,14.9296 0,15.0899 13.18,36.3711 13.18,46.2305 0,2.5391 -0.94,3.4805 -2.38,3.4805 -4.44,0 -8.42,-6.8203 -12.86,-16.6719 l -7.63,3.1797 c 6.83,15.8828 15.26,25.2504 26.06,25.2504 8.25,0 14.13,-5.8793 14.13,-16.0395 0,-12.3906 -12.86,-34.4687 -12.86,-43.6797" /><path
         id="path50"
         style="fill:#ed212c;fill-opacity:1;fill-rule:nonzero;stroke:none"
         d="M 1818.85,88.7813 1809.32,54 c -1.12,-3.9687 -1.92,-7.6289 -1.92,-9.5312 0,-4.2891 2.23,-5.7188 5.57,-5.7188 5.71,0 10.48,6.9883 14.93,17.1484 l 7.63,-2.539 c -7.8,-22.5508 -20.02,-27.9492 -28.6,-27.9492 -10.48,0 -17.95,5.2382 -17.95,16.039 0,4.6094 1.75,11.2813 2.86,15.7227 l 8.58,31.6094 h -13.98 l 2.54,9.6992 h 13.98 l 5.24,19.0505 18.9,2.071 -5.71,-21.1215 h 22.56 l -2.55,-9.6992 h -22.55" /><path
         id="path52"
         style="fill:#ed212c;fill-opacity:1;fill-rule:nonzero;stroke:none"
         d="m 1881.44,87.9883 c 0,-14.6094 -9.22,-28.8985 -9.22,-38.1172 0,-3.9727 1.74,-5.5625 5.24,-5.5625 8.42,0 19.7,9.5312 31.77,56.3904 h 17.79 L 1912.4,39.3906 C 1905.58,10.1602 1889.53,0 1869.68,0 c -11.13,0 -24.47,3.01172 -24.47,14.7695 0,5.0821 3.81,11.4414 10.96,11.4414 6.36,0 9.53,-4.4609 9.22,-9.6992 -0.17,-2.5429 -1.59,-5.4023 -3.18,-6.83201 1.91,-0.62891 4.29,-1.10938 7.31,-1.10938 12.38,0 20.8,10.00779 26.2,32.08989 l 3.19,12.5507 -0.96,0.4805 c -9.21,-16.8516 -19.06,-23.043 -28.27,-23.043 -10.49,0 -15.72,7.3008 -15.72,16.5235 0,12.2265 10.16,29.3867 10.16,38.4375 0,2.0625 -0.96,3.3398 -2.38,3.3398 -3.98,0 -7.78,-6.5078 -12.08,-15.5703 l -7.46,3.1797 c 6.99,15.8828 15.72,25.2504 26.21,25.2504 8.09,0 13.03,-5.3988 13.03,-13.8207" /><path
         id="path54"
         style="fill:#ed212c;fill-opacity:1;fill-rule:nonzero;stroke:none"
         d="m 2011.36,80.0508 c 20.33,0 27.48,12.7109 27.48,24.9372 0,9.211 -5.57,14.774 -21.29,14.774 h -6.83 l -9.85,-39.7112 z m -20.81,-41.1406 h 17.31 L 2005.16,27 h -53.37 l 2.7,11.9102 h 16.04 l 20.02,80.6918 h -16.2 l 3.01,11.918 h 44 c 28.76,0 39.71,-11.758 39.71,-26.692 0,-15.8788 -10.95,-36.0585 -50.35,-36.0585 h -12.71 l -7.46,-29.8593" /><path
         id="path56"
         style="fill:#ed212c;fill-opacity:1;fill-rule:nonzero;stroke:none"
         d="m 2085.85,78.4609 c 2.38,9.0508 1.9,11.5899 -0.95,11.5899 -3.66,0 -7.78,-6.8203 -12.39,-16.6719 l -7.47,3.1797 c 6.84,15.8828 14.77,25.1014 25.42,25.1014 6.83,0 11.59,-4.9295 11.59,-14.7811 0,-4.6094 -0.95,-10.168 -3.17,-17.1601 l 1.27,-0.4688 c 9.21,20.9688 16.83,32.559 27.96,32.559 6.67,0 11.59,-4.6098 11.59,-12.0707 0,-7.9375 -5.08,-14.2969 -11.44,-14.2969 -5.55,0 -9.84,3.6602 -9.53,10.3281 C 2114.12,83.8594 2102.69,70.3711 2091.25,27 h -19.06 l 13.66,51.4609" /><path
         id="path58"
         style="fill:#ed212c;fill-opacity:1;fill-rule:nonzero;stroke:none"
         d="m 2185.13,93.0703 c -14.78,0 -23.2,-28.8984 -23.2,-44.3203 0,-10.1602 4.29,-14.4492 11.13,-14.4492 14.76,0 23.18,28.918 23.18,44.3203 0,10.1602 -4.29,14.4492 -11.11,14.4492 z m 30.02,-21.9101 c 0,-24.7891 -19.86,-45.75 -41.94,-45.75 -18.27,0 -30.18,12.8711 -30.18,30.8203 0,24.7695 19.86,45.5785 41.94,45.5785 18.26,0 30.18,-12.6996 30.18,-30.6488" /><path
         id="path60"
         style="fill:#ed212c;fill-opacity:1;fill-rule:nonzero;stroke:none"
         d="m 2263.91,112.93 c -5.56,0 -9.85,3.808 -9.85,10.172 0,6.507 5.09,13.976 13.34,13.976 6.04,0 10.17,-3.808 10.17,-10.168 0,-6.359 -5.24,-13.98 -13.66,-13.98 z m 3.02,-39.7112 -10.01,-37.9571 C 2250.25,10 2237.86,0 2223.24,0 c -11.11,0 -15.88,5.23828 -15.88,11.2695 0,5.8789 4.29,11.2813 10.48,11.2813 5.4,0 8.26,-3.9727 8.26,-8.1016 0,-3.3398 -1.27,-6.03904 -2.54,-7.62889 6.83,-0.14843 9.54,3.98049 15.41,26.69139 l 10.48,40.1875 c 0.96,3.8008 2.39,9.3711 2.39,12.6992 0,2.8633 -1.27,3.6524 -2.7,3.6524 -3.82,0 -7.95,-6.8203 -12.55,-16.6719 l -7.47,3.1797 c 6.84,15.8828 15.1,25.2504 26.21,25.2504 8.11,0 13.82,-6.1879 13.82,-15.0902 0,-3.6485 -0.79,-8.0977 -2.22,-13.5" /><path
         id="path62"
         style="fill:#ed212c;fill-opacity:1;fill-rule:nonzero;stroke:none"
         d="m 2302.67,64.3203 c 22.08,2.3789 30.17,10.9688 30.17,20.8086 0,4.4609 -2.54,7.9414 -7.3,7.9414 -11.13,0 -19.54,-15.0898 -22.87,-28.75 z m -1.44,-7.4609 c -0.16,-1.2696 -0.16,-2.5391 -0.16,-3.6485 0,-13.1914 6.83,-17.3203 14.78,-17.3203 7.78,0 15.57,5.25 22.24,14.6094 l 6.67,-4.7617 c -8.1,-11.5899 -17.95,-20.3281 -34.79,-20.3281 -16.36,0 -27.8,11.4296 -27.8,28.9101 0,24.461 21.13,47.4887 46.06,47.4887 13.66,0 21.29,-6.8207 21.29,-16.5199 0,-14.2891 -14.93,-26.5274 -48.29,-28.4297" /><path
         id="path64"
         style="fill:#ed212c;fill-opacity:1;fill-rule:nonzero;stroke:none"
         d="m 2426.08,83.0703 c 0,-6.832 -4.29,-13.6601 -11.12,-13.6601 -5.72,0 -9.37,3.8086 -9.37,8.5703 0,4.4609 2.7,8.1093 6.51,10.8008 -1.27,2.2304 -3.97,3.9804 -8.73,3.9804 -15.89,0 -25.26,-24.3125 -25.26,-38.1328 0,-13.6601 7.31,-17.9492 14.45,-17.9492 7.31,0 14.3,5.25 20.65,15.0898 l 6.83,-4.5976 c -6.83,-11.9102 -16.2,-21.7617 -31.77,-21.7617 -17.47,0 -29.23,11.9101 -29.23,29.2187 0,24.793 21.29,47.1801 44.01,47.1801 13.34,0 23.03,-7.4574 23.03,-18.7387" /><path
         id="path66"
         style="fill:#ed212c;fill-opacity:1;fill-rule:nonzero;stroke:none"
         d="M 2470.4,88.7813 2460.87,54 c -1.11,-3.9687 -1.91,-7.6289 -1.91,-9.5312 0,-4.2891 2.22,-5.7188 5.56,-5.7188 5.71,0 10.48,6.9883 14.93,17.1484 l 7.62,-2.539 c -7.78,-22.5508 -20.01,-27.9492 -28.58,-27.9492 -10.49,0 -17.95,5.2382 -17.95,16.039 0,4.6094 1.75,11.2813 2.85,15.7227 l 8.58,31.6094 h -13.98 l 2.55,9.6992 h 13.97 l 5.25,19.0505 18.89,2.071 -5.71,-21.1215 h 22.56 l -2.55,-9.6992 h -22.55" /><path
         id="path68"
         style="fill:#201916;fill-opacity:1;fill-rule:nonzero;stroke:none"
         d="M 419.855,705.551 H 528.008 L 677.113,480.289 V 705.551 H 790.387 V 257.582 H 687.992 L 533.125,492.449 V 257.582 h -113.27 v 447.969" /><path
         id="path70"
         style="fill:#201916;fill-opacity:1;fill-rule:nonzero;stroke:none"
         d="m 1155.19,477.73 v 7.04 c 0,77.429 -37.12,124.789 -90.23,124.789 -53.12,0 -89.601,-46.719 -89.601,-124.149 v -7.051 c 0,-77.429 37.121,-124.781 90.241,-124.781 53.76,0 89.59,46.711 89.59,124.152 z m -297.577,-1.281 v 9.602 c 0,133.75 87.676,227.82 207.987,227.82 120.95,0 207.34,-92.793 207.34,-227.191 v -9.59 c 0,-133.75 -87.67,-227.828 -207.98,-227.828 -120.956,0 -207.347,92.797 -207.347,227.187" /><path
         id="path72"
         style="fill:#201916;fill-opacity:1;fill-rule:nonzero;stroke:none"
         d="m 1287.05,705.551 h 125.43 l 82.56,-279.02 81.91,279.02 h 122.87 L 1548.79,255.02 h -110.7 l -151.04,450.531" /><path
         id="path74"
         style="fill:#201916;fill-opacity:1;fill-rule:nonzero;stroke:none"
         d="m 1923.2,430.371 -41.6,131.188 -41.59,-131.188 z m -98.55,277.738 h 116.46 L 2099.19,257.582 H 1978.23 L 1952,338.219 h -140.79 l -25.6,-80.637 h -118.39 l 157.43,450.527" /><path
         id="path76"
         style="fill:#f14b26;fill-opacity:1;fill-rule:nonzero;stroke:none"
         d="m 1343.52,1232.09 c -12.31,0 -22.85,7.14 -27.51,18.62 l -54.85,132.34 c -2.99,7.48 -2.99,15.5 -0.08,22.78 l 53.92,130.29 c 4.61,11.22 15.5,18.5 27.72,18.5 3.94,0 7.78,-0.76 11.44,-2.27 l 130.14,-53.97 c 7.38,-2.95 13.24,-8.8 16.28,-16.4 l 54.8,-132.13 c 3.93,-9.52 2.96,-19.74 -2.64,-28.09 -5.57,-8.32 -15.2,-13.49 -25.13,-13.49 -7.93,0 -15.45,3.19 -21.17,9 l -132.77,132.76 v -187.88 c 0,-16.85 -13.24,-30.06 -30.15,-30.06" /><path
         id="path78"
         style="fill:#f14b26;fill-opacity:1;fill-rule:nonzero;stroke:none"
         d="m 1144.67,1232.09 c -16.87,0 -30.09,13.2 -30.09,30.06 v 187.88 L 981.723,1317.18 c -5.633,-5.72 -13.153,-8.9 -21.082,-8.91 -9.934,0 -19.567,5.17 -25.145,13.49 -5.59,8.35 -6.555,18.57 -2.652,28.05 l 54.914,132.38 c 2.961,7.4 8.82,13.25 16.412,16.29 l 129.87,53.85 c 3.7,1.53 7.54,2.29 11.47,2.29 12.01,0 22.86,-7.16 27.64,-18.25 l 53.93,-130.34 c 3,-7.48 3,-15.5 0.09,-22.77 l -54.98,-132.67 c -4.75,-11.42 -15.29,-18.5 -27.52,-18.5" /><path
         id="path80"
         style="fill:#f14b26;fill-opacity:1;fill-rule:nonzero;stroke:none"
         d="m 819.543,1449.12 c -12.059,0 -22.883,7.34 -27.586,18.69 -4.687,11.31 -2.156,23.78 6.598,32.54 L 931.406,1633.2 H 743.52 c -14.45,0 -26.516,9.9 -29.344,24.08 -2.832,14.18 4.519,27.96 17.887,33.52 l 132.472,54.9 c 3.602,1.51 7.461,2.27 11.442,2.27 3.984,0 7.847,-0.77 11.484,-2.28 l 130.049,-53.94 c 15.21,-6.26 22.5,-23.79 16.22,-39.04 l -53.847,-130.12 c -2.797,-6.98 -8.363,-12.75 -15.602,-16.06 -0.203,-0.09 -0.41,-0.19 -0.613,-0.28 l -132.457,-54.77 c -3.754,-1.56 -7.691,-2.36 -11.668,-2.36" /><path
         id="path82"
         style="fill:#f14b26;fill-opacity:1;fill-rule:nonzero;stroke:none"
         d="m 875.977,1777.43 c -3.997,0 -8.016,0.85 -11.668,2.45 l -132.215,54.68 c -13.403,5.58 -20.762,19.39 -17.918,33.62 2.832,14.2 14.902,24.12 29.344,24.12 h 187.769 l -132.73,132.72 c -8.762,8.77 -11.289,21.25 -6.594,32.57 4.715,11.39 15.574,18.74 27.664,18.74 3.894,0 7.758,-0.76 11.476,-2.27 l 132.571,-54.94 c 7.269,-3.03 13.16,-8.92 16.187,-16.16 l 53.857,-130.15 c 3.04,-7.4 3.04,-15.52 0.02,-22.9 -3.07,-7.45 -8.84,-13.25 -16.26,-16.3 l -129.839,-53.73 c -3.641,-1.6 -7.664,-2.45 -11.664,-2.45" /><path
         id="path84"
         style="fill:#f14b26;fill-opacity:1;fill-rule:nonzero;stroke:none"
         d="m 1145.5,1970.76 c -3.93,0 -7.77,0.76 -11.42,2.27 l -130.13,53.96 c -7.114,2.84 -13.091,8.76 -16.177,16.16 l -54.918,132.5 c -3.91,9.4 -2.96,19.59 2.606,27.94 5.578,8.36 15.246,13.56 25.238,13.56 7.86,0 15.332,-3.14 21.031,-8.84 l 132.85,-132.85 v 187.88 c 0,16.8 13.2,29.95 30.07,29.95 12.24,0 22.79,-7.08 27.53,-18.48 l 54.9,-132.47 c 3.03,-7.27 3.03,-15.63 -0.01,-22.91 l -53.82,-130.06 c -4.8,-11.35 -15.67,-18.61 -27.75,-18.61" /><path
         id="path86"
         style="fill:#f14b26;fill-opacity:1;fill-rule:nonzero;stroke:none"
         d="m 1342.73,1970.76 c -12.29,0 -23.2,7.37 -27.8,18.76 l -53.77,129.94 c -3.02,7.25 -3.02,15.61 0.02,22.9 l 54.88,132.43 c 4.61,11.37 15.17,18.5 27.48,18.5 16.89,0 30.13,-13.15 30.13,-29.95 v -187.88 l 132.84,132.85 c 5.71,5.71 13.18,8.84 21.04,8.84 9.99,0 19.66,-5.2 25.23,-13.56 5.57,-8.35 6.52,-18.54 2.6,-27.96 l -54.89,-132.44 c -3.09,-7.42 -9.07,-13.35 -16.41,-16.29 l -129.88,-53.85 c -3.69,-1.53 -7.53,-2.29 -11.47,-2.29" /><path
         id="path88"
         style="fill:#f14b26;fill-opacity:1;fill-rule:nonzero;stroke:none"
         d="m 1612.27,1777.43 c -4,0 -8.02,0.85 -11.67,2.45 l -129.86,53.74 c -15.23,6.28 -22.53,23.85 -16.23,39.16 l 53.85,130.13 c 3.04,7.29 8.93,13.18 16.18,16.2 l 132.48,54.9 c 3.84,1.56 7.7,2.32 11.59,2.32 12.09,0 22.95,-7.35 27.67,-18.74 4.7,-11.32 2.17,-23.8 -6.59,-32.57 L 1556.95,1892.3 h 187.78 c 14.44,0 26.51,-9.92 29.34,-24.12 2.83,-14.23 -4.52,-28.04 -17.89,-33.61 l -132.24,-54.69 c -3.65,-1.6 -7.67,-2.45 -11.67,-2.45" /><path
         id="path90"
         style="fill:#f14b26;fill-opacity:1;fill-rule:nonzero;stroke:none"
         d="m 1668.7,1449.12 c -3.97,0 -7.91,0.8 -11.7,2.37 l -132.42,54.76 c -7.29,3.04 -13.18,8.93 -16.2,16.18 l -53.85,130.26 c -6.29,15.28 1,32.8 16.23,39.08 l 130.06,53.93 c 3.6,1.51 7.47,2.27 11.45,2.27 3.98,0 7.85,-0.77 11.48,-2.28 l 132.41,-54.88 c 13.39,-5.57 20.74,-19.35 17.91,-33.53 -2.83,-14.18 -14.9,-24.08 -29.34,-24.08 h -187.89 l 132.85,-132.85 c 8.76,-8.76 11.29,-21.23 6.6,-32.54 -4.71,-11.35 -15.53,-18.69 -27.59,-18.69" /><path
         id="path92"
         style="fill:#f9e207;fill-opacity:1;fill-rule:nonzero;stroke:none"
         d="m 1428.71,1701.45 c -8.84,0 -17.19,3.89 -22.92,10.66 -5.63,6.67 -8.03,15.45 -6.57,24.09 1.48,8.56 2.22,17.45 2.22,26.49 0,9.04 -0.74,17.92 -2.21,26.42 -1.47,8.71 0.93,17.5 6.57,24.18 5.75,6.8 14.14,10.7 23.03,10.7 3.86,0 7.64,-0.73 11.26,-2.19 l 75.71,-31.35 c 11.36,-4.84 18.54,-15.77 18.48,-27.9 -0.06,-12.08 -7.31,-22.87 -18.47,-27.5 l -75.56,-31.29 c -3.67,-1.53 -7.56,-2.31 -11.54,-2.31" /><path
         id="path94"
         style="fill:#f9e207;fill-opacity:1;fill-rule:nonzero;stroke:none"
         d="m 1396.84,1841.14 c -9.75,0 -18.96,4.79 -24.64,12.81 -10.02,14.09 -22.42,26.49 -36.84,36.82 -9.04,6.54 -13.84,17.34 -12.58,28.22 1.24,10.83 8.03,19.83 18.15,24.07 l 75.75,31.32 c 3.69,1.53 7.57,2.3 11.5,2.3 9.94,0 19.21,-4.98 24.81,-13.32 5.56,-8.29 6.6,-18.8 2.78,-28.12 l -31.31,-75.61 c -4.71,-11.26 -15.54,-18.49 -27.62,-18.49" /><path
         id="path96"
         style="fill:#f9e207;fill-opacity:1;fill-rule:nonzero;stroke:none"
         d="m 1428.15,1548.7 c -3.93,0 -7.79,0.77 -11.49,2.31 l -75.67,31.4 c -9.94,4.03 -16.96,13.25 -18.21,24.01 -1.28,11 3.58,21.82 12.66,28.25 14.19,10.17 26.61,22.58 36.82,36.83 5.62,7.95 14.85,12.75 24.62,12.75 12.02,0 22.82,-7.16 27.52,-18.23 l 31.35,-75.83 c 3.84,-9.26 2.82,-19.77 -2.73,-28.09 -5.61,-8.39 -14.9,-13.4 -24.87,-13.4" /><path
         id="path98"
         style="fill:#ffffff;fill-opacity:1;fill-rule:nonzero;stroke:none"
         d="m 1244.06,1628.01 c -74.2,0 -134.56,60.41 -134.56,134.68 0,74.26 60.36,134.68 134.56,134.68 74.27,0 134.69,-60.42 134.69,-134.68 0,-74.27 -60.42,-134.68 -134.69,-134.68" /><path
         id="path100"
         style="fill:#f9e207;fill-opacity:1;fill-rule:nonzero;stroke:none"
         d="m 1275.8,1917.39 c -1.8,0 -3.61,0.17 -5.39,0.5 -8.53,1.45 -17.22,2.18 -26.35,2.18 -9.02,0 -17.91,-0.75 -26.42,-2.21 -1.62,-0.3 -3.43,-0.47 -5.21,-0.47 -9.86,0 -19.05,4.95 -24.56,13.22 -5.58,8.36 -6.59,18.9 -2.72,28.18 l 31.27,75.63 c 4.66,11.24 15.53,18.49 27.7,18.49 12.18,0 23.05,-7.25 27.7,-18.47 l 31.29,-75.69 c 3.84,-9.22 2.82,-19.74 -2.75,-28.1 -5.53,-8.3 -14.72,-13.26 -24.56,-13.26" /><path
         id="path102"
         style="fill:#f9e207;fill-opacity:1;fill-rule:nonzero;stroke:none"
         d="m 1244.12,1472.5 c -12.21,0 -23.09,7.31 -27.73,18.63 l -31.25,75.49 c -3.86,9.26 -2.84,19.8 2.74,28.17 5.54,8.32 14.77,13.28 24.68,13.28 1.67,0 3.35,-0.14 5.01,-0.42 9.03,-1.56 17.92,-2.34 26.49,-2.34 8.66,0 17.36,0.76 26.58,2.34 1.65,0.28 3.35,0.42 5.02,0.42 9.9,0 19.13,-4.97 24.69,-13.31 5.58,-8.38 6.6,-18.9 2.74,-28.18 l -31.26,-75.52 c -4.61,-11.25 -15.5,-18.56 -27.71,-18.56" /><path
         id="path104"
         style="fill:#f9e207;fill-opacity:1;fill-rule:nonzero;stroke:none"
         d="m 1091.4,1841.14 c -12.07,0 -22.9,7.23 -27.59,18.41 l -31.31,75.63 c -3.88,9.18 -2.92,19.71 2.62,28.04 5.59,8.44 14.91,13.46 24.93,13.46 3.94,0 7.83,-0.77 11.53,-2.31 l 75.66,-31.27 c 10.19,-4.28 16.98,-13.28 18.23,-24.11 1.25,-10.88 -3.55,-21.68 -12.52,-28.17 -14.49,-10.38 -26.89,-22.78 -36.92,-36.89 -5.66,-8 -14.88,-12.79 -24.63,-12.79" /><path
         id="path106"
         style="fill:#f9e207;fill-opacity:1;fill-rule:nonzero;stroke:none"
         d="m 1060.08,1548.7 c -10.05,0 -19.39,5.06 -24.99,13.55 -5.52,8.36 -6.47,18.87 -2.52,28.13 l 31.2,75.48 c 4.77,11.23 15.58,18.39 27.6,18.39 9.76,0 18.99,-4.8 24.67,-12.83 10.16,-14.17 22.57,-26.58 36.84,-36.81 9,-6.37 13.86,-17.19 12.59,-28.19 -1.26,-10.76 -8.28,-19.98 -18.35,-24.06 l -75.53,-31.35 c -3.7,-1.54 -7.57,-2.31 -11.51,-2.31" /><path
         id="path108"
         style="fill:#f9e207;fill-opacity:1;fill-rule:nonzero;stroke:none"
         d="m 1059.53,1701.45 c -3.97,0 -7.87,0.78 -11.57,2.33 l -75.519,31.26 c -11.168,4.64 -18.414,15.43 -18.472,27.51 -0.063,12.13 7.121,23.06 18.293,27.83 l 75.728,31.35 c 3.78,1.53 7.57,2.26 11.43,2.26 8.88,0 17.27,-3.9 23.02,-10.7 5.65,-6.68 8.05,-15.47 6.58,-24.11 -1.47,-8.57 -2.22,-17.45 -2.22,-26.49 0,-9.04 0.75,-17.93 2.21,-26.42 1.48,-8.71 -0.92,-17.49 -6.56,-24.16 -5.73,-6.77 -14.08,-10.66 -22.92,-10.66" /><path
         id="path110"
         style="fill:#ed212c;fill-opacity:1;fill-rule:nonzero;stroke:none"
         d="m 1527.61,1308.28 c -7.93,0 -15.45,3.18 -21.17,8.99 l -79.11,79.1 c -4.03,4.03 -5.93,9.71 -5.14,15.35 0.78,5.65 4.17,10.59 9.15,13.36 18.44,10.27 36.27,22.23 53,35.56 3.25,2.59 7.24,3.96 11.31,3.96 1.52,0 3.04,-0.19 4.54,-0.57 5.52,-1.43 10.05,-5.36 12.24,-10.63 l 42.95,-103.55 c 3.93,-9.52 2.95,-19.74 -2.64,-28.09 -5.57,-8.32 -15.2,-13.48 -25.13,-13.48 v 0" /><path
         id="path112"
         style="fill:#ed212c;fill-opacity:1;fill-rule:nonzero;stroke:none"
         d="m 1343.52,1232.09 c -12.31,0 -22.85,7.14 -27.51,18.62 l -42.84,103.35 c -2.18,5.27 -1.76,11.26 1.14,16.17 2.89,4.92 7.93,8.19 13.6,8.83 21.02,2.39 42.08,6.58 62.58,12.47 1.65,0.47 3.34,0.7 5.01,0.7 3.9,0 7.75,-1.26 10.94,-3.66 4.55,-3.43 7.23,-8.8 7.23,-14.5 v -111.93 c 0,-8.67 -3.46,-16.57 -9.74,-22.24 -5.57,-5.04 -12.82,-7.81 -20.41,-7.81 v 0" /><path
         id="path114"
         style="fill:#ed212c;fill-opacity:1;fill-rule:nonzero;stroke:none"
         d="m 960.637,1308.28 c -9.934,0 -19.567,5.17 -25.141,13.49 -5.586,8.35 -6.551,18.57 -2.648,28.04 l 42.965,103.58 c 2.179,5.27 6.71,9.21 12.234,10.63 1.5,0.39 3.027,0.58 4.543,0.58 4.066,0 8.06,-1.37 11.32,-3.96 16.74,-13.34 34.57,-25.3 52.99,-35.56 4.98,-2.77 8.37,-7.72 9.15,-13.36 0.8,-5.64 -1.11,-11.32 -5.14,-15.36 l -79.187,-79.18 c -5.637,-5.72 -13.16,-8.9 -21.082,-8.9 h -0.004" /><path
         id="path116"
         style="fill:#ed212c;fill-opacity:1;fill-rule:nonzero;stroke:none"
         d="m 1144.67,1232.09 c -16.87,0 -30.09,13.21 -30.09,30.05 v 111.93 c 0,5.7 2.68,11.07 7.23,14.5 3.19,2.4 7.04,3.66 10.93,3.66 1.68,0 3.37,-0.23 5.01,-0.71 20.51,-5.88 41.56,-10.07 62.58,-12.46 5.67,-0.64 10.71,-3.91 13.61,-8.83 2.89,-4.91 3.31,-10.9 1.13,-16.17 l -42.88,-103.47 c -4.75,-11.42 -15.29,-18.5 -27.51,-18.5 h -0.01" /><path
         id="path118"
         style="fill:#ed212c;fill-opacity:1;fill-rule:nonzero;stroke:none"
         d="m 743.52,1633.2 c -14.45,0 -26.516,9.9 -29.344,24.08 -2.832,14.18 4.519,27.96 17.887,33.52 l 103.386,42.85 c 2.231,0.92 4.602,1.39 6.953,1.39 3.203,0 6.391,-0.85 9.223,-2.52 4.918,-2.89 8.184,-7.93 8.828,-13.61 2.379,-20.98 6.567,-42.02 12.457,-62.53 1.57,-5.48 0.481,-11.39 -2.953,-15.95 -3.434,-4.55 -8.805,-7.23 -14.508,-7.23 H 743.52" /><path
         id="path120"
         style="fill:#ed212c;fill-opacity:1;fill-rule:nonzero;stroke:none"
         d="m 819.543,1449.12 c -12.059,0 -22.883,7.34 -27.586,18.69 -4.687,11.31 -2.156,23.78 6.598,32.54 l 79.195,79.19 c 3.426,3.43 8.055,5.32 12.84,5.32 0.836,0 1.676,-0.06 2.515,-0.18 5.645,-0.78 10.586,-4.17 13.36,-9.15 10.273,-18.46 22.258,-36.33 35.625,-53.09 3.558,-4.47 4.808,-10.34 3.383,-15.87 -1.426,-5.52 -5.371,-10.06 -10.645,-12.24 l -103.617,-42.85 c -3.754,-1.56 -7.691,-2.36 -11.668,-2.36 v 0" /><path
         id="path122"
         style="fill:#ed212c;fill-opacity:1;fill-rule:nonzero;stroke:none"
         d="m 890.559,1940.55 c -4.789,0 -9.414,1.89 -12.844,5.32 l -79.156,79.15 c -8.762,8.77 -11.289,21.25 -6.594,32.57 4.715,11.39 15.574,18.74 27.664,18.74 3.894,0 7.758,-0.76 11.476,-2.27 l 103.7,-42.98 c 5.273,-2.18 9.215,-6.72 10.633,-12.24 1.425,-5.52 0.175,-11.4 -3.383,-15.86 -13.36,-16.77 -25.344,-34.63 -35.629,-53.1 -2.77,-4.98 -7.715,-8.36 -13.36,-9.15 -0.839,-0.12 -1.675,-0.18 -2.507,-0.18" /><path
         id="path124"
         style="fill:#ed212c;fill-opacity:1;fill-rule:nonzero;stroke:none"
         d="m 842.402,1790.43 c -2.351,0 -4.711,0.46 -6.937,1.38 l -103.371,42.75 c -13.403,5.58 -20.762,19.39 -17.918,33.62 2.832,14.2 14.902,24.12 29.344,24.12 h 111.941 c 5.699,0 11.07,-2.69 14.504,-7.24 3.433,-4.56 4.527,-10.46 2.949,-15.94 -5.887,-20.52 -10.082,-41.57 -12.461,-62.57 -0.644,-5.67 -3.91,-10.7 -8.82,-13.6 -2.832,-1.67 -6.024,-2.52 -9.231,-2.52" /><path
         id="path126"
         style="fill:#ed212c;fill-opacity:1;fill-rule:nonzero;stroke:none"
         d="m 992.574,2060.85 c -1.519,0 -3.043,0.19 -4.543,0.58 -5.519,1.42 -10.051,5.36 -12.238,10.63 l -42.934,103.59 c -3.91,9.4 -2.964,19.59 2.602,27.94 5.578,8.36 15.246,13.56 25.23,13.56 7.868,0 15.332,-3.13 21.032,-8.84 l 79.207,-79.2 c 4.03,-4.03 5.94,-9.72 5.15,-15.36 -0.79,-5.64 -4.18,-10.59 -9.16,-13.36 -18.44,-10.26 -36.28,-22.24 -53.03,-35.58 -3.25,-2.59 -7.249,-3.96 -11.316,-3.96" /><path
         id="path128"
         style="fill:#ed212c;fill-opacity:1;fill-rule:nonzero;stroke:none"
         d="m 1132.74,2133.24 c -3.9,0 -7.74,1.25 -10.93,3.65 -4.55,3.43 -7.23,8.81 -7.23,14.51 v 111.94 c 0,16.8 13.21,29.95 30.07,29.95 12.24,0 22.79,-7.08 27.53,-18.48 l 42.85,-103.41 c 2.19,-5.27 1.77,-11.26 -1.13,-16.17 -2.89,-4.92 -7.93,-8.19 -13.6,-8.83 -21,-2.38 -42.04,-6.58 -62.55,-12.46 -1.64,-0.47 -3.33,-0.7 -5.01,-0.7" /><path
         id="path130"
         style="fill:#ed212c;fill-opacity:1;fill-rule:nonzero;stroke:none"
         d="m 1355.5,2133.23 c -1.67,0 -3.36,0.23 -5.01,0.71 -20.5,5.88 -41.54,10.08 -62.55,12.46 -5.66,0.64 -10.7,3.91 -13.6,8.83 -2.89,4.91 -3.31,10.9 -1.13,16.17 l 42.85,103.39 c 4.61,11.37 15.17,18.5 27.48,18.5 16.89,0 30.13,-13.15 30.13,-29.95 V 2151.4 c 0,-5.71 -2.68,-11.08 -7.23,-14.51 -3.19,-2.4 -7.04,-3.66 -10.94,-3.66" /><path
         id="path132"
         style="fill:#ed212c;fill-opacity:1;fill-rule:nonzero;stroke:none"
         d="m 1495.67,2060.84 c -4.07,0 -8.07,1.37 -11.32,3.96 -16.73,13.34 -34.57,25.32 -53.03,35.59 -4.97,2.77 -8.37,7.72 -9.15,13.36 -0.79,5.64 1.11,11.33 5.14,15.36 l 79.2,79.2 c 5.71,5.71 13.18,8.84 21.04,8.84 9.98,0 19.65,-5.2 25.23,-13.56 5.57,-8.34 6.52,-18.53 2.6,-27.96 l -42.93,-103.58 c -2.19,-5.27 -6.72,-9.2 -12.24,-10.63 -1.5,-0.38 -3.02,-0.58 -4.54,-0.58" /><path
         id="path134"
         style="fill:#ed212c;fill-opacity:1;fill-rule:nonzero;stroke:none"
         d="m 1645.83,1790.43 c -3.2,0 -6.39,0.85 -9.22,2.52 -4.91,2.89 -8.18,7.93 -8.83,13.59 -2.38,21.02 -6.57,42.08 -12.46,62.58 -1.57,5.48 -0.48,11.38 2.95,15.94 3.43,4.55 8.81,7.24 14.51,7.24 h 111.95 c 14.44,0 26.51,-9.93 29.34,-24.12 2.84,-14.23 -4.51,-28.04 -17.89,-33.61 l -103.41,-42.76 c -2.22,-0.93 -4.59,-1.38 -6.94,-1.38" /><path
         id="path136"
         style="fill:#ed212c;fill-opacity:1;fill-rule:nonzero;stroke:none"
         d="m 1597.69,1940.55 c -0.84,0 -1.68,0.05 -2.52,0.17 -5.65,0.79 -10.59,4.18 -13.36,9.16 -10.28,18.47 -22.27,36.33 -35.63,53.09 -3.55,4.47 -4.8,10.34 -3.38,15.87 1.43,5.52 5.36,10.06 10.64,12.24 l 103.58,42.93 c 3.84,1.56 7.7,2.32 11.59,2.32 12.09,0 22.95,-7.35 27.67,-18.74 4.7,-11.32 2.17,-23.8 -6.59,-32.57 l -79.16,-79.16 c -3.43,-3.43 -8.06,-5.31 -12.84,-5.31" /><path
         id="path138"
         style="fill:#ed212c;fill-opacity:1;fill-rule:nonzero;stroke:none"
         d="m 1632.78,1633.2 c -5.7,0 -11.07,2.68 -14.5,7.23 -3.44,4.56 -4.53,10.47 -2.96,15.95 5.89,20.51 10.08,41.55 12.46,62.54 0.65,5.67 3.92,10.71 8.83,13.6 2.83,1.68 6.02,2.52 9.22,2.52 2.36,0 4.73,-0.46 6.95,-1.38 l 103.38,-42.85 c 13.39,-5.57 20.74,-19.35 17.91,-33.53 -2.83,-14.18 -14.89,-24.08 -29.34,-24.08 h -111.95" /><path
         id="path140"
         style="fill:#ed212c;fill-opacity:1;fill-rule:nonzero;stroke:none"
         d="m 1668.7,1449.12 c -3.97,0.01 -7.91,0.8 -11.7,2.37 l -103.59,42.84 c -5.28,2.18 -9.22,6.72 -10.65,12.25 -1.42,5.52 -0.17,11.4 3.39,15.86 13.36,16.76 25.34,34.63 35.64,53.1 2.76,4.97 7.71,8.36 13.36,9.15 0.83,0.12 1.67,0.17 2.51,0.17 4.77,0 9.41,-1.89 12.84,-5.32 l 79.19,-79.19 c 8.76,-8.76 11.29,-21.23 6.6,-32.55 -4.71,-11.34 -15.53,-18.68 -27.58,-18.68 h -0.01" /><path
         id="path142"
         style="fill:#201916;fill-opacity:1;fill-rule:nonzero;stroke:none"
         d="m 1016.93,1659.63 c 2.48,6.02 -0.35,12.87 -6.37,15.35 l -130.095,53.95 c -2.836,1.18 -6.145,1.18 -8.977,0 l -132.457,-54.9 c -11.918,-4.96 -8.379,-22.66 4.489,-22.66 h 203.168 c 10.507,0 15.824,-12.76 8.386,-20.19 L 811.402,1487.51 c -9.211,-9.21 0.942,-24.2 12.868,-19.24 l 132.453,54.77 c 2.832,1.3 5.195,3.54 6.379,6.5 z m -6.37,190.77 c 6.02,2.48 8.85,9.44 6.37,15.46 l -53.828,130.1 c -1.184,2.83 -3.547,5.19 -6.379,6.37 l -132.453,54.9 c -11.926,4.84 -22.079,-10.16 -12.868,-19.36 L 955.074,1894.2 c 7.438,-7.44 2.121,-20.07 -8.386,-20.07 H 743.52 c -12.868,0 -16.407,-17.83 -4.489,-22.78 l 132.457,-54.78 c 2.832,-1.3 6.141,-1.3 8.977,0 z m 60.56,-58.2 c 1.53,9.09 -7.68,16.18 -16.18,12.75 l -75.549,-31.28 c -9.68,-4.13 -9.68,-17.83 0,-21.85 l 75.549,-31.28 c 8.5,-3.54 17.71,3.55 16.18,12.64 -1.66,9.56 -2.48,19.48 -2.48,29.51 0,10.04 0.82,19.95 2.48,29.51 z m 69.17,-193.02 c 8.74,3.55 9.69,15.23 2.01,20.66 -15.82,11.34 -29.75,25.27 -41.08,41.09 -5.43,7.67 -17,6.61 -20.66,-2.01 l -31.28,-75.67 c -4.13,-9.68 5.66,-19.48 15.34,-15.47 z m 2.01,306.35 c 7.68,5.55 6.73,17.12 -2.01,20.78 l -75.67,31.28 c -9.68,4.02 -19.47,-5.66 -15.34,-15.46 l 31.28,-75.56 c 3.66,-8.73 15.23,-9.79 20.66,-2.12 11.33,15.94 25.26,29.75 41.08,41.08 z m 68,-515.53 c 1.18,2.95 1.18,6.14 0,9.09 l -53.83,130.09 c -2.6,6.02 -9.44,8.86 -15.46,6.38 l -130.1,-53.95 c -2.95,-1.19 -5.19,-3.43 -6.37,-6.38 L 949.641,1342.9 c -4.957,-12.05 10.156,-22.08 19.242,-12.87 l 143.667,143.67 c 7.44,7.43 20.19,2.12 20.19,-8.38 v -203.17 c 0,-12.99 17.71,-16.53 22.67,-4.61 z m 0,736.41 c 1.18,2.83 1.18,6.13 0,8.97 l -54.89,132.45 c -4.96,11.93 -22.67,8.38 -22.67,-4.48 v -203.29 c 0,-10.51 -12.75,-15.7 -20.19,-8.26 l -143.667,143.67 c -9.086,9.08 -24.199,-0.95 -19.242,-12.87 l 54.899,-132.45 c 1.18,-2.83 3.42,-5.2 6.37,-6.38 l 130.1,-53.95 c 6.02,-2.48 12.86,0.36 15.46,6.49 z m 76.03,-552.84 c 3.54,8.5 -3.66,17.7 -12.63,16.17 -9.69,-1.65 -19.49,-2.6 -29.64,-2.6 -10.03,0 -19.95,0.95 -29.51,2.6 -9.09,1.53 -16.17,-7.67 -12.63,-16.17 l 31.28,-75.55 c 4.02,-9.8 17.83,-9.8 21.84,0 z m -12.63,362.18 c 8.97,-1.65 16.17,7.56 12.63,16.06 l -31.29,75.67 c -4.01,9.68 -17.82,9.68 -21.84,0 l -31.28,-75.67 c -3.54,-8.5 3.54,-17.71 12.63,-16.06 9.56,1.66 19.48,2.48 29.51,2.48 10.15,0 19.95,-0.82 29.64,-2.48 z m 86.88,-173.06 c 0,64.22 -52.18,116.51 -116.52,116.51 -64.22,0 -116.39,-52.29 -116.39,-116.51 0,-64.22 52.17,-116.52 116.39,-116.52 64.34,0 116.52,52.3 116.52,116.52 z m 63.04,-194.91 c 9.68,-4.01 19.36,5.79 15.34,15.47 l -31.27,75.67 c -3.67,8.62 -15.23,9.68 -20.66,2.01 -11.34,-15.82 -25.27,-29.75 -41.09,-41.09 -7.67,-5.43 -6.73,-17.11 2.01,-20.66 z m 15.34,374.35 c 4.02,9.8 -5.66,19.48 -15.34,15.46 l -75.67,-31.28 c -8.74,-3.66 -9.68,-15.23 -2.01,-20.78 15.82,-11.33 29.75,-25.14 41.09,-41.08 5.43,-7.67 16.99,-6.61 20.66,2.12 z m 69.9,-190.31 c 9.68,4.02 9.68,17.72 0,21.85 l -75.56,31.28 c -8.5,3.43 -17.7,-3.66 -16.17,-12.75 1.65,-9.56 2.48,-19.47 2.48,-29.51 0,-10.03 -0.83,-19.95 -2.48,-29.51 -1.53,-9.09 7.67,-16.18 16.17,-12.64 z m 10.51,-421.79 c 9.08,-9.21 24.19,0.82 19.23,12.87 l -54.89,132.33 c -1.18,2.95 -3.43,5.19 -6.38,6.38 l -130.09,53.95 c -6.02,2.48 -12.99,-0.36 -15.46,-6.38 l -53.84,-130.09 c -1.18,-2.95 -1.18,-6.14 0,-9.09 l 54.9,-132.46 c 4.84,-11.92 22.66,-8.38 22.66,4.61 v 203.17 c 0,10.5 12.75,15.81 20.19,8.38 z m 19.23,852.57 c 4.96,11.92 -10.15,21.95 -19.23,12.87 L 1375.69,2051.8 c -7.44,-7.44 -20.19,-2.25 -20.19,8.26 v 203.29 c 0,12.86 -17.82,16.41 -22.66,4.48 l -54.9,-132.45 c -1.18,-2.84 -1.18,-6.14 0,-8.97 l 53.84,-130.1 c 2.47,-6.13 9.44,-8.97 15.46,-6.49 l 130.09,53.95 c 2.95,1.18 5.2,3.55 6.38,6.38 z m 206.13,-531.23 c 12.86,0 16.4,17.7 4.48,22.66 l -132.45,54.9 c -2.84,1.18 -6.14,1.18 -8.98,0 l -130.09,-53.95 c -6.02,-2.48 -8.85,-9.33 -6.37,-15.35 l 53.83,-130.21 c 1.18,-2.84 3.54,-5.2 6.37,-6.38 l 132.45,-54.77 c 11.93,-4.96 22.08,10.03 12.88,19.24 l -143.68,143.67 c -7.44,7.43 -2.13,20.19 8.38,20.19 z m 4.48,199.98 c 11.92,4.95 8.38,22.78 -4.48,22.78 h -203.18 c -10.51,0 -15.82,12.63 -8.38,20.07 l 143.68,143.67 c 9.2,9.2 -0.95,24.2 -12.88,19.36 l -132.45,-54.9 c -2.83,-1.18 -5.19,-3.54 -6.37,-6.37 l -53.83,-130.1 c -2.48,-6.02 0.35,-12.98 6.37,-15.46 l 130.09,-53.83 c 2.84,-1.3 6.14,-1.3 8.98,0 z m 292.29,81.8 c 12.88,0 16.42,-17.82 4.5,-22.78 l -330.2,-136.7 c -9.79,-4.13 -9.79,-17.83 0,-21.85 L 2046,1615 c 11.92,-4.95 8.38,-22.66 -4.5,-22.66 h -357.46 c -10.5,0 -15.82,-12.75 -8.38,-20.19 l 252.75,-252.75 c 9.09,-9.09 -0.94,-24.2 -12.86,-19.24 l -330.2,136.82 c -9.79,4.02 -19.48,-5.78 -15.47,-15.46 l 136.83,-330.2 c 4.96,-12.04 -10.16,-22.07 -19.24,-12.86 l -252.75,252.75 c -7.44,7.43 -20.19,2.13 -20.19,-8.38 V 965.371 c 0,-12.871 -17.83,-16.422 -22.66,-4.5 l -136.83,330.199 c -4.01,9.68 -17.82,9.68 -21.84,0 L 1096.38,960.871 c -4.96,-11.922 -22.66,-8.371 -22.66,4.5 v 357.459 c 0,10.51 -12.76,15.81 -20.19,8.38 L 800.777,1078.46 c -9.093,-9.21 -24.199,0.82 -19.246,12.86 l 136.828,330.2 c 4.012,9.68 -5.668,19.48 -15.468,15.46 L 572.699,1300.16 c -11.922,-4.96 -21.957,10.15 -12.863,19.24 l 252.746,252.75 c 7.438,7.44 2.125,20.19 -8.383,20.19 H 446.738 c -12.867,0 -16.41,17.71 -4.488,22.66 l 330.195,136.82 c 9.797,4.02 9.797,17.72 0,21.85 l -330.195,136.7 c -11.922,4.96 -8.379,22.78 4.488,22.78 h 357.461 c 10.508,0 15.821,12.64 8.383,20.07 l -252.746,252.76 c -9.094,9.2 0.941,24.2 12.863,19.23 l 330.192,-136.7 c 9.8,-4.01 19.48,5.67 15.468,15.35 l -136.828,330.31 c -4.953,11.92 10.153,21.96 19.246,12.87 l 252.753,-252.75 c 7.43,-7.44 20.19,-2.24 20.19,8.26 v 357.47 c 0,12.98 17.7,16.52 22.66,4.48 l 136.82,-330.19 c 4.02,-9.68 17.83,-9.68 21.84,0 l 136.83,330.19 c 4.83,12.04 22.66,8.5 22.66,-4.48 v -357.47 c 0,-10.5 12.75,-15.7 20.19,-8.26 l 252.75,252.75 c 9.08,9.09 24.2,-0.95 19.24,-12.87 l -136.83,-330.31 c -4.01,-9.68 5.68,-19.36 15.47,-15.35 l 330.2,136.7 c 11.92,4.97 21.95,-10.03 12.86,-19.23 l -252.75,-252.76 c -7.44,-7.43 -2.12,-20.07 8.38,-20.07 h 357.46" /></g></g></svg>